<svg width="847" height="173" viewBox="0 0 847 173" fill="none" xmlns="http://www.w3.org/2000/svg">
<path d="M29.4545 0.378832L19.3846 24.8766L100.07 172.242L112.531 152.417L29.4545 0.378832ZM72.7552 127.54V164.666L97.6783 173L72.7552 127.54ZM112.28 103.8L92.2657 67.3058L77.6643 40.4088L65.8322 61.4971L112.657 147.113V104.431L112.28 103.8ZM117.692 66.6745L110.014 52.6577L103.846 41.2927L93.3986 65.0328L113.413 101.527L123.86 77.7869L117.692 66.6745ZM152.182 0L114.923 56.0672L126 76.5241L161.497 23.1088L152.182 0ZM129.65 76.1453L161.119 65.9168L180 37.5044V0.378832L129.65 76.1453ZM3.14685 0.631387L0 37.5044L16.3636 67.4321L46.8252 80.3124L3.14685 0.631387ZM71.4965 128.172V128.424V128.172Z" fill="url(#paint0_linear_1118_82874)"/>
<path d="M307.014 56.0275V133.877H293.792V81.6467H293.626L272.305 118.836H263.71L242.388 81.8119H242.223V134.042H229V56.1928H242.223L267.842 102.803H268.007L293.626 56.1928H307.014V56.0275Z" fill="black"/>
<path d="M343.212 131.728C338.253 129.745 334.121 126.935 330.65 123.464C327.179 119.993 324.535 115.695 322.717 110.902C320.733 105.944 319.907 100.654 319.907 95.0347C319.907 89.415 320.898 84.1259 322.717 79.1674C324.7 74.2088 327.344 70.0767 330.65 66.6057C334.121 63.1347 338.253 60.3249 343.212 58.3415C348.17 56.3581 353.46 55.3663 359.244 55.3663C364.864 55.3663 369.988 56.3581 374.781 58.1762C379.574 60.1596 383.707 62.8042 387.178 66.2752C390.649 69.7461 393.458 73.8782 395.442 78.8368C397.425 83.7953 398.417 89.2497 398.417 95.0347C398.417 100.82 397.425 106.274 395.442 111.233C393.458 116.191 390.649 120.489 387.178 123.794C383.707 127.265 379.574 129.91 374.781 131.893C369.988 133.877 364.699 134.868 359.244 134.868C353.46 134.703 348.17 133.711 343.212 131.728ZM369.327 120.323C372.467 119.001 375.112 117.018 377.426 114.704C379.74 112.224 381.393 109.415 382.715 105.944C384.037 102.473 384.698 98.8363 384.698 94.8694C384.698 90.9026 384.037 87.2663 382.715 83.7953C381.393 80.3244 379.575 77.5145 377.426 75.0353C375.112 72.7213 372.467 70.7378 369.327 69.4156C366.186 68.0933 362.881 67.4321 359.244 67.4321C355.608 67.4321 352.137 68.0933 348.832 69.5809C345.526 71.0684 342.881 72.8866 340.733 75.3658C338.584 77.8451 336.766 80.6549 335.443 84.1259C334.121 87.4316 333.625 91.0679 333.625 94.8694C333.625 98.671 334.286 102.307 335.443 105.613C336.766 108.919 338.419 111.894 340.733 114.373C342.881 116.852 345.691 118.836 348.832 120.158C351.972 121.48 355.443 122.307 359.244 122.307C362.715 122.472 366.186 121.811 369.327 120.323Z" fill="black"/>
<path d="M388.5 131.728C383.541 129.745 379.409 126.935 375.938 123.464C372.467 119.993 369.823 115.695 368.005 110.902C366.021 105.944 365.195 100.654 365.195 95.0347C365.195 89.415 366.186 84.1259 368.005 79.1674C369.988 74.2088 372.633 70.0767 375.938 66.6057C379.409 63.1347 383.541 60.3249 388.5 58.3415C393.458 56.3581 398.748 55.3663 404.532 55.3663C410.152 55.3663 415.276 56.3581 420.069 58.1762C424.863 60.1596 428.995 62.8042 432.466 66.2752C435.937 69.7461 438.746 73.8782 440.73 78.8368C442.713 83.7953 443.705 89.2497 443.705 95.0347C443.705 100.82 442.713 106.274 440.73 111.233C438.746 116.191 435.937 120.489 432.466 123.794C428.995 127.265 424.863 129.91 420.069 131.893C415.276 133.877 409.987 134.868 404.532 134.868C398.748 134.703 393.458 133.711 388.5 131.728ZM414.615 120.323C417.755 119.001 420.4 117.018 422.714 114.704C425.028 112.224 426.681 109.415 428.003 105.944C429.325 102.473 429.986 98.8363 429.986 94.8694C429.986 90.9026 429.325 87.2663 428.003 83.7953C426.681 80.3244 424.863 77.5145 422.714 75.0353C420.4 72.7213 417.755 70.7378 414.615 69.4156C411.474 68.0933 408.169 67.4321 404.532 67.4321C400.896 67.4321 397.425 68.0933 394.12 69.5809C390.814 71.0684 388.169 72.8866 386.021 75.3658C383.872 77.8451 382.054 80.6549 380.731 84.1259C379.409 87.4316 378.913 91.0679 378.913 94.8694C378.913 98.671 379.574 102.307 380.731 105.613C382.054 108.919 383.707 111.894 386.021 114.373C388.169 116.852 390.979 118.836 394.12 120.158C397.26 121.48 400.731 122.307 404.532 122.307C408.169 122.472 411.474 121.811 414.615 120.323Z" fill="black"/>
<path d="M464.366 131.728C459.572 129.745 455.11 126.604 451.143 122.637L459.572 112.39C462.382 115.695 465.523 118.175 468.994 119.993C472.465 121.811 476.101 122.637 479.572 122.637C483.704 122.637 487.01 121.811 489.158 120.158C491.307 118.505 492.464 116.191 492.464 113.216C492.464 112.224 492.299 111.398 492.133 110.571C491.968 109.745 491.638 109.084 491.307 108.423C490.976 107.762 490.481 107.101 489.654 106.605C488.993 105.944 488.167 105.448 487.505 105.117C486.844 104.621 485.853 104.291 484.696 103.63C483.539 103.134 482.382 102.638 481.39 102.307C480.398 101.977 479.076 101.481 477.423 100.82C475.44 100.159 473.787 99.4974 472.465 99.0016C470.977 98.5057 469.489 97.6793 467.671 96.8529C466.018 96.0264 464.531 95.2 463.209 94.2083C462.052 93.3819 460.729 92.2249 459.407 91.0679C458.085 89.9109 457.093 88.5886 456.432 87.2663C455.606 85.944 455.11 84.4565 454.614 82.6383C454.118 80.8202 453.953 79.0021 453.953 77.0187C453.953 73.0518 455.11 69.4156 457.258 65.9446C459.407 62.6389 462.382 59.9943 466.184 58.0109C469.985 56.0275 474.117 55.2011 478.415 55.2011C487.505 55.2011 496.1 58.3415 504.199 64.7876L496.266 75.2005C489.819 69.9114 483.869 67.2669 478.415 67.2669C475.274 67.2669 472.795 68.0933 470.646 69.7461C468.663 71.399 467.506 73.5477 467.506 76.3575C467.506 79.0021 468.828 81.1508 471.308 82.9689C472.96 83.9606 476.597 85.6135 482.051 87.7622C488.497 90.2415 492.795 92.2249 495.109 93.3819C500.067 96.0264 503.208 99.4974 504.86 103.63C505.687 105.944 506.183 108.588 506.183 111.728C506.183 114.869 505.687 117.679 504.53 120.323C503.538 122.968 502.051 125.117 500.232 126.935C498.414 128.753 496.431 130.24 494.117 131.563C491.803 132.885 489.324 133.711 486.844 134.373C484.365 134.868 481.886 135.199 479.241 135.199C474.283 134.703 469.324 133.711 464.366 131.728Z" fill="black"/>
<path d="M518.248 56.0275H567.173V67.928H531.471V89.415H560.396V101.316H531.471V121.976H569.487V133.877H518.248V56.0275Z" fill="black"/>
<path d="M582.048 56.0275H606.841C612.957 56.0275 618.411 57.0192 623.535 58.8373C628.659 60.8208 632.791 63.4653 636.262 66.9363C639.733 70.4073 642.377 74.5394 644.361 79.3327C646.344 84.1259 647.171 89.415 647.171 95.2C647.171 100.985 646.179 106.109 644.361 110.902C642.543 115.695 639.898 119.827 636.427 123.133C632.956 126.604 628.824 129.249 623.7 131.067C618.576 132.885 613.122 133.877 606.841 133.877H581.718V56.0275H582.048ZM606.345 121.976C610.312 121.976 614.114 121.315 617.585 119.993C621.056 118.67 623.865 116.687 626.179 114.373C628.493 112.059 630.312 109.084 631.634 105.778C632.956 102.473 633.617 98.8363 633.617 95.0347C633.617 89.7456 632.46 85.1176 630.312 80.9855C628.163 76.8534 625.022 73.5477 620.89 71.2337C616.924 68.9197 612.296 67.7627 607.172 67.7627H595.271V121.976H606.345Z" fill="black"/>
<path d="M660.063 56.0275H708.987V67.928H673.286V89.415H702.21V101.316H673.286V121.976H711.301V133.877H660.063V56.0275Z" fill="black"/>
<path d="M732.127 131.728C727.334 129.745 722.871 126.604 718.904 122.637L727.334 112.39C730.144 115.695 733.284 118.175 736.755 119.993C740.226 121.811 743.862 122.637 747.333 122.637C751.465 122.637 754.771 121.811 756.92 120.158C759.068 118.505 760.225 116.191 760.225 113.216C760.225 112.224 760.06 111.398 759.895 110.571C759.73 109.745 759.399 109.084 759.068 108.423C758.738 107.762 758.242 107.101 757.416 106.605C756.754 105.944 755.928 105.448 755.267 105.117C754.606 104.621 753.614 104.291 752.457 103.63C751.3 103.134 750.143 102.638 749.151 102.307C748.16 101.977 746.837 101.481 745.185 100.82C743.201 100.159 741.548 99.4974 740.226 99.0016C738.738 98.5057 737.251 97.6793 735.433 96.8529C733.78 96.0264 732.292 95.2 730.97 94.2083C729.813 93.3819 728.491 92.2249 727.168 91.0679C725.846 89.9109 724.855 88.5886 724.193 87.2663C723.367 85.944 722.871 84.4565 722.375 82.6383C721.879 80.8202 721.714 79.0021 721.714 77.0187C721.714 73.0518 722.871 69.4156 725.02 65.9446C727.168 62.6389 730.144 59.9943 733.945 58.0109C737.747 56.0275 741.879 55.2011 746.176 55.2011C755.267 55.2011 763.862 58.3415 771.961 64.7876L764.027 75.2005C757.581 69.9114 751.631 67.2669 746.176 67.2669C743.036 67.2669 740.557 68.0933 738.408 69.7461C736.424 71.399 735.267 73.5477 735.267 76.3575C735.267 79.0021 736.59 81.1508 739.069 82.9689C740.722 83.9606 744.358 85.6135 749.813 87.7622C756.259 90.2415 760.556 92.2249 762.87 93.3819C767.829 96.0264 770.969 99.4974 772.622 103.63C773.448 105.944 773.944 108.588 773.944 111.728C773.944 114.869 773.448 117.679 772.291 120.323C771.3 122.968 769.812 125.117 767.994 126.935C766.176 128.753 764.192 130.24 761.878 131.563C759.564 132.885 757.085 133.711 754.606 134.373C752.126 134.868 749.647 135.199 747.003 135.199C742.044 134.703 737.086 133.711 732.127 131.728Z" fill="black"/>
<path d="M807.993 101.481L799.233 111.894V133.877H786.01V56.0275H799.233V93.3819H799.398L829.315 56.0275H846.174L816.918 90.7373L847 133.877H830.637L808.158 101.316H807.993V101.481Z" fill="black"/>
<defs>
<linearGradient id="paint0_linear_1118_82874" x1="-0.0266853" y1="86.5104" x2="180.012" y2="86.5104" gradientUnits="userSpaceOnUse">
<stop stop-color="#FFAA00"/>
<stop offset="1" stop-color="#F97000"/>
</linearGradient>
</defs>
</svg>