<svg width="120" height="108" viewBox="0 0 120 108" fill="none" xmlns="http://www.w3.org/2000/svg">
<path d="M97.1311 8.23C97.1311 4.82922 94.3741 2.07227 90.9734 2.07227H8.50148C5.1007 2.07227 2.34375 4.82922 2.34375 8.23V18.8631H97.1311V8.23Z" stroke="#87909B" stroke-width="4" stroke-miterlimit="10" stroke-linecap="round" stroke-linejoin="round"/>
<path d="M48.3389 92.4453H69.1664C67.1695 88.782 66.0375 84.5844 66.0375 80.1195C66.0375 74.1055 68.0953 68.5719 71.543 64.1844L69.7664 54.8914L79.1086 57.6687C82.868 55.5312 87.2133 54.3102 91.8469 54.3102C93.6586 54.3102 95.4258 54.4977 97.132 54.8539V18.8633H2.34375V86.2883C2.34375 89.6891 5.1 92.4453 8.50078 92.4453H27.7359" stroke="#87909B" stroke-width="4" stroke-miterlimit="10" stroke-linecap="round" stroke-linejoin="round"/>
<path d="M27.2859 40.3141C30.2301 40.3141 32.6168 37.9274 32.6168 34.9832C32.6168 32.0391 30.2301 29.6523 27.2859 29.6523C24.3418 29.6523 21.9551 32.0391 21.9551 34.9832C21.9551 37.9274 24.3418 40.3141 27.2859 40.3141Z" stroke="#87909B" stroke-width="4" stroke-miterlimit="10" stroke-linecap="round" stroke-linejoin="round"/>
<path d="M43.7586 58.4977C46.7027 58.4977 49.0895 56.111 49.0895 53.1668C49.0895 50.2226 46.7027 47.8359 43.7586 47.8359C40.8144 47.8359 38.4277 50.2226 38.4277 53.1668C38.4277 56.111 40.8144 58.4977 43.7586 58.4977Z" stroke="#87909B" stroke-width="4" stroke-miterlimit="10" stroke-linecap="round" stroke-linejoin="round"/>
<path d="M15.1152 34.9824H21.9552M15.1152 53.1662H38.4271M49.0891 53.1662H59.9994M32.6172 34.9824H83.9369M15.1152 68.6745H54.5444V80.1809H15.1152V68.6745Z" stroke="#87909B" stroke-width="4" stroke-miterlimit="10" stroke-linecap="round" stroke-linejoin="round"/>
<path d="M91.848 54.3105C87.2151 54.3105 82.8681 55.5319 79.1099 57.6684L69.768 54.8909L71.5443 64.1836C68.0957 68.5713 66.0391 74.1049 66.0391 80.1194C66.0391 92.178 74.3102 102.31 85.4922 105.139C89.6411 106.193 94.0546 106.193 98.2037 105.139C109.386 102.31 117.657 92.1783 117.657 80.1197C117.657 65.8643 106.103 54.3105 91.848 54.3105Z" stroke="#D82C0D" stroke-width="4" stroke-miterlimit="10" stroke-linecap="round" stroke-linejoin="round"/>
<path d="M85.194 93.1426L85.1963 93.1402C80.5133 90.7266 77.3047 85.846 77.3047 80.2109C77.3047 74.3909 80.728 69.3683 85.6686 67.0437L86.7479 66.5645V80.2112H96.8607V66.5717L97.8507 66.962C102.885 69.2457 106.39 74.3213 106.39 80.2112C106.39 85.8458 103.186 90.7285 98.5011 93.1423L98.5058 93.1447L99.5152 104.77C97.0944 105.524 94.5167 105.929 91.8477 105.929C89.1809 105.929 86.6056 105.524 84.1848 104.773L85.194 93.1449V93.1426Z" stroke="#D82C0D" stroke-width="4" stroke-miterlimit="10" stroke-linecap="round" stroke-linejoin="round"/>
</svg>
