<svg width="1440" height="1024" viewBox="0 0 1440 1024" fill="none" xmlns="http://www.w3.org/2000/svg">
<path d="M901.186 316.049C1072.79 248.662 1116.28 92.7964 1127.11 0H1718L1718 1024H-134C-134 1024 -59.1946 625.003 317.855 695.22C444.142 718.738 620.099 729.915 685.837 653.916C751.575 577.916 674.551 405.045 901.186 316.049Z" fill="#FFA64D"/>
<path d="M171.131 497.043C171.131 497.043 165.325 502.332 154.109 515.218C151.318 511.686 148.613 508.017 146.029 504.175L114 456.662L159.036 453.595C214.927 449.788 262.668 474.492 294.042 523.47L325.726 572.947L261.807 570.639C221.543 569.191 186.344 552.222 159.467 521.609L171.131 497.043Z" fill="#E0E8FF"/>
<path d="M304.225 559.2C304.173 559.2 304.104 559.182 304.052 559.148L125.526 462.571C125.354 462.468 125.285 462.261 125.388 462.089C125.492 461.916 125.699 461.848 125.871 461.951L304.397 558.545C304.569 558.648 304.638 558.855 304.535 559.027C304.483 559.131 304.345 559.2 304.225 559.2Z" fill="white"/>
<path d="M276.297 499.265C276.297 499.265 271.834 505.725 260.566 518.56C264.426 520.851 268.44 523.039 272.592 525.089L323.952 550.465L320.971 505.433C317.267 449.53 286.393 405.548 233.638 381.016L180.349 356.243L191.186 419.278C198.008 458.988 219.544 491.582 253.485 514.132L276.297 499.265Z" fill="#FFDDBA"/>
<path d="M316.853 539.991C316.749 539.991 316.629 539.939 316.56 539.836L196.94 375.883C196.819 375.727 196.853 375.486 197.026 375.383C197.181 375.262 197.422 375.297 197.525 375.469L317.163 539.44C317.284 539.595 317.249 539.836 317.077 539.939C317.008 539.974 316.939 539.991 316.853 539.991Z" fill="white"/>
<path d="M276.297 499.265C276.297 499.265 271.834 505.725 260.566 518.56C264.426 520.851 268.44 523.039 272.592 525.089L323.952 550.465L320.971 505.433C317.267 449.53 286.393 405.548 233.638 381.016L180.349 356.243L191.186 419.278C198.008 458.988 219.544 491.582 253.485 514.132L276.297 499.265Z" fill="#FFDDBA"/>
<path d="M316.853 539.991C316.749 539.991 316.629 539.939 316.56 539.836L196.94 375.883C196.819 375.727 196.853 375.486 197.026 375.383C197.181 375.262 197.422 375.297 197.525 375.469L317.163 539.44C317.284 539.595 317.249 539.836 317.077 539.939C317.008 539.974 316.939 539.991 316.853 539.991Z" fill="white"/>
<g opacity="0.2">
<path d="M705.838 729.179C705.838 731.367 670.002 733.314 614.042 734.572C608.529 739.895 586.769 758.087 546.195 758.966C509.962 759.758 463.547 743.737 443.493 736.07C316.309 735.812 215.899 732.832 215.899 729.162C215.899 725.338 325.578 722.237 460.877 722.237C596.159 722.271 705.838 725.372 705.838 729.179Z" fill="#8C4600"/>
</g>
<path d="M686.455 726.234H692.382L665.367 575.373L651.687 577.595L686.455 726.234Z" fill="url(#paint0_linear_179845_254880)"/>
<path d="M612.457 725.992H606.168L607.288 577.233L622.088 579.456L612.457 725.992Z" fill="url(#paint1_linear_179845_254880)"/>
<path d="M550.674 725.252H544.386L569.557 576.476L583.616 578.715L550.674 725.252Z" fill="url(#paint2_linear_179845_254880)"/>
<path d="M627.894 452.369C627.894 452.369 607.392 453.231 595.848 474.937C584.305 496.644 536.581 578.646 539.338 588.638C542.094 598.63 546.815 599.595 598.295 599.543C649.775 599.491 688.626 602.799 707.268 562.745C729.493 515.025 723.463 454.902 682.2 453.92C646.295 453.058 627.894 452.369 627.894 452.369Z" fill="url(#paint3_linear_179845_254880)"/>
<path d="M638.886 580.231C638.662 580.231 638.49 580.059 638.456 579.835C638.438 579.594 638.611 579.387 638.835 579.37C656.511 577.716 671.638 565.071 676.463 547.895L681.941 528.445C682.01 528.222 682.234 528.084 682.475 528.153C682.699 528.222 682.837 528.445 682.768 528.687L677.29 548.136C674.86 556.802 669.933 564.416 663.041 570.17C656.167 575.924 647.811 579.404 638.903 580.231C638.921 580.231 638.903 580.231 638.886 580.231Z" fill="white"/>
<path d="M528.183 365.994C526.478 365.994 525.082 364.616 525.082 362.893V331.384C525.082 329.679 526.46 328.283 528.183 328.283C529.889 328.283 531.284 329.661 531.284 331.384V362.893C531.267 364.616 529.889 365.994 528.183 365.994Z" fill="#7E88C8"/>
<path d="M528.183 435.61C526.478 435.61 525.082 434.232 525.082 432.509V379.914C525.082 378.208 526.46 376.813 528.183 376.813C529.889 376.813 531.284 378.191 531.284 379.914V432.526C531.267 434.232 529.889 435.61 528.183 435.61Z" fill="#7E88C8"/>
<path d="M508.68 729.458H286.909C277.899 729.458 270.594 722.154 270.594 713.144V250.501C270.594 241.491 277.899 234.187 286.909 234.187H508.68C517.691 234.187 524.996 241.491 524.996 250.501V713.127C524.996 722.154 517.691 729.458 508.68 729.458Z" fill="#EEF1FF"/>
<path d="M508.68 732.456H286.909C276.262 732.456 267.578 723.79 267.578 713.127V250.502C267.578 239.855 276.245 231.172 286.909 231.172H508.68C519.327 231.172 528.011 239.838 528.011 250.502V713.127C527.994 723.79 519.327 732.456 508.68 732.456ZM286.909 237.185C279.57 237.185 273.591 243.163 273.591 250.502V713.127C273.591 720.466 279.57 726.443 286.909 726.443H508.68C516.02 726.443 521.998 720.466 521.998 713.127V250.502C521.998 243.163 516.02 237.185 508.68 237.185H286.909Z" fill="url(#paint4_linear_179845_254880)"/>
<path d="M508.68 732.645H286.909C276.159 732.645 267.406 723.894 267.406 713.144V250.501C267.406 239.752 276.159 231 286.909 231H508.68C519.431 231 528.183 239.752 528.183 250.501V713.127C528.183 723.894 519.431 732.645 508.68 732.645ZM286.909 231.362C276.348 231.362 267.768 239.941 267.768 250.501V713.127C267.768 723.687 276.348 732.266 286.909 732.266H508.68C519.241 732.266 527.821 723.687 527.821 713.127V250.501C527.821 239.941 519.241 231.362 508.68 231.362H286.909ZM508.68 726.633H286.909C279.466 726.633 273.402 720.569 273.402 713.127V250.501C273.402 243.059 279.466 236.995 286.909 236.995H508.68C516.123 236.995 522.188 243.059 522.188 250.501V713.127C522.17 720.586 516.123 726.633 508.68 726.633ZM286.909 237.374C279.656 237.374 273.764 243.266 273.764 250.519V713.144C273.764 720.397 279.656 726.288 286.909 726.288H508.68C515.916 726.288 521.826 720.397 521.826 713.144V250.501C521.826 243.249 515.933 237.357 508.68 237.357H286.909V237.374Z" fill="#EFEFEF"/>
<path d="M399.638 428.685C443.294 428.685 478.684 393.298 478.684 349.645C478.684 305.993 443.294 270.606 399.638 270.606C355.982 270.606 320.592 305.993 320.592 349.645C320.592 393.298 355.982 428.685 399.638 428.685Z" fill="white"/>
<mask id="mask0_179845_254880" style="mask-type:luminance" maskUnits="userSpaceOnUse" x="320" y="270" width="159" height="159">
<path d="M399.638 428.685C443.294 428.685 478.684 393.298 478.684 349.645C478.684 305.993 443.294 270.606 399.638 270.606C355.982 270.606 320.592 305.993 320.592 349.645C320.592 393.298 355.982 428.685 399.638 428.685Z" fill="white"/>
</mask>
<g mask="url(#mask0_179845_254880)">
<path d="M399.638 529.207C442.086 529.207 476.496 492.678 476.496 447.618C476.496 402.557 442.086 366.029 399.638 366.029C357.191 366.029 322.78 402.557 322.78 447.618C322.78 492.678 357.191 529.207 399.638 529.207Z" fill="url(#paint5_linear_179845_254880)"/>
<path d="M415.346 353.705C424.523 344.529 424.523 329.651 415.346 320.474C406.168 311.298 391.289 311.298 382.112 320.474C372.934 329.651 372.934 344.529 382.112 353.705C391.289 362.882 406.168 362.882 415.346 353.705Z" fill="url(#paint6_linear_179845_254880)"/>
</g>
<path d="M502.736 500.798H294.369C289.545 500.798 285.634 496.888 285.634 492.064V471.667C285.634 466.843 289.545 462.933 294.369 462.933H502.736C507.56 462.933 511.471 466.843 511.471 471.667V492.064C511.471 496.888 507.56 500.798 502.736 500.798Z" fill="white"/>
<path d="M502.736 549.604H294.369C289.545 549.604 285.634 545.694 285.634 540.87V520.473C285.634 515.649 289.545 511.738 294.369 511.738H502.736C507.56 511.738 511.471 515.649 511.471 520.473V540.87C511.471 545.694 507.56 549.604 502.736 549.604Z" fill="white"/>
<path d="M309.226 531.839C309.673 529.058 307.781 526.442 305 525.995C302.22 525.548 299.603 527.44 299.156 530.22C298.709 533.001 300.601 535.617 303.382 536.064C306.162 536.511 308.779 534.619 309.226 531.839Z" fill="#FFA64D"/>
<path d="M328.107 532.207C328.746 529.464 327.041 526.723 324.298 526.084C321.555 525.445 318.813 527.15 318.174 529.893C317.535 532.636 319.24 535.377 321.983 536.016C324.726 536.655 327.468 534.95 328.107 532.207Z" fill="#FFA64D"/>
<path d="M345.693 534.634C347.684 532.643 347.684 529.414 345.693 527.423C343.701 525.431 340.472 525.431 338.481 527.423C336.489 529.414 336.489 532.643 338.481 534.634C340.472 536.625 343.701 536.625 345.693 534.634Z" fill="#FFA64D"/>
<path d="M366.056 531.978C366.58 529.21 364.761 526.542 361.994 526.019C359.226 525.495 356.558 527.313 356.034 530.081C355.51 532.848 357.329 535.516 360.097 536.04C362.864 536.564 365.532 534.745 366.056 531.978Z" fill="#FFA64D"/>
<path d="M384.928 532.241C385.575 529.501 383.878 526.754 381.137 526.107C378.396 525.46 375.649 527.157 375.002 529.898C374.354 532.638 376.052 535.385 378.793 536.032C381.534 536.679 384.281 534.982 384.928 532.241Z" fill="#FFA64D"/>
<path d="M402.515 534.637C404.506 532.646 404.506 529.417 402.515 527.426C400.523 525.435 397.294 525.435 395.302 527.426C393.311 529.417 393.311 532.646 395.302 534.637C397.294 536.629 400.523 536.629 402.515 534.637Z" fill="#FFA64D"/>
<path d="M422.814 532.24C423.461 529.5 421.764 526.753 419.023 526.106C416.282 525.459 413.535 527.156 412.888 529.897C412.241 532.638 413.938 535.384 416.679 536.031C419.42 536.678 422.167 534.981 422.814 532.24Z" fill="#FFA64D"/>
<path d="M396.365 486.241H303.484C301.072 486.241 299.107 484.277 299.107 481.865C299.107 479.454 301.072 477.49 303.484 477.49H396.365C398.777 477.49 400.741 479.454 400.741 481.865C400.741 484.277 398.777 486.241 396.365 486.241Z" fill="#FFA64D"/>
<path d="M467.038 486.241H415.678C413.266 486.241 411.302 484.277 411.302 481.865C411.302 479.454 413.266 477.49 415.678 477.49H467.038C469.45 477.49 471.414 479.454 471.414 481.865C471.397 484.277 469.45 486.241 467.038 486.241Z" fill="#FFA64D"/>
<g opacity="0.34">
<path d="M527.925 391.853L273.522 646.233V713.127C273.522 722.137 280.828 729.441 289.838 729.441H357.169L527.925 558.7V391.853Z" fill="white"/>
<path d="M527.925 391.853L273.522 646.233V713.127C273.522 722.137 280.828 729.441 289.838 729.441H357.169L527.925 558.7V391.853Z" fill="white"/>
<path d="M511.609 234.187H414.248L273.522 374.901V502.452L527.77 248.227C526.667 240.286 519.844 234.187 511.609 234.187Z" fill="white"/>
<path d="M511.609 234.187H414.248L273.522 374.901V502.452L527.77 248.227C526.667 240.286 519.844 234.187 511.609 234.187Z" fill="white"/>
</g>
<path d="M432.043 604.524H365.263C355.736 604.524 348 596.789 348 587.262C348 577.735 355.736 570 365.263 570H432.043C441.57 570 449.306 577.735 449.306 587.262C449.306 596.806 441.57 604.524 432.043 604.524Z" fill="url(#paint7_linear_179845_254880)"/>
<path d="M386.191 590.927V592H381.215V590.927H386.191ZM381.475 582.047V592H380.155V582.047H381.475ZM387.176 588.384V588.227C387.176 587.693 387.253 587.199 387.408 586.743C387.563 586.283 387.786 585.884 388.078 585.547C388.37 585.205 388.723 584.941 389.138 584.754C389.552 584.562 390.017 584.467 390.532 584.467C391.052 584.467 391.519 584.562 391.934 584.754C392.353 584.941 392.708 585.205 393 585.547C393.296 585.884 393.522 586.283 393.677 586.743C393.832 587.199 393.909 587.693 393.909 588.227V588.384C393.909 588.917 393.832 589.411 393.677 589.867C393.522 590.323 393.296 590.722 393 591.063C392.708 591.401 392.355 591.665 391.94 591.856C391.53 592.043 391.065 592.137 390.546 592.137C390.026 592.137 389.559 592.043 389.145 591.856C388.73 591.665 388.374 591.401 388.078 591.063C387.786 590.722 387.563 590.323 387.408 589.867C387.253 589.411 387.176 588.917 387.176 588.384ZM388.44 588.227V588.384C388.44 588.753 388.484 589.102 388.57 589.43C388.657 589.753 388.787 590.04 388.96 590.291C389.138 590.542 389.359 590.74 389.623 590.886C389.887 591.027 390.195 591.098 390.546 591.098C390.892 591.098 391.195 591.027 391.455 590.886C391.719 590.74 391.938 590.542 392.111 590.291C392.285 590.04 392.414 589.753 392.501 589.43C392.592 589.102 392.638 588.753 392.638 588.384V588.227C392.638 587.862 392.592 587.518 392.501 587.194C392.414 586.866 392.282 586.577 392.104 586.326C391.931 586.071 391.713 585.87 391.448 585.725C391.188 585.579 390.883 585.506 390.532 585.506C390.186 585.506 389.881 585.579 389.616 585.725C389.356 585.87 389.138 586.071 388.96 586.326C388.787 586.577 388.657 586.866 388.57 587.194C388.484 587.518 388.44 587.862 388.44 588.227ZM400.287 584.604H401.436V591.843C401.436 592.494 401.303 593.05 401.039 593.511C400.775 593.971 400.406 594.32 399.932 594.557C399.462 594.798 398.92 594.919 398.305 594.919C398.049 594.919 397.749 594.878 397.402 594.796C397.061 594.718 396.723 594.584 396.391 594.393C396.062 594.206 395.787 593.953 395.563 593.634L396.227 592.882C396.536 593.256 396.86 593.515 397.197 593.661C397.539 593.807 397.876 593.88 398.209 593.88C398.61 593.88 398.956 593.805 399.248 593.654C399.54 593.504 399.765 593.281 399.925 592.984C400.089 592.693 400.171 592.333 400.171 591.904V586.23L400.287 584.604ZM395.194 588.384V588.24C395.194 587.675 395.26 587.162 395.393 586.702C395.529 586.237 395.723 585.839 395.974 585.506C396.229 585.173 396.536 584.918 396.896 584.74C397.257 584.558 397.662 584.467 398.113 584.467C398.578 584.467 398.984 584.549 399.33 584.713C399.681 584.872 399.977 585.107 400.219 585.417C400.465 585.722 400.659 586.091 400.8 586.524C400.941 586.957 401.039 587.447 401.094 587.994V588.623C401.044 589.165 400.946 589.653 400.8 590.086C400.659 590.519 400.465 590.888 400.219 591.193C399.977 591.499 399.681 591.733 399.33 591.897C398.979 592.057 398.569 592.137 398.1 592.137C397.658 592.137 397.257 592.043 396.896 591.856C396.541 591.67 396.236 591.408 395.98 591.07C395.725 590.733 395.529 590.337 395.393 589.881C395.26 589.421 395.194 588.922 395.194 588.384ZM396.459 588.24V588.384C396.459 588.753 396.495 589.099 396.568 589.423C396.646 589.746 396.762 590.031 396.917 590.277C397.076 590.523 397.279 590.717 397.525 590.858C397.771 590.995 398.065 591.063 398.407 591.063C398.826 591.063 399.173 590.975 399.446 590.797C399.72 590.619 399.936 590.384 400.096 590.093C400.26 589.801 400.387 589.484 400.479 589.143V587.495C400.428 587.244 400.351 587.003 400.246 586.771C400.146 586.534 400.014 586.324 399.85 586.142C399.69 585.955 399.492 585.807 399.255 585.697C399.018 585.588 398.74 585.533 398.421 585.533C398.075 585.533 397.776 585.606 397.525 585.752C397.279 585.893 397.076 586.089 396.917 586.34C396.762 586.586 396.646 586.873 396.568 587.201C396.495 587.525 396.459 587.871 396.459 588.24ZM408.436 582.047V592H407.116V582.047H408.436ZM411.908 586.183V592H410.644V584.604H411.84L411.908 586.183ZM411.607 588.021L411.081 588.001C411.086 587.495 411.161 587.028 411.307 586.6C411.452 586.167 411.658 585.791 411.922 585.472C412.186 585.153 412.501 584.907 412.865 584.733C413.234 584.556 413.642 584.467 414.089 584.467C414.453 584.467 414.782 584.517 415.073 584.617C415.365 584.713 415.613 584.868 415.818 585.082C416.028 585.296 416.188 585.574 416.297 585.916C416.406 586.253 416.461 586.666 416.461 587.153V592H415.189V587.14C415.189 586.752 415.132 586.442 415.019 586.21C414.905 585.973 414.738 585.802 414.52 585.697C414.301 585.588 414.032 585.533 413.713 585.533C413.398 585.533 413.111 585.599 412.852 585.731C412.596 585.864 412.375 586.046 412.188 586.278C412.006 586.511 411.863 586.777 411.758 587.078C411.658 587.374 411.607 587.689 411.607 588.021Z" fill="white"/>
<path d="M565.887 402.099C566.197 402.599 566.611 403.116 567.179 403.185C567.972 403.271 568.54 402.444 568.885 401.72C570.487 398.344 571.332 394.588 571.297 390.833C571.28 388.645 570.935 386.354 569.609 384.648C568.609 383.339 566.887 382.46 565.215 382.65C563.596 382.839 563.406 384.097 563.079 385.527C562.269 389.093 562.373 392.866 563.337 396.397C563.923 398.396 564.767 400.325 565.887 402.099Z" fill="#3C4363"/>
<path d="M530.809 521.503L552.948 451.198C554.051 447.683 556.877 444.961 560.443 443.997L601.655 432.851L648.517 435.814C650.843 436.227 652.893 437.64 654.099 439.673L688.626 504.017C694.673 514.267 687.058 527.171 675.153 526.843L668.21 526.654L667.193 534.492L633.631 540.005L587.148 541.917L580.101 539.73L534.41 525.81L530.809 521.503Z" fill="white"/>
<path d="M660.801 452.473C660.681 452.473 660.577 452.404 660.526 452.3L653.824 439.793C652.669 437.846 650.723 436.486 648.483 436.089L611.975 433.781C611.802 433.764 611.665 433.626 611.682 433.454C611.699 433.281 611.837 433.143 612.009 433.161L648.534 435.469C648.552 435.469 648.552 435.469 648.569 435.469C650.998 435.9 653.117 437.364 654.358 439.483L661.077 451.99C661.163 452.145 661.094 452.335 660.939 452.421C660.905 452.473 660.853 452.473 660.801 452.473Z" fill="#4961D8"/>
<path d="M539.992 492.612C539.958 492.612 539.923 492.612 539.889 492.595C539.717 492.543 539.63 492.371 539.682 492.199L552.638 451.094C553.793 447.459 556.67 444.686 560.357 443.686L583.943 437.312C584.116 437.26 584.288 437.364 584.339 437.536C584.391 437.708 584.288 437.881 584.116 437.932L560.529 444.307C557.049 445.254 554.327 447.855 553.259 451.301L540.302 492.405C540.251 492.526 540.13 492.612 539.992 492.612Z" fill="#4961D8"/>
<path d="M569.523 490.028C569.385 490.028 569.247 489.925 569.212 489.787L565.146 471.44C565.112 471.268 565.215 471.095 565.388 471.061C565.56 471.026 565.732 471.13 565.767 471.302L569.833 489.649C569.867 489.821 569.764 489.994 569.592 490.028C569.574 490.028 569.557 490.028 569.523 490.028Z" fill="#4961D8"/>
<path d="M611.199 437.726C609.494 441.482 605.91 444.29 601.947 445.461C597.985 446.633 593.488 445.84 590.008 443.618C588.457 440.086 587.906 438.174 586.665 434.522C580.721 434.229 575.742 429.595 573.055 424.289C570.367 418.982 569.454 412.987 568.075 407.199C567.231 403.667 566.197 400.05 565.715 396.466C565.302 393.383 565.284 390.316 566.146 387.336C568.127 380.41 574.76 375.363 581.876 374.226C588.681 373.14 595.866 373.554 601.241 377.895C606.461 382.116 609.528 388.869 609.287 395.57C609.287 395.76 609.27 395.932 609.27 396.122C608.942 401.342 607.96 406.269 606.513 411.282C605.565 414.555 607.151 418.224 607.616 421.601C608.46 427.717 609.769 431.714 611.199 437.726Z" fill="#FCC5B6"/>
<path d="M583.891 421.119C583.736 421.119 583.599 420.998 583.581 420.826C583.564 420.653 583.685 420.498 583.857 420.481C587.337 420.137 590.628 418.603 593.109 416.123C593.23 416.002 593.436 416.002 593.557 416.123C593.677 416.243 593.677 416.45 593.557 416.571C590.973 419.137 587.544 420.757 583.909 421.101C583.909 421.119 583.909 421.119 583.891 421.119Z" fill="#1A1A1A"/>
<path d="M591.016 406.478C591.701 406.364 592.105 405.366 591.92 404.249C591.734 403.132 591.027 402.319 590.342 402.433C589.657 402.547 589.252 403.545 589.438 404.662C589.624 405.779 590.33 406.592 591.016 406.478Z" fill="#1A1A1A"/>
<path d="M575.034 409.809C575.714 409.67 576.083 408.659 575.857 407.549C575.631 406.44 574.896 405.653 574.216 405.791C573.535 405.93 573.166 406.941 573.392 408.051C573.618 409.16 574.353 409.947 575.034 409.809Z" fill="#1A1A1A"/>
<path d="M614.059 531.374C613.904 531.374 613.766 531.271 613.749 531.099C612.061 520.28 609.58 509.513 607.185 499.09C603.705 483.964 600.104 468.322 599.036 452.765C599.019 452.593 599.156 452.438 599.329 452.421C599.501 452.404 599.656 452.541 599.673 452.714C600.741 468.218 604.342 483.844 607.805 498.935C610.2 509.358 612.681 520.142 614.387 530.978C614.421 531.15 614.301 531.305 614.128 531.34C614.094 531.374 614.077 531.374 614.059 531.374Z" fill="#4961D8"/>
<path d="M505.776 664.37L501.985 701.047L520.317 699.152L523.797 667.213C516.905 669.004 512.564 666.558 505.776 664.37Z" fill="#FCC5B6"/>
<path d="M575.484 546.396L559.633 548.464L529.62 553.063C520.179 554.183 512.839 561.815 512.099 571.29L504.587 667.643C511.375 669.848 518.818 670.089 525.709 668.298L540.871 581.54L573.123 571.101L633.838 548.016L575.484 546.396Z" fill="#50496A"/>
<path d="M595.573 701.667L595.263 663.732C594.332 664.128 593.884 664.852 593.057 665.317C589.301 667.401 587.51 665.127 583.254 665.627C581.014 665.885 577.551 667.987 574.708 667.522L576.604 704.199L595.573 701.667Z" fill="#FCC5B6"/>
<path d="M582.031 670.64C586.286 670.141 590.456 668.831 594.212 666.764C595.056 666.299 595.969 665.799 596.917 665.403L600.018 581.213L645.226 570.463C658.803 567.293 668.244 554.924 667.71 540.987L667.366 531.891L637.818 537.455C633.028 538.351 628.187 538.988 623.311 539.333L587.199 541.917L588.922 550.376C576.948 552.081 568.248 562.659 568.885 574.735L573.847 669.727C576.673 670.175 579.791 670.916 582.031 670.64Z" fill="#50496A"/>
<path d="M634.269 520.348L622.588 517.558L616.833 514.216C615.731 515.594 613.697 515.783 612.354 514.646L598.467 502.914C598.467 502.914 591.059 506.205 587.682 505.171C584.305 504.137 584.598 503.569 584.598 503.569C587.441 502.191 596.848 497.815 601.413 494.473C602.774 493.474 604.032 492.716 605.1 492.13C607.392 490.872 610.234 491.131 612.285 492.767L624.638 502.604C624.638 502.604 629.272 503.173 635.458 503.879" fill="#FCC5B6"/>
<path d="M557.652 546.034L637.594 542.641L637.491 544.036C637.336 546.224 635.561 547.929 633.373 548.016L553.965 550.944L557.652 546.034Z" fill="#4961D8"/>
<path d="M569.092 571.548C568.937 571.548 568.799 571.428 568.782 571.273C568.058 566.483 569.092 561.35 571.642 557.232C574.174 553.098 578.275 549.859 582.892 548.343C583.065 548.291 583.237 548.377 583.289 548.55C583.34 548.722 583.254 548.894 583.082 548.946C578.619 550.41 574.64 553.563 572.176 557.56C569.712 561.574 568.696 566.535 569.402 571.187C569.436 571.359 569.316 571.514 569.144 571.548C569.126 571.548 569.109 571.548 569.092 571.548Z" fill="white"/>
<path d="M544.644 525.431C545.574 523.915 545.833 521.933 545.058 520.331C543.317 516.679 537.511 517.678 537.408 521.761C537.305 525.844 541.801 530.116 544.644 525.431Z" fill="white"/>
<path d="M576.604 699.462L562.683 718.757L546.108 733.934C544.765 735.157 543.851 736.794 543.524 738.585C542.956 741.704 545.144 744.649 548.297 744.977L553.758 745.563C561.77 746.424 569.833 744.408 576.5 739.895L595.486 727.06C597.847 725.458 599.087 722.65 598.657 719.825L595.555 699.152L592.42 700.633C587.32 703.045 581.324 702.597 576.604 699.462Z" fill="#77749C"/>
<path d="M503.243 689.332L489.322 708.627L472.748 723.804C471.404 725.027 470.491 726.664 470.163 728.456C469.595 731.574 471.783 734.52 474.936 734.847L480.397 735.433C488.409 736.294 496.472 734.278 503.14 729.765L522.126 716.93C524.486 715.328 525.727 712.52 525.296 709.695L522.195 689.022L519.059 690.504C513.977 692.915 507.964 692.485 503.243 689.332Z" fill="#77749C"/>
<path d="M599.036 503.311C598.95 503.311 598.846 503.276 598.794 503.19C598.691 503.052 598.708 502.863 598.846 502.742C601.293 500.761 603.877 498.866 606.53 497.126C606.668 497.022 606.875 497.074 606.961 497.212C607.064 497.35 607.013 497.557 606.875 497.643C604.256 499.365 601.689 501.243 599.242 503.224C599.174 503.276 599.105 503.311 599.036 503.311Z" fill="#1A1A1A"/>
<path d="M603.584 507.135C603.498 507.135 603.412 507.101 603.343 507.015C603.222 506.877 603.24 506.687 603.377 506.567L610.321 500.727C610.459 500.623 610.648 500.623 610.769 500.761C610.889 500.899 610.872 501.088 610.734 501.209L603.791 507.049C603.722 507.101 603.653 507.135 603.584 507.135Z" fill="#1A1A1A"/>
<path d="M607.357 510.512C607.271 510.512 607.185 510.477 607.116 510.408C606.996 510.27 607.013 510.081 607.133 509.96C609.356 507.927 611.802 506.101 614.387 504.551C614.542 504.465 614.731 504.516 614.817 504.654C614.904 504.809 614.852 504.999 614.714 505.085C612.164 506.618 609.752 508.41 607.564 510.408C607.495 510.477 607.426 510.512 607.357 510.512Z" fill="#1A1A1A"/>
<path d="M618.815 514.319C618.711 514.319 618.608 514.267 618.556 514.181C618.47 514.026 618.504 513.837 618.659 513.751C618.987 513.544 619.073 513.182 619.09 512.941C619.125 512.407 618.866 511.838 618.47 511.528C617.798 510.977 616.575 510.942 615.61 510.908L615.3 510.891C615.162 510.891 615.059 510.805 615.007 510.667C614.972 510.546 615.007 510.408 615.11 510.322L618.573 507.514C618.711 507.411 618.901 507.428 619.021 507.566C619.125 507.704 619.107 507.893 618.97 508.014L616.161 510.305C617.109 510.357 618.16 510.477 618.866 511.046C619.418 511.494 619.762 512.252 619.728 512.993C619.693 513.561 619.435 514.026 619.004 514.302C618.918 514.302 618.866 514.319 618.815 514.319Z" fill="#1A1A1A"/>
<path d="M574.364 565.587C574.226 565.587 574.088 565.483 574.054 565.346C574.019 565.174 574.123 565.001 574.278 564.967C577.81 564.089 581.583 563.899 585.184 564.45C585.356 564.485 585.477 564.64 585.442 564.812C585.408 564.984 585.253 565.105 585.08 565.07C581.566 564.536 577.879 564.709 574.416 565.57C574.416 565.587 574.381 565.587 574.364 565.587Z" fill="white"/>
<path d="M526.312 564.812C526.278 564.812 526.244 564.812 526.209 564.795C523.073 563.796 519.61 563.727 516.44 564.588C516.268 564.64 516.096 564.536 516.044 564.364C515.992 564.192 516.096 564.02 516.268 563.968C519.559 563.073 523.142 563.159 526.399 564.175C526.571 564.226 526.657 564.399 526.605 564.571C526.571 564.726 526.45 564.812 526.312 564.812Z" fill="white"/>
<path d="M568.989 399.446C568.489 399.67 567.886 400.084 568.041 400.618C568.196 401.135 568.902 401.186 569.436 401.1C571.521 400.79 573.554 400.153 575.449 399.222C577.327 398.292 576.001 397 574.467 397.465C572.641 398.051 570.763 398.688 568.989 399.446Z" fill="#3C4363"/>
<path d="M607.547 546.896C607.219 546.896 606.875 546.844 606.547 546.689C606.237 546.517 605.979 546.19 605.91 545.828C605.858 545.535 605.91 545.259 606.082 545.053C606.186 544.915 606.392 544.898 606.53 545.001C606.668 545.104 606.685 545.311 606.582 545.449C606.53 545.518 606.513 545.604 606.53 545.707C606.565 545.88 606.685 546.052 606.84 546.138C607.185 546.328 607.65 546.276 608.029 546.241L611.096 545.983C611.268 545.966 611.423 546.104 611.44 546.276C611.458 546.448 611.32 546.603 611.148 546.62L608.081 546.879C607.926 546.896 607.736 546.896 607.547 546.896Z" fill="white"/>
<path d="M564.337 383.976C564.337 383.976 565.267 386.646 580.601 386.405C587.32 386.302 591.231 386.199 593.488 386.112C595.435 386.044 597.278 387.025 598.312 388.679L604.773 399.119L609.27 398.103C609.27 398.103 609.649 391.143 610.493 387.094C611.337 383.063 612.199 376.482 605.083 369.815C597.985 363.148 585.27 362.769 580.291 364.354C575.294 365.939 567.593 368.764 564.664 374.122C561.735 379.497 564.337 383.976 564.337 383.976Z" fill="#3C4363"/>
<path d="M582.444 400.67C581.927 400.428 581.359 400.308 580.807 400.17C580.273 400.049 579.67 399.963 579.257 400.308C578.912 400.618 578.861 401.135 578.843 401.6C578.723 404.374 578.619 407.147 578.499 409.938C578.464 410.748 578.43 411.592 578.723 412.35C579.085 413.297 579.963 414.038 580.945 414.21C581.945 414.383 583.03 413.969 583.633 413.177C584.115 412.539 584.288 411.73 584.408 410.954C584.856 408.026 584.736 404.735 583.702 401.927C583.512 401.341 583.013 400.945 582.444 400.67Z" fill="#FCC5B6"/>
<path d="M588.957 434.332C588.785 434.332 588.647 434.194 588.647 434.039C588.629 433.867 588.767 433.712 588.94 433.712C595.814 433.299 602.258 428.509 604.635 422.049C604.687 421.877 604.876 421.808 605.049 421.86C605.221 421.911 605.29 422.101 605.238 422.273C602.774 428.957 596.09 433.919 588.991 434.349C588.974 434.332 588.957 434.332 588.957 434.332Z" fill="#1A1A1A"/>
<path d="M610.148 397.552C611.889 398.344 613.112 400.067 613.542 401.945C613.956 403.805 613.646 405.804 612.871 407.544C612.13 409.232 610.906 410.817 609.218 411.558C607.53 412.298 605.324 412.04 604.118 410.627C603.498 409.887 603.188 408.939 602.998 408.009C602.395 405.097 602.723 402.014 603.877 399.292C604.773 397.173 608.098 396.621 610.148 397.552Z" fill="#FCC5B6"/>
<path d="M609.356 405.648C609.252 405.648 609.149 405.596 609.08 405.493C608.374 404.27 607.392 403.202 606.255 402.358C606.117 402.254 606.082 402.065 606.186 401.91C606.289 401.772 606.479 401.738 606.634 401.841C607.84 402.719 608.873 403.874 609.632 405.166C609.718 405.321 609.666 405.51 609.511 405.596C609.459 405.631 609.408 405.648 609.356 405.648Z" fill="#1A1A1A"/>
<path d="M581.221 414.4C580.084 414.4 578.964 413.694 578.499 412.626C578.189 411.868 578.206 411.058 578.223 410.334L578.482 400.945C578.482 400.773 578.62 400.635 578.792 400.635C578.792 400.635 578.792 400.635 578.809 400.635C578.981 400.635 579.119 400.79 579.119 400.963L578.861 410.352C578.843 411.006 578.826 411.764 579.085 412.384C579.498 413.349 580.67 413.952 581.686 413.711C581.859 413.676 582.031 413.78 582.065 413.952C582.1 414.124 581.996 414.297 581.824 414.331C581.635 414.383 581.428 414.4 581.221 414.4Z" fill="#1A1A1A"/>
<path d="M593.006 393.038C593.316 393.021 593.66 393.021 593.902 393.21C594.177 393.434 594.229 393.882 594.074 394.209C593.936 394.537 593.643 394.778 593.333 394.985C591.886 395.949 590.094 396.208 588.371 396.432C587.251 396.569 586.149 396.707 585.029 396.845C584.236 396.948 582.444 396.914 582.892 395.656C583.202 394.778 584.994 394.468 585.735 394.244C588.113 393.589 590.542 393.176 593.006 393.038Z" fill="#3C4363"/>
<g opacity="0.99">
<path d="M626.24 501.829C629.479 507.324 630.117 514.284 627.929 520.28C631.219 520.969 634.217 522.157 637.508 522.846C639.817 523.329 642.418 523.759 644.331 522.398C646.002 521.227 646.605 519.074 646.949 517.058C647.432 514.164 647.587 511.166 646.76 508.358C645.554 504.327 642.194 501.002 638.145 499.831C634.097 498.676 629.41 499.055 626.24 501.829Z" fill="white"/>
</g>
<path d="M605.807 457.606C605.789 457.606 605.772 457.606 605.755 457.606C605.669 457.589 605.583 457.537 605.531 457.451C603.86 454.557 601.327 450.164 601.12 449.888C601.017 449.751 601.034 449.544 601.172 449.44C601.31 449.337 601.499 449.354 601.62 449.492C601.878 449.819 604.98 455.212 605.876 456.779C607.409 455.298 614.525 447.855 614.645 438.38C614.645 438.208 614.8 438.088 614.972 438.07C615.145 438.07 615.283 438.208 615.283 438.398C615.145 449.234 606.117 457.434 606.013 457.52C605.962 457.589 605.893 457.606 605.807 457.606Z" fill="#4961D8"/>
<path d="M594.315 457.709C594.229 457.709 594.143 457.675 594.091 457.606C594.022 457.52 586.441 449.406 586.441 439.5C586.441 439.328 586.579 439.19 586.752 439.19C586.924 439.19 587.062 439.328 587.062 439.5C587.044 447.941 592.73 455.091 594.194 456.779L596.917 449.664C596.986 449.509 597.158 449.423 597.33 449.475C597.485 449.544 597.571 449.716 597.52 449.888L594.625 457.485C594.591 457.589 594.505 457.658 594.384 457.675C594.367 457.709 594.332 457.709 594.315 457.709Z" fill="#4961D8"/>
<path d="M626.671 503.276C626.499 503.276 626.361 503.138 626.361 502.966C626.361 502.794 626.499 502.656 626.671 502.656C642.435 502.57 658.217 500.675 673.551 497.005C673.723 496.971 673.895 497.074 673.93 497.246C673.964 497.419 673.861 497.591 673.689 497.625C658.32 501.278 642.504 503.19 626.671 503.276Z" fill="#4961D8"/>
<path d="M665.109 526.223C665.091 526.223 665.074 526.223 665.04 526.223C651.222 523.415 641.229 521.4 628.807 519.246C628.635 519.212 628.514 519.057 628.549 518.884C628.583 518.712 628.738 518.592 628.911 518.626C641.333 520.797 651.325 522.795 665.16 525.603C665.333 525.638 665.436 525.81 665.402 525.982C665.384 526.12 665.264 526.223 665.109 526.223Z" fill="#4961D8"/>
<path d="M640.213 518.367H640.196C640.023 518.35 639.885 518.195 639.903 518.023C640.264 513.233 639.782 508.479 638.49 503.862C638.438 503.689 638.542 503.517 638.714 503.465C638.886 503.414 639.058 503.517 639.11 503.689C640.42 508.375 640.902 513.216 640.54 518.074C640.523 518.247 640.385 518.367 640.213 518.367Z" fill="#4961D8"/>
<path d="M653.686 499.744C653.582 499.744 653.462 499.693 653.41 499.589L639.817 474.954C639.73 474.799 639.782 474.61 639.937 474.523C640.092 474.437 640.282 474.489 640.368 474.644L653.961 499.279C654.048 499.434 653.996 499.624 653.841 499.71C653.789 499.744 653.737 499.744 653.686 499.744Z" fill="#4961D8"/>
<path d="M599.949 581.368C599.777 581.368 599.639 581.23 599.639 581.058L599.69 572.048C599.69 571.876 599.828 571.738 600 571.738C600.173 571.738 600.311 571.876 600.311 572.048L600.259 581.058C600.259 581.23 600.121 581.368 599.949 581.368Z" fill="white"/>
<path d="M540.457 582.161C540.44 582.161 540.44 582.161 540.423 582.161C540.251 582.143 540.13 581.988 540.147 581.816L541.043 573.599C541.06 573.426 541.215 573.306 541.388 573.323C541.56 573.34 541.681 573.495 541.663 573.667L540.768 581.885C540.75 582.04 540.612 582.161 540.457 582.161Z" fill="white"/>
<path d="M660.009 542.675C657.08 542.675 654.151 541.142 652.514 538.713C652.411 538.575 652.463 538.368 652.6 538.282C652.738 538.179 652.945 538.23 653.031 538.368C654.668 540.815 657.752 542.279 660.681 542.02C660.853 542.003 661.008 542.141 661.025 542.313C661.043 542.486 660.905 542.641 660.733 542.658C660.509 542.675 660.25 542.675 660.009 542.675Z" fill="white"/>
<path d="M604.084 564.537C603.929 564.537 603.791 564.416 603.774 564.261C603.756 564.089 603.877 563.934 604.049 563.917C621.778 561.935 638.972 557.077 655.116 549.515C655.271 549.446 655.46 549.515 655.529 549.67C655.598 549.825 655.529 550.014 655.374 550.083C639.162 557.698 621.916 562.556 604.101 564.554C604.118 564.537 604.101 564.537 604.084 564.537Z" fill="white"/>
<path d="M592.024 658.03H592.006C591.834 658.013 591.696 657.875 591.713 657.702C593.316 629.691 593.126 601.317 591.162 573.323C591.145 573.15 591.283 572.995 591.455 572.978C591.645 572.961 591.782 573.099 591.8 573.271C593.764 601.283 593.953 629.691 592.351 657.72C592.316 657.909 592.179 658.03 592.024 658.03Z" fill="white"/>
<path d="M584.236 662.354C581.721 662.354 579.188 662.027 576.741 661.338C576.569 661.286 576.466 661.114 576.518 660.941C576.569 660.769 576.741 660.666 576.914 660.717C582.909 662.371 589.37 661.94 595.09 659.494C595.245 659.425 595.435 659.494 595.504 659.666C595.573 659.822 595.504 660.011 595.331 660.08C591.817 661.596 588.026 662.354 584.236 662.354Z" fill="white"/>
<path d="M516.716 662.767C513.425 662.767 510.152 662.009 507.223 660.528C507.068 660.442 506.999 660.252 507.085 660.097C507.171 659.942 507.361 659.873 507.516 659.959C512.529 662.509 518.646 662.836 523.9 660.821C524.055 660.752 524.245 660.838 524.314 661.01C524.383 661.165 524.297 661.355 524.124 661.424C521.764 662.32 519.249 662.767 516.716 662.767Z" fill="white"/>
<path d="M581.669 710.746C581.6 710.746 581.548 710.729 581.497 710.694C578.602 708.662 574.933 707.869 571.452 708.489C571.28 708.524 571.108 708.403 571.09 708.231C571.073 708.059 571.177 707.886 571.349 707.869C575.001 707.215 578.826 708.059 581.859 710.178C581.996 710.281 582.031 710.471 581.945 710.626C581.876 710.694 581.772 710.746 581.669 710.746Z" fill="white"/>
<path d="M580.222 714.657C580.153 714.657 580.067 714.622 579.998 714.57C577.241 711.986 573.072 710.901 569.402 711.797C569.23 711.831 569.057 711.728 569.023 711.573C568.989 711.401 569.092 711.228 569.247 711.194C573.123 710.246 577.517 711.401 580.429 714.123C580.549 714.243 580.566 714.45 580.446 714.57C580.394 714.622 580.308 714.657 580.222 714.657Z" fill="white"/>
<path d="M576.776 718.894C576.69 718.894 576.621 718.86 576.552 718.808C574.123 716.448 570.642 715.208 567.266 715.449C567.093 715.466 566.938 715.328 566.921 715.156C566.904 714.984 567.042 714.829 567.214 714.811C570.763 714.553 574.416 715.862 576.983 718.343C577.103 718.464 577.103 718.67 576.983 718.791C576.948 718.86 576.862 718.894 576.776 718.894Z" fill="white"/>
<path d="M508.584 700.134C508.515 700.134 508.429 700.099 508.377 700.048C505.81 697.791 502.244 696.619 498.85 696.895C498.677 696.912 498.522 696.774 498.505 696.602C498.488 696.43 498.626 696.275 498.798 696.258C502.364 695.965 506.103 697.188 508.808 699.565C508.946 699.686 508.946 699.875 508.842 700.013C508.756 700.099 508.67 700.134 508.584 700.134Z" fill="white"/>
<path d="M507.206 703.717C507.137 703.717 507.05 703.683 506.999 703.631C504.414 701.236 500.779 700.03 497.282 700.427C497.109 700.444 496.954 700.323 496.937 700.151C496.92 699.979 497.04 699.824 497.213 699.806C500.9 699.393 504.707 700.651 507.43 703.183C507.55 703.304 507.567 703.51 507.447 703.631C507.378 703.683 507.292 703.717 507.206 703.717Z" fill="white"/>
<path d="M505.621 707.369C505.552 707.369 505.483 707.352 505.414 707.3C502.571 704.871 498.798 703.648 495.059 703.941C494.887 703.958 494.732 703.82 494.715 703.648C494.697 703.476 494.835 703.321 495.007 703.304C498.901 702.994 502.847 704.268 505.827 706.801C505.965 706.921 505.982 707.111 505.862 707.249C505.793 707.335 505.707 707.369 505.621 707.369Z" fill="white"/>
<path d="M496.076 495.851L580.584 493.611C582.513 493.56 584.202 494.869 584.632 496.747L596.038 549.514L509.704 552.822C507.154 552.943 504.88 551.237 504.259 548.774L492.234 500.881C491.613 498.383 493.474 495.92 496.076 495.851Z" fill="#9FB6FD"/>
<path d="M540.509 524.569C541.44 523.053 541.698 521.072 540.923 519.47C539.182 515.818 533.376 516.817 533.273 520.9C533.17 524.983 537.666 529.255 540.509 524.569Z" fill="white"/>
<path d="M220.63 731.043C215.961 731.043 211.326 729.837 207.243 727.58L183.966 714.66C164.394 703.807 150.835 684.081 147.682 661.927L136.484 583.111C134.847 571.603 142.514 560.854 153.936 558.648L213.049 547.209C218.028 546.245 223.214 546.245 228.21 547.209L287.323 558.648C298.746 560.854 306.412 571.603 304.776 583.111L293.577 661.91C290.424 684.064 276.865 703.789 257.293 714.643L234.016 727.563C229.933 729.854 225.316 731.043 220.63 731.043ZM220.63 547.399C218.149 547.399 215.65 547.64 213.221 548.105L154.109 559.544C143.151 561.663 135.812 571.965 137.379 583.008L148.578 661.823C151.679 683.702 165.084 703.169 184.414 713.902L207.691 726.822C211.636 729.01 216.116 730.182 220.647 730.182C225.161 730.182 229.64 729.028 233.603 726.822L256.879 713.902C276.21 703.169 289.597 683.702 292.715 661.823L303.914 583.025C305.482 571.982 298.143 561.68 287.185 559.561L228.073 548.122C225.609 547.64 223.111 547.399 220.63 547.399Z" fill="#382A73"/>
<path d="M220.63 725.151C216.96 725.151 213.325 724.204 210.103 722.429L186.826 709.509C168.857 699.534 156.417 681.445 153.523 661.1L142.324 582.284C141.135 573.894 146.718 566.056 155.056 564.437L214.169 552.998C216.288 552.584 218.459 552.377 220.63 552.377C222.8 552.377 224.971 552.584 227.09 552.998L286.203 564.437C294.524 566.039 300.124 573.894 298.935 582.284L287.736 661.1C284.842 681.445 272.403 699.534 254.433 709.509L231.156 722.429C227.952 724.204 224.317 725.151 220.63 725.151Z" fill="#6476EA"/>
<path d="M293.542 581.544L282.344 660.359C279.673 679.12 268.371 695.555 251.797 704.754L228.521 717.675C223.628 720.397 217.666 720.397 212.756 717.675L189.48 704.754C172.906 695.555 161.586 679.12 158.933 660.359L147.734 581.544C146.959 576.031 150.629 570.88 156.09 569.812L215.203 558.373C218.786 557.684 222.473 557.684 226.04 558.373L285.152 569.812C290.648 570.863 294.318 576.031 293.542 581.544Z" fill="url(#paint8_linear_179845_254880)"/>
<path d="M216.322 665.751L183.76 633.191C182.485 631.917 182.485 629.832 183.76 628.557C185.035 627.282 187.119 627.282 188.394 628.557L216.322 656.483L264.408 608.384C265.683 607.109 267.768 607.109 269.043 608.384C270.318 609.659 270.318 611.743 269.043 613.018L216.322 665.751Z" fill="white"/>
<g opacity="0.47">
<path d="M215.22 558.373L156.107 569.812C150.646 570.863 146.959 576.031 147.751 581.544L158.95 660.359C161.62 679.12 172.923 695.555 189.497 704.754L212.773 717.675C215.065 718.949 217.58 719.604 220.113 719.69V557.873C218.459 557.908 216.822 558.063 215.22 558.373Z" fill="white"/>
</g>
<defs>
<linearGradient id="paint0_linear_179845_254880" x1="672.035" y1="575.373" x2="672.035" y2="726.234" gradientUnits="userSpaceOnUse">
<stop stop-color="#F3F3FA"/>
<stop offset="1" stop-color="#A7C3EE"/>
</linearGradient>
<linearGradient id="paint1_linear_179845_254880" x1="614.128" y1="577.233" x2="614.128" y2="725.992" gradientUnits="userSpaceOnUse">
<stop stop-color="#F3F3FA"/>
<stop offset="1" stop-color="#A7C3EE"/>
</linearGradient>
<linearGradient id="paint2_linear_179845_254880" x1="564.001" y1="576.476" x2="564.001" y2="725.252" gradientUnits="userSpaceOnUse">
<stop stop-color="#F3F3FA"/>
<stop offset="1" stop-color="#A7C3EE"/>
</linearGradient>
<linearGradient id="paint3_linear_179845_254880" x1="688.5" y1="428.5" x2="575.5" y2="589" gradientUnits="userSpaceOnUse">
<stop stop-color="#A2BAF5"/>
<stop offset="1" stop-color="#6E80D8"/>
</linearGradient>
<linearGradient id="paint4_linear_179845_254880" x1="397.795" y1="231.172" x2="397.795" y2="732.456" gradientUnits="userSpaceOnUse">
<stop stop-color="#AFC5F0"/>
<stop offset="1" stop-color="#8496F0"/>
</linearGradient>
<linearGradient id="paint5_linear_179845_254880" x1="399.638" y1="366.029" x2="399.638" y2="529.207" gradientUnits="userSpaceOnUse">
<stop stop-color="#5D82E0"/>
<stop offset="1" stop-color="#9DC4FF"/>
</linearGradient>
<linearGradient id="paint6_linear_179845_254880" x1="382.112" y1="320.474" x2="415.343" y2="353.708" gradientUnits="userSpaceOnUse">
<stop stop-color="#3165E2"/>
<stop offset="1" stop-color="#678CE5"/>
</linearGradient>
<linearGradient id="paint7_linear_179845_254880" x1="348" y1="591" x2="451" y2="581" gradientUnits="userSpaceOnUse">
<stop stop-color="#638CEA"/>
<stop offset="1" stop-color="#86A9F9"/>
</linearGradient>
<linearGradient id="paint8_linear_179845_254880" x1="148" y1="630.5" x2="287" y2="630.5" gradientUnits="userSpaceOnUse">
<stop stop-color="#8CABFF"/>
<stop offset="0.509874" stop-color="#B3C6FF"/>
<stop offset="1" stop-color="#8CAAFF"/>
</linearGradient>
</defs>
</svg>
