<svg width="315" height="320" viewBox="0 0 315 320" fill="none" xmlns="http://www.w3.org/2000/svg">
<path d="M292.992 317.811H10.9979V320H292.992V317.811Z" fill="#C8D3FB"/>
<path d="M138.961 314.516C3.82912 285.894 -7.43188 232.404 2.8907 164.995C9.61601 120.889 35.5789 54.2615 75.618 20.7913C76.0872 20.4785 76.5564 20.0093 77.0256 19.6965C99.704 1.24096 126.762 -6.42278 157.26 6.24585C157.729 6.40225 158.199 6.55865 158.668 6.87146C162.265 8.43548 165.862 10.3123 169.46 12.3456C248.756 58.4844 194.171 114.633 259.391 137.624C370.906 177.194 274.093 343.137 138.961 314.516Z" fill="url(#paint0_linear_180125_331598)"/>
<path d="M226.365 36.2844C221.203 62.7164 230.275 111.983 282.044 128.875C333.657 145.766 315.827 105.258 282.044 72.257C248.261 39.0996 234.341 -3.59832 226.365 36.2844Z" fill="url(#paint1_linear_180125_331598)"/>
<path d="M252.484 237.419H226.052V222.873H252.484V237.419ZM227.616 235.854H251.076V224.281H227.616V235.854Z" fill="#C8D3FB"/>
<path d="M270.627 250.399H244.194V235.854H270.627V250.399ZM245.758 248.835H269.219V237.261H245.758V248.835Z" fill="#C8D3FB"/>
<path d="M187.264 112.61H160.832V98.0645H187.264V112.61ZM162.239 111.202H185.7V99.6285H162.239V111.202Z" fill="#C8D3FB"/>
<path d="M140.656 272.922H114.224V258.377H140.656V272.922ZM115.631 271.358H139.092V259.785H115.631V271.358Z" fill="#C8D3FB"/>
<path d="M165.68 272.922H139.248V258.377H165.68V272.922ZM140.656 271.358H164.116V259.785H140.656V271.358Z" fill="#C8D3FB"/>
<path d="M153.168 285.903H126.736V271.357H153.168V285.903ZM128.144 284.339H151.604V272.765H128.144V284.339Z" fill="#C8D3FB"/>
<path d="M102.181 189.405H75.7487V174.859H102.181V189.405ZM77.3127 187.997H100.773V176.423H77.3127V187.997Z" fill="#C8D3FB"/>
<path d="M84.1944 202.385H57.606V187.84H84.038V202.385H84.1944ZM59.17 200.978H82.6304V189.404H59.17V200.978Z" fill="#C8D3FB"/>
<path d="M58.0752 129.659H31.4867V115.113H57.9188V129.659H58.0752ZM33.0507 128.251H56.5111V116.677H33.0507V128.251Z" fill="#C8D3FB"/>
<path d="M82.9432 129.659H56.5111V115.113H82.9432V129.659ZM58.0751 128.251H81.5355V116.677H58.0751V128.251Z" fill="#C8D3FB"/>
<path d="M70.431 142.641H43.9989V128.252H70.431V142.641ZM45.5629 141.233H69.0233V129.66H45.5629V141.233Z" fill="#C8D3FB"/>
<path d="M76.5307 19.5508V103.383H75.123V20.802C75.5923 20.3328 76.0615 20.02 76.5307 19.5508Z" fill="#7691D1"/>
<path d="M158.173 6.88147V97.1258H156.765V6.25586C157.235 6.56866 157.704 6.72507 158.173 6.88147Z" fill="#7691D1"/>
<path d="M303.315 219.432C299.717 207.702 295.651 194.72 287.518 185.18C285.798 183.146 283.764 181.113 281.575 179.393C280.793 178.767 280.167 178.298 279.385 177.829C267.342 169.852 253.266 171.26 242.63 181.582C235.436 188.464 224.331 224.28 215.416 228.972C180.695 233.195 159.424 264.007 170.372 294.036C170.685 294.818 170.842 295.444 171.154 296.069C183.51 324.378 224.019 318.435 242.005 318.435C257.958 318.435 274.849 317.653 287.987 307.643C299.092 299.197 305.974 286.059 308.632 272.609C312.23 254.779 308.632 236.48 303.315 219.432Z" fill="#94AAED"/>
<path d="M303.315 219.432C299.718 207.702 295.651 194.72 287.518 185.18C300.187 210.83 309.727 253.371 291.272 291.69C283.452 307.799 266.091 312.648 229.336 312.648C211.819 312.648 177.411 303.42 170.998 296.226C183.354 324.535 223.862 318.591 241.848 318.591C257.802 318.591 274.693 317.809 287.831 307.799C298.935 299.354 305.817 286.216 308.476 272.765C312.23 254.779 308.632 236.48 303.315 219.432Z" fill="url(#paint2_linear_180125_331598)"/>
<path fill-rule="evenodd" clip-rule="evenodd" d="M253.579 248.523C253.579 248.523 261.819 234.316 273.695 227.838C274.819 227.247 275.475 226.939 275.475 226.939C274.873 227.218 274.279 227.519 273.695 227.838C269.036 230.285 256.335 237.596 248.916 248.056C243.275 246.422 223.294 241.344 209.317 246.801C209.317 246.801 232.16 245.653 243.61 250.964C233.271 253.699 217.777 258.426 211.663 263.538C211.663 263.538 233.403 254.78 250.138 254.936L253.579 248.523L253.576 248.524L253.579 248.523Z" fill="black" fill-opacity="0.1"/>
<path d="M143.94 299.51H134.713C133.149 306.548 128.144 311.24 119.854 311.866C115.006 312.335 115.319 318.435 115.319 318.435H142.533C142.533 318.435 145.817 315.619 142.376 309.52C141.438 307.956 143.94 299.51 143.94 299.51Z" fill="#FFD2A7"/>
<path d="M119.854 311.865C115.006 312.334 115.319 318.434 115.319 318.434H142.533C142.533 318.434 145.817 315.619 142.376 309.519C140.5 310.614 135.807 311.709 130.021 307.955C127.674 309.676 123.295 311.552 119.854 311.865Z" fill="#77749C"/>
<path d="M125.485 310.459C125.485 310.459 130.177 307.644 130.646 305.298C131.272 302.795 134.087 305.141 134.4 305.767C134.713 306.392 130.959 310.302 125.485 310.459Z" fill="#77749C"/>
<path d="M173.344 299.51H164.116C162.552 306.548 157.547 311.24 149.258 311.866C144.41 312.335 144.722 318.435 144.722 318.435H171.936C171.936 318.435 175.221 315.619 171.78 309.52C170.842 307.956 173.344 299.51 173.344 299.51Z" fill="#FFD2A7"/>
<path d="M149.258 311.865C144.41 312.334 144.722 318.434 144.722 318.434H171.936C171.936 318.434 175.221 315.619 171.78 309.519C169.903 310.614 165.211 311.709 159.424 307.955C157.078 309.676 152.542 311.552 149.258 311.865Z" fill="#77749C"/>
<path d="M154.889 310.459C154.889 310.459 159.581 307.644 160.05 305.298C160.675 302.795 163.491 305.141 163.804 305.767C164.116 306.392 160.363 310.302 154.889 310.459Z" fill="#77749C"/>
<path d="M222.298 179.706C219.639 186.275 199.932 207.076 196.179 211.143C191.8 215.991 181.321 211.768 183.197 206.138C184.761 201.133 205.719 173.606 208.847 171.104C214.322 166.411 225.739 171.416 222.298 179.706Z" fill="#FFD2A7"/>
<path d="M224.488 223.811C236.531 228.816 227.303 248.366 211.819 253.528C196.335 258.532 178.818 255.404 165.368 256.343C161.458 256.656 151.761 250.243 158.955 242.423C166.15 234.446 208.222 217.086 224.488 223.811Z" fill="#50496A"/>
<path d="M163.334 239.138C149.102 246.176 137.215 291.22 132.054 298.258C132.054 298.258 137.841 304.202 144.879 307.643C144.879 307.643 174.282 259.94 176.628 254.153C181.946 242.266 168.026 236.949 163.334 239.138Z" fill="#50496A"/>
<path d="M207.596 223.811C207.596 223.811 179.6 237.418 174.126 244.769C169.434 250.868 150.196 275.267 145.035 307.642L179.6 250.555L197.586 255.873L221.673 232.413L207.596 223.811Z" fill="#403A57"/>
<path d="M252.953 223.812C257.645 233.196 254.517 246.334 239.033 251.495C223.549 256.5 206.189 255.405 191.643 256.343C187.733 256.656 176.629 250.4 183.823 242.58C191.018 234.76 245.133 208.015 252.953 223.812Z" fill="#50496A"/>
<path d="M203.53 203.165C209.942 195.971 224.331 178.297 225.739 174.7C229.336 166.098 219.17 159.841 213.54 164.377C212.132 165.472 192.582 188.463 186.951 196.44C190.079 203.947 202.122 202.852 203.53 203.165Z" fill="#C8D7FB"/>
<path d="M238.251 226.939C238.251 226.939 251.858 231.318 244.664 239.451C237.469 247.584 200.558 256.342 200.558 256.342C200.558 256.342 245.289 258.375 252.64 241.328C259.053 226.626 249.825 219.9 249.825 219.9L238.251 226.939Z" fill="#50496A"/>
<path d="M200.089 223.342C200.089 223.342 203.217 224.906 208.848 226.314C218.232 228.816 234.498 231.162 255.768 226.627C255.768 226.627 261.868 187.213 255.925 169.227C255.456 167.976 254.986 166.881 254.517 165.786C251.858 160.781 239.815 160.781 237.938 160.625C236.062 160.468 222.142 161.72 222.142 161.72C222.142 161.72 216.198 161.25 213.07 164.379C209.942 167.507 208.378 179.08 205.719 194.877C203.217 210.83 200.089 223.342 200.089 223.342Z" fill="#BCCFFB"/>
<path d="M223.862 154.681C223.862 154.681 224.801 160.155 223.08 160.937C221.36 161.719 219.014 161.876 219.014 161.876C219.014 161.876 228.554 175.639 239.346 160.624C239.346 160.624 236.062 160.624 235.123 159.373C234.185 158.122 233.559 151.553 234.028 147.33L223.862 154.681Z" fill="#FCC5B6"/>
<path d="M235.123 159.529C234.185 158.278 233.559 151.709 234.028 147.486L228.241 151.709C229.336 152.804 231.057 155.619 231.057 155.776C232.621 158.591 233.403 162.657 230.431 164.691C228.242 166.411 225.113 166.255 222.455 165.473C226.208 168.288 232.464 170.321 239.346 160.781C239.346 160.781 236.062 160.781 235.123 159.529Z" fill="black" fill-opacity="0.05"/>
<path d="M255.925 165.003C261.086 169.852 281.575 200.82 283.921 205.512C286.893 211.299 280.011 218.337 274.693 215.521C270.157 213.175 244.195 178.141 242.943 174.388C240.754 167.662 249.512 158.904 255.925 165.003Z" fill="#FFD2A7"/>
<path d="M187.108 239.921C172.875 246.802 164.273 294.505 158.955 301.543C158.955 301.543 166.932 305.61 173.657 305.766C173.657 305.766 198.056 261.973 200.558 256.343C205.719 244.3 191.8 237.575 187.108 239.921Z" fill="#50496A"/>
<path d="M239.972 139.197C239.815 138.728 236.687 136.069 236.374 136.225C236.374 136.225 236.531 147.33 236.062 148.268C235.749 149.05 235.123 150.614 236.218 151.084C237.156 151.553 238.408 150.927 239.033 150.145C242.318 144.984 240.128 140.448 239.972 139.197Z" fill="#3C4363"/>
<path d="M219.014 132.629V149.364C219.014 153.9 223.08 157.497 227.929 157.497C232.934 157.497 236.844 153.9 236.844 149.364V149.051C236.844 149.051 241.379 149.99 241.379 144.985C241.379 139.98 238.564 140.605 238.564 140.605V132.629H219.014Z" fill="#FCC5B6"/>
<path d="M238.564 140.606V130.439H231.682C231.682 130.439 231.682 134.037 231.682 134.193V151.554C231.682 154.525 228.711 157.028 225.739 157.028C224.801 157.028 223.862 156.715 223.237 156.246C224.644 157.028 226.365 157.654 228.085 157.654C233.09 157.654 237 154.056 237 149.521V149.208C237 149.208 241.536 150.146 241.536 145.141C241.379 139.824 238.564 140.606 238.564 140.606Z" fill="black" fill-opacity="0.05"/>
<path d="M238.877 124.183C236.374 119.021 228.241 119.334 225.739 120.742C224.644 119.96 221.047 118.708 219.014 121.367C214.947 121.524 213.54 124.339 213.383 125.59C212.758 128.718 214.322 132.472 217.606 133.254C219.796 133.723 222.298 134.036 224.019 132.628C225.739 134.036 230.275 133.41 232.308 132.628C233.246 136.226 234.028 143.42 236.062 143.42C237 143.42 239.033 141.856 238.72 140.605C243.412 139.823 243.569 125.59 238.877 124.183Z" fill="#3C4363"/>
<path d="M209.004 226.314C218.388 228.816 234.654 231.162 255.925 226.626C255.925 226.626 262.024 187.213 256.081 169.227L244.038 169.539C244.038 169.539 245.446 180.644 250.607 194.564C255.299 207.545 256.707 232.57 209.004 226.314Z" fill="black" fill-opacity="0.05"/>
<path d="M214.634 231.006H157.547V233.978H214.634V231.006Z" fill="#C8D3FB"/>
<path d="M214.634 234.134H240.91V232.413C240.91 231.631 240.284 231.162 239.659 231.162H214.634V234.134Z" fill="#C8D3FB"/>
<path d="M159.111 231.007H215.886L208.378 195.972C208.222 194.878 207.283 194.252 206.345 194.252H155.201C153.168 194.252 151.604 196.285 152.073 198.318L159.111 231.007Z" fill="#B7C1E6"/>
<path d="M157.704 231.007H214.478L206.971 195.972C206.814 194.878 205.876 194.252 204.937 194.252H152.855C151.448 194.252 150.353 195.66 150.666 197.224L157.704 231.007Z" fill="url(#paint3_linear_180125_331598)"/>
<path opacity="0.34" d="M180.069 194.252L164.116 231.007H171.311L188.046 194.252H180.069Z" fill="#DAE7FF"/>
<path opacity="0.34" d="M191.956 194.252L176.003 231.007H178.818L195.397 194.252H191.956Z" fill="#DAE7FF"/>
<path d="M279.072 216.459C273.129 219.9 245.602 224.905 240.91 226C235.28 227.408 233.403 220.369 238.877 218.336C244.195 216.459 274.067 203.478 277.508 203.165C283.608 202.696 286.423 212.236 279.072 216.459Z" fill="#FFD2A7"/>
<path d="M222.767 230.536C224.175 228.346 225.583 226.157 224.331 227.721C222.767 229.754 219.796 228.816 221.36 226.939C223.237 224.436 225.113 221.465 227.772 219.588C230.587 217.555 238.564 218.962 241.692 217.868C242.943 217.398 244.507 223.498 243.725 224.28C241.223 226.939 236.844 226.782 236.374 227.095C235.436 228.503 235.28 229.285 234.498 230.693C233.559 232.413 230.275 232.569 231.213 230.849C231.682 229.754 231.213 229.598 230.431 231.162C229.336 233.195 225.895 233.039 226.99 231.005C227.459 230.223 227.303 229.754 226.677 230.849C225.27 233.039 221.516 232.726 222.767 230.536Z" fill="#FFD2A7"/>
<path d="M239.346 160.781C239.346 160.781 235.905 167.037 228.554 167.819L234.028 173.293C234.028 173.293 240.597 167.819 241.536 160.781H239.346Z" fill="white"/>
<path d="M219.014 162.033C219.014 162.033 221.516 166.882 228.867 167.82L223.393 173.294C223.393 173.294 217.293 169.541 216.198 162.502L219.014 162.033Z" fill="white"/>
<path d="M229.023 167.82L234.028 173.138L230.9 178.769H225.895L223.549 173.138L229.023 167.82Z" fill="#6A8AD4"/>
<path d="M230.9 178.768L234.028 200.038L227.146 207.389L221.516 200.351L225.895 178.768H230.9Z" fill="#6A8AD4"/>
<path d="M255.925 165.003C261.086 169.852 282.67 198.161 287.362 211.455C276.414 206.919 271.878 209.734 266.56 207.076C262.024 204.73 244.195 178.297 242.943 174.544C240.754 167.662 249.512 158.904 255.925 165.003Z" fill="#C8D7FB"/>
<path d="M264.371 205.199L263.589 208.171L288.926 215.209L289.864 207.389L264.371 205.199Z" fill="white"/>
<path d="M174.126 77.4204L186.013 153.588C186.325 155.153 185.231 156.56 183.667 156.717L77.7819 173.452C76.2178 173.764 74.8102 172.67 74.6538 171.106L62.7672 94.9375C62.4544 93.0606 63.7056 91.1838 65.7389 90.871L170.216 74.4487C172.093 74.2923 173.97 75.5435 174.126 77.4204Z" fill="#C8D3FB"/>
<path d="M104.527 139.825L103.588 133.726L91.3889 135.602L90.6069 130.598L100.617 109.483L105.465 108.701L108.437 127.782L112.191 127.157L112.973 132.162L109.219 132.944L110.157 139.043L104.527 139.825ZM102.806 128.877L101.242 118.711L95.9246 129.972L102.806 128.877Z" fill="#F5222D"/>
<path d="M121.575 106.354C124.546 105.885 126.892 106.511 128.926 108.388C131.272 110.577 132.836 114.487 133.774 120.118C134.713 125.748 134.243 129.971 132.679 132.786C131.428 135.132 129.238 136.54 126.423 136.853C123.452 137.322 120.949 136.54 118.916 134.663C116.726 132.63 115.319 128.876 114.38 123.089C113.442 117.459 113.911 113.236 115.475 110.421C116.57 108.231 118.603 106.824 121.575 106.354ZM122.357 111.203C121.731 111.359 121.105 111.672 120.636 112.141C120.167 112.61 119.854 113.549 119.698 114.644C119.541 116.208 119.698 118.71 120.323 122.307C120.949 125.748 121.418 128.251 122.044 129.502C122.67 130.753 123.139 131.535 123.764 131.848C124.39 132.161 125.016 132.317 125.641 132.161C126.267 132.004 126.892 131.692 127.362 131.222C127.831 130.753 128.144 129.815 128.3 128.72C128.456 127.156 128.3 124.654 127.674 121.213C127.049 117.772 126.58 115.269 125.954 114.018C125.328 112.767 124.859 111.985 124.234 111.516C123.608 111.203 122.982 111.046 122.357 111.203Z" fill="#F5222D"/>
<path d="M151.135 132.63L150.196 126.53L137.997 128.407L137.215 123.402L147.225 102.288L152.073 101.506L155.045 120.587L158.799 119.961L159.581 124.966L155.827 125.592L156.765 131.692L151.135 132.63ZM149.414 121.525L147.85 111.359L142.533 122.62L149.414 121.525Z" fill="#F5222D"/>
<path d="M82.6304 163.598L81.3792 155.934L83.8816 155.621C84.82 155.465 85.4456 155.465 85.7584 155.465C86.2276 155.465 86.5404 155.778 87.0097 156.09C87.3225 156.403 87.6353 156.872 87.6353 157.498C87.6353 157.967 87.6353 158.436 87.6353 158.749C87.4789 159.062 87.3225 159.375 87.1661 159.531C87.0097 159.688 86.6968 159.844 86.384 160.001C86.0712 160.157 85.4456 160.313 84.82 160.313L83.8816 160.47L84.3508 163.285L82.6304 163.598ZM83.256 157.029L83.5688 159.219L84.3508 159.062C84.9764 158.906 85.2892 158.906 85.602 158.749C85.7584 158.593 85.9148 158.436 86.0712 158.28C86.2276 158.124 86.2276 157.811 86.2276 157.654C86.2276 157.342 86.0712 157.185 85.9148 157.029C85.7584 156.872 85.4456 156.716 85.2892 156.716C85.1328 156.716 84.6636 156.716 84.1944 156.872L83.256 157.029Z" fill="#3153A1"/>
<path d="M95.9246 161.564L94.2041 161.876L93.2657 160.312L90.2941 160.781L89.9813 162.658L88.4172 162.971L90.1377 154.838L91.7017 154.525L95.9246 161.564ZM92.6401 159.061L91.0761 156.402L90.4505 159.374L92.6401 159.061Z" fill="#3153A1"/>
<path d="M99.8346 158.123L99.6782 156.872L102.963 156.402L103.432 159.374C103.119 159.687 102.806 160.156 102.181 160.469C101.555 160.782 100.929 161.095 100.304 161.095C99.5218 161.251 98.7398 161.095 98.1142 160.938C97.4886 160.625 97.0194 160.313 96.5502 159.687C96.081 159.061 95.9246 158.436 95.7682 157.654C95.6118 156.872 95.7682 156.09 95.9246 155.464C96.2374 154.838 96.5502 154.213 97.1758 153.744C97.645 153.431 98.2706 153.118 98.8962 153.118C99.8346 152.962 100.617 153.118 101.242 153.431C101.868 153.744 102.337 154.213 102.493 154.838L101.086 155.308C100.929 154.995 100.617 154.682 100.304 154.526C99.991 154.369 99.5218 154.369 99.209 154.369C98.5834 154.526 97.9578 154.838 97.645 155.308C97.3322 155.777 97.1758 156.402 97.3322 157.341C97.4886 158.279 97.8014 158.905 98.2706 159.218C98.7398 159.531 99.3654 159.687 99.991 159.687C100.304 159.687 100.617 159.531 100.929 159.374C101.242 159.218 101.555 159.061 101.711 158.748L101.555 157.81L99.8346 158.123Z" fill="#3153A1"/>
<path d="M104.996 160.157L103.745 152.493L109.375 151.555L109.532 152.806L105.465 153.432L105.778 155.152L109.532 154.526L109.688 155.778L105.934 156.403L106.247 158.436L110.626 157.967L110.783 159.218L104.996 160.157Z" fill="#3153A1"/>
<path d="M115.006 158.592L113.755 150.928L115.319 150.772L119.229 155.308L118.447 150.303L119.854 150.146L121.105 157.81L119.541 158.123L115.631 153.587L116.413 158.592H115.006Z" fill="#3153A1"/>
<path d="M121.887 153.744C121.731 152.962 121.731 152.337 121.887 151.711C122.044 151.242 122.2 150.929 122.357 150.616C122.669 150.304 122.826 149.991 123.295 149.834C123.764 149.522 124.233 149.365 124.859 149.209C125.954 149.052 126.892 149.209 127.674 149.834C128.456 150.46 128.926 151.398 129.082 152.65C129.238 153.901 129.082 154.839 128.456 155.621C127.831 156.403 127.049 156.872 125.954 157.029C124.859 157.185 123.921 157.029 123.139 156.403C122.513 155.778 122.044 154.839 121.887 153.744ZM123.451 153.432C123.608 154.37 123.921 154.996 124.39 155.308C124.859 155.621 125.328 155.778 125.954 155.778C126.58 155.621 127.049 155.308 127.362 154.839C127.674 154.37 127.831 153.588 127.674 152.806C127.518 151.868 127.205 151.242 126.736 150.929C126.267 150.616 125.798 150.46 125.172 150.46C124.546 150.616 124.077 150.929 123.764 151.398C123.295 151.868 123.295 152.493 123.451 153.432Z" fill="#3153A1"/>
<path d="M132.679 155.777L131.741 149.521L129.551 149.834L129.238 148.583L135.338 147.645L135.495 148.896L133.305 149.209L134.243 155.465L132.679 155.777Z" fill="#3153A1"/>
<path d="M140.499 154.682L139.248 147.018L144.409 146.236L144.566 147.488L140.812 148.113L141.125 149.99L144.253 149.521L144.409 150.772L141.281 151.241L141.751 154.526L140.499 154.682Z" fill="#3153A1"/>
<path d="M146.13 149.834C145.973 149.052 145.973 148.427 146.13 147.801C146.286 147.332 146.443 147.019 146.599 146.706C146.912 146.393 147.068 146.081 147.538 145.924C148.007 145.611 148.476 145.455 149.102 145.299C150.196 145.142 151.135 145.299 151.917 145.924C152.699 146.55 153.168 147.488 153.324 148.739C153.481 149.991 153.324 150.929 152.699 151.711C152.073 152.493 151.291 152.962 150.196 153.119C149.102 153.275 148.163 153.119 147.381 152.493C146.755 152.024 146.286 151.086 146.13 149.834ZM147.694 149.521C147.85 150.46 148.163 151.086 148.632 151.398C149.102 151.711 149.571 151.868 150.196 151.868C150.822 151.711 151.291 151.398 151.604 150.929C151.917 150.46 152.073 149.678 151.917 148.896C151.76 147.957 151.448 147.332 150.978 147.019C150.509 146.706 150.04 146.55 149.414 146.55C148.789 146.706 148.32 147.019 148.007 147.488C147.538 147.957 147.537 148.739 147.694 149.521Z" fill="#3153A1"/>
<path d="M154.106 144.673L155.67 144.36L156.296 148.427C156.452 149.052 156.452 149.522 156.609 149.678C156.765 149.991 156.922 150.147 157.234 150.304C157.547 150.46 157.86 150.46 158.329 150.46C158.799 150.46 159.111 150.304 159.268 149.991C159.424 149.834 159.581 149.522 159.581 149.209C159.581 148.896 159.581 148.583 159.424 147.958L158.799 143.735L160.363 143.422L160.988 147.488C161.145 148.427 161.145 149.052 161.145 149.522C161.145 149.991 160.988 150.304 160.832 150.616C160.675 150.929 160.363 151.242 160.05 151.398C159.737 151.555 159.268 151.711 158.642 151.868C157.86 152.024 157.391 152.024 156.922 151.868C156.452 151.711 156.14 151.555 155.983 151.398C155.67 151.242 155.514 150.929 155.358 150.616C155.201 150.147 155.045 149.522 154.888 148.74L154.106 144.673Z" fill="#3153A1"/>
<path d="M163.021 151.085L161.77 143.421L163.334 143.108L167.244 147.644L166.462 142.483L167.87 142.326L169.121 149.99L167.557 150.303L163.647 145.767L164.429 150.772L163.021 151.085Z" fill="#3153A1"/>
<path d="M169.434 142.327L172.249 141.858C172.875 141.701 173.344 141.701 173.657 141.701C174.126 141.701 174.595 142.014 174.908 142.17C175.221 142.483 175.534 142.796 175.846 143.265C176.159 143.734 176.316 144.36 176.316 144.986C176.472 145.611 176.472 146.237 176.316 146.706C176.159 147.332 176.003 147.801 175.69 148.114C175.534 148.426 175.064 148.739 174.752 148.896C174.439 149.052 173.97 149.209 173.344 149.209L170.372 149.678L169.434 142.327ZM171.154 143.265L171.936 148.27L173.031 148.114C173.5 148.114 173.813 147.957 173.97 147.957C174.282 147.801 174.439 147.644 174.595 147.488C174.752 147.332 174.908 147.019 174.908 146.706C174.908 146.393 174.908 145.924 174.908 145.298C174.752 144.673 174.752 144.204 174.595 143.891C174.439 143.578 174.282 143.422 173.97 143.265C173.813 143.109 173.5 143.109 173.188 142.952C173.031 142.952 172.562 142.952 171.936 143.109L171.154 143.265Z" fill="#3153A1"/>
<path d="M175.534 86.0219L64.0185 103.383L62.6108 94.9369C62.298 93.0601 63.5493 91.1832 65.5825 90.8704L170.06 74.4481C171.936 74.1353 173.813 75.3865 174.126 77.4198L175.534 86.0219Z" fill="url(#paint4_linear_180125_331598)"/>
<path d="M82.3176 94.4673C82.1612 93.5289 82.7868 92.4341 83.8816 92.2777C84.8201 92.1213 85.9149 92.7469 86.0713 93.8417C86.2277 94.7801 85.6021 95.875 84.5072 96.0314C83.4124 96.1878 82.474 95.4057 82.3176 94.4673Z" fill="#C8D3FB"/>
<path d="M75.2795 95.563C75.1231 94.6246 75.7487 93.5298 76.8435 93.3734C77.782 93.217 78.8768 93.8426 79.0332 94.9374C79.1896 95.8758 78.564 96.9707 77.4692 97.1271C76.3743 97.2835 75.4359 96.6578 75.2795 95.563Z" fill="url(#paint5_linear_180125_331598)"/>
<path d="M68.0849 96.6568C67.9285 95.7184 68.5541 94.6235 69.649 94.4671C70.5874 94.3107 71.6822 94.9364 71.8386 96.0312C71.995 96.9696 71.3694 98.0644 70.2746 98.2208C69.1798 98.3772 68.2413 97.7516 68.0849 96.6568Z" fill="white"/>
<path d="M165.68 80.0777L166.306 78.9829L167.87 80.0777L168.965 78.5137L170.06 79.2957L168.965 80.8597L170.372 81.9545L169.747 83.0493L168.183 81.9545L167.088 83.3622L165.993 82.5801L167.088 81.1725L165.68 80.0777Z" fill="white"/>
<path d="M104.214 184.086C104.214 183.774 103.901 183.617 103.588 183.617C97.4887 183.774 89.6686 183.774 84.5073 187.527C79.6588 191.125 78.8768 197.381 79.0332 202.855C79.0332 203.48 79.6588 203.637 80.128 203.324C92.953 208.172 105.934 197.537 104.214 184.086Z" fill="#97AFE8"/>
<path d="M74.3411 209.267C74.3411 205.044 73.4027 200.665 70.1183 197.693C66.3646 194.252 60.8905 192.375 56.5112 190.029C56.042 189.716 55.26 190.186 55.5728 190.811C57.606 195.973 57.2932 202.229 60.8905 206.608C63.8622 210.362 69.0234 211.613 73.5591 210.205C73.7155 210.205 73.8719 210.049 74.0283 209.736C74.1847 209.736 74.3411 209.58 74.3411 209.267Z" fill="#97AFE8"/>
<path d="M114.067 223.187C111.096 220.841 107.186 221.154 103.432 221.31C99.3656 221.467 95.2991 222.092 91.5455 223.813C85.1329 226.941 80.5973 233.666 82.9433 240.86C82.9433 241.173 82.9433 241.486 83.4125 241.642C89.5122 243.519 92.4839 239.453 96.2375 235.386C100.93 230.225 107.029 226.471 113.755 224.282C114.224 224.125 114.537 223.5 114.067 223.187Z" fill="#97AFE8"/>
<path d="M128.769 238.515C128.613 238.515 128.613 238.515 128.457 238.358C125.798 237.264 123.452 235.074 121.106 233.041C118.447 230.851 115.788 228.661 112.816 228.036C112.816 228.036 112.816 228.036 112.66 228.036C111.252 227.723 109.688 227.879 108.124 228.349C101.555 230.538 97.4888 237.42 96.8632 243.989C96.8632 244.145 96.8632 244.302 97.0196 244.302C97.0196 244.302 97.0196 244.302 97.0196 244.458C96.8632 244.771 97.176 245.24 97.6452 245.396C103.276 246.022 108.75 245.396 114.38 244.302C119.229 243.207 124.859 242.425 129.082 239.61C129.395 239.297 129.395 238.671 128.769 238.515Z" fill="#97AFE8"/>
<path d="M119.072 251.026C111.878 249.618 97.0195 245.865 96.0811 257.439C96.0811 257.751 96.2375 258.064 96.5503 258.064C103.119 265.728 115.788 259.628 119.541 252.121C119.541 251.652 119.541 251.182 119.072 251.026Z" fill="#97AFE8"/>
<path d="M73.4027 228.035C71.5259 223.812 66.9902 219.433 62.7673 217.869C62.2981 217.712 61.9853 218.025 61.9853 218.494C61.9853 226.784 59.9521 239.922 69.0234 244.457H69.1798C69.4927 244.77 69.9619 244.926 70.2747 244.457C73.0899 239.609 76.0616 233.665 73.4027 228.035Z" fill="#97AFE8"/>
<path d="M49.9423 233.354C45.563 229.757 38.5249 228.975 33.3636 231.634C26.1691 235.231 27.5767 243.833 26.4819 250.402C26.3255 251.028 27.1075 251.497 27.5767 251.028C34.6148 244.772 44.4682 242.426 49.7859 234.293C50.0987 234.136 50.2551 233.667 49.9423 233.354Z" fill="#97AFE8"/>
<path d="M49.9423 239.923C49.7859 239.61 49.4731 239.61 49.1603 239.61C49.0039 239.453 48.6911 239.297 48.3783 239.453C44.7811 241.33 40.7146 244.146 39.9326 248.368C39.1506 253.53 41.9658 258.378 42.2786 263.383C42.2786 264.009 43.3734 264.321 43.5298 263.539C44.4683 258.691 49.4731 256.501 51.1936 252.122C52.914 248.681 51.9756 243.051 49.9423 239.923Z" fill="#97AFE8"/>
<path d="M71.6823 269.482C67.4594 263.695 63.2365 258.69 56.042 256.814C55.5728 256.657 54.9472 257.283 55.26 257.752C56.824 260.254 56.824 262.913 58.2316 265.416C59.0136 266.823 60.4213 267.918 61.6725 268.857C64.8005 270.733 68.7106 272.61 72.1515 270.577C72.9335 270.264 72.4643 269.169 71.6823 269.482Z" fill="#97AFE8"/>
<path d="M81.0664 262.601V262.444C78.2512 257.908 78.0948 252.122 74.1847 248.212C73.8719 247.899 73.4027 248.055 73.0899 248.368C71.2131 251.496 70.2746 255.093 71.6823 258.69C73.4027 262.444 76.8436 263.539 80.5972 263.852C81.3792 263.695 81.5356 262.913 81.0664 262.601Z" fill="#97AFE8"/>
<path d="M89.043 211.613C88.261 210.988 87.1662 211.613 86.3842 211.926C84.8201 212.552 83.4125 213.334 82.0049 214.272C79.5024 216.149 77.782 218.652 77.6256 221.78C77.6256 221.78 77.6256 221.936 77.6256 222.092C77.6256 222.249 77.6256 222.249 77.6256 222.405C77.6256 223.187 78.7204 223.187 78.8768 222.718C82.0049 222.092 84.5073 220.059 86.5406 217.557C87.6354 216.305 90.9198 213.177 89.043 211.613Z" fill="#97AFE8"/>
<path d="M90.4506 263.07C90.2942 262.914 90.2942 262.914 90.1378 262.757C90.9198 257.127 91.2326 250.714 85.7585 247.43C85.4457 247.273 84.9765 247.43 84.8201 247.899C83.2561 253.842 84.9765 259.786 89.5122 264.008C90.1378 264.634 91.0762 263.696 90.4506 263.07Z" fill="#97AFE8"/>
<path d="M128.3 237.733C125.954 236.638 123.608 234.761 121.262 233.041C118.603 231.007 115.944 228.818 112.973 228.036C112.973 228.036 112.973 228.036 112.816 228.036C111.409 227.723 109.845 227.879 108.281 228.349C101.712 230.538 97.6451 237.42 97.0195 243.989C97.0195 244.145 97.0195 244.302 97.1759 244.302C97.1759 244.302 97.1759 244.302 97.1759 244.458C97.3323 244.458 97.6451 244.302 97.8015 244.145C97.9579 244.145 98.1144 244.145 98.1144 243.989C100.304 241.643 102.494 239.61 104.84 237.42C105.934 236.325 107.029 235.074 108.124 234.135C110.783 232.259 112.973 232.571 115.788 233.353C119.072 234.292 122.044 236.012 125.016 237.576C126.11 238.202 127.205 239.297 128.456 238.671C128.613 238.515 128.769 238.358 128.769 238.046C128.613 238.046 128.456 237.889 128.3 237.733Z" fill="#97AFE8"/>
<path d="M70.5875 259.785C69.9619 257.283 69.3363 254.624 68.3978 252.122C69.4927 248.055 69.9619 243.989 69.8055 239.922C69.9619 239.922 70.2747 239.766 70.2747 239.453C71.0567 237.107 71.3695 234.604 71.2131 232.102C71.2131 231.32 69.8055 231.32 69.9619 232.102C70.1183 233.822 69.9619 235.543 69.4927 237.263C69.1799 235.386 68.867 233.353 68.2414 231.476C67.9286 230.694 66.6774 231.007 66.9902 231.789C68.867 237.733 69.0234 243.832 67.6158 249.932C66.3646 246.804 64.8006 243.832 62.7673 241.173C57.9189 234.917 49.1603 231.164 42.2786 234.135C42.2786 233.822 42.1222 233.666 41.8094 233.666C39.1505 233.04 36.3353 233.353 33.9892 234.917C33.2072 235.386 33.9892 236.481 34.6148 236.012C36.4917 234.917 38.6813 234.448 40.871 234.917C39.3069 235.856 37.7429 237.107 36.4917 238.827C36.0225 239.453 37.1173 240.235 37.5865 239.453C40.871 234.761 46.9707 233.353 52.2884 235.074C53.8524 235.543 55.26 236.325 56.5112 237.263C50.8807 237.107 46.8143 240.861 42.9042 244.614C42.2786 245.24 43.217 246.178 43.8426 245.553C44.6246 244.771 45.4066 244.145 46.1886 243.363C46.0322 244.614 45.8758 246.022 46.0322 247.273C46.1886 248.055 47.4399 248.055 47.2835 247.273C47.1271 245.553 47.2835 243.832 47.5963 242.268C47.5963 242.112 47.5963 242.112 47.5963 241.955C50.2551 239.766 53.2268 238.358 56.9804 238.515C57.2932 238.515 57.4496 238.358 57.606 238.045C60.5777 240.391 62.9237 243.519 64.6442 246.96C67.9286 253.686 69.9619 261.193 71.0567 268.857C68.3978 268.231 66.0518 266.823 64.175 264.634C63.5494 264.008 62.6109 264.947 63.2365 265.572C64.175 266.667 65.2698 267.449 66.3646 268.231C65.5826 268.231 64.8006 268.231 64.175 268.075C63.3929 267.918 62.9237 269.169 63.8622 269.326C65.1134 269.482 66.3646 269.639 67.6158 269.482C67.9286 269.482 68.085 269.326 68.085 269.169C69.0234 269.639 70.1183 269.951 71.0567 270.264H71.2131C71.6823 274.018 71.9951 277.615 72.1515 281.212C72.1515 281.995 73.5591 281.995 73.4027 281.212C73.2463 274.018 72.3079 266.823 70.5875 259.785Z" fill="#5D7BC2"/>
<path d="M92.171 232.884C90.9198 233.666 89.825 234.604 88.8866 235.543C89.5122 233.197 90.4506 231.007 91.8582 229.13C92.3274 228.504 91.2326 227.722 90.7634 228.505C89.043 230.851 87.9481 233.666 87.3225 236.481C87.3225 236.637 87.3225 236.794 87.4789 236.95C84.5073 239.765 82.1612 243.05 80.128 246.647C79.8152 242.112 79.5024 237.576 79.1896 233.197C79.0332 230.069 78.7204 226.471 78.7204 222.718C80.2844 220.684 81.8484 218.651 84.1945 217.556C84.9765 217.244 84.3509 216.149 83.5689 216.461C81.5356 217.4 80.128 218.964 78.7204 220.684C78.7204 218.964 78.7204 217.244 78.8768 215.523C79.0332 215.367 79.0332 215.054 78.8768 214.897C79.5024 205.67 82.3176 197.068 91.0762 193.001C91.8582 192.688 91.2326 191.593 90.4506 191.906C88.2609 193.001 86.3841 194.252 84.8201 195.816C84.8201 194.565 84.9765 193.314 85.4457 192.063C85.7585 191.281 84.5073 190.968 84.1945 191.75C83.5689 193.47 83.4125 195.191 83.7253 197.068C79.9716 201.603 78.4076 207.547 77.9384 213.646C76.0615 211.457 74.1847 209.267 72.3079 207.077C72.4643 206.921 72.6207 206.765 72.6207 206.608C72.4643 204.731 71.9951 203.011 70.9002 201.603C70.431 200.978 69.3362 201.603 69.8054 202.229C70.5874 203.324 71.0566 204.575 71.213 205.826C70.5874 205.044 69.8054 204.262 69.1798 203.324C68.5542 202.698 67.7722 203.636 68.2414 204.262C71.5259 208.016 74.6539 211.769 77.9384 215.523C77.782 217.869 77.782 220.059 77.782 222.405C77.782 222.405 77.782 222.405 77.6256 222.561C77.4692 222.874 77.4692 223.187 77.782 223.343C77.782 225.533 77.9384 227.722 77.9384 229.756C78.4076 240.078 79.1896 250.557 80.2844 260.88C77.9384 259.629 76.6871 257.126 75.4359 254.78C75.1231 253.998 73.8719 254.624 74.3411 255.406C75.7487 258.065 77.1563 260.88 80.128 262.131C80.2844 262.131 80.4408 262.131 80.4408 262.131C81.2228 268.7 82.0048 275.425 83.0997 281.994C83.2561 282.776 84.5073 282.463 84.3509 281.681C82.6304 270.89 81.3792 259.941 80.4408 248.993C80.5972 248.993 80.5972 248.837 80.7536 248.68C83.7253 242.894 87.9481 238.045 93.1094 234.291C93.4222 233.509 92.7966 232.415 92.171 232.884Z" fill="#5D7BC2"/>
<path d="M113.755 233.978C110.939 233.978 108.437 234.604 106.247 235.698C107.186 234.604 108.281 233.665 109.375 232.883C110.001 232.414 109.375 231.319 108.75 231.788C106.56 233.509 104.683 235.386 103.119 237.575C103.119 237.732 102.963 237.732 102.963 237.888C98.5835 241.329 95.2991 246.647 93.2658 251.651C92.0146 254.779 91.0762 257.908 90.4506 261.036C89.6686 259.784 89.3558 258.377 88.8866 257.126C88.5738 256.031 88.261 255.092 87.1661 254.467C86.3841 253.997 85.7585 255.092 86.5405 255.561C87.6353 256.187 87.7918 258.064 88.261 259.159C88.5738 260.254 89.043 261.192 89.6686 262.13C89.825 262.287 89.9814 262.443 90.1378 262.443C88.5738 270.263 88.1046 278.553 87.3225 286.373C87.1661 287.155 88.5738 287.155 88.5738 286.373C89.3558 279.022 89.6686 271.515 91.0762 264.164C91.2326 264.164 91.2326 264.007 91.389 264.007C93.8915 261.348 96.3939 258.533 99.522 256.656C100.46 257.595 101.555 258.22 102.806 258.533C103.588 258.846 103.901 257.595 103.119 257.282C102.181 256.969 101.399 256.5 100.773 255.874C101.712 255.405 102.494 255.092 103.432 254.779C104.214 254.467 103.901 253.215 103.119 253.528C101.868 253.841 100.617 254.467 99.522 255.092C99.3656 255.092 99.2091 255.249 99.0527 255.405C96.2375 257.126 93.8915 259.472 91.5454 261.818C92.0146 259.784 92.4838 257.751 93.1094 255.718C94.3607 251.651 96.3939 247.116 99.2092 243.362C100.617 242.893 102.181 242.58 103.745 242.267C104.527 242.111 104.214 240.86 103.432 241.016C102.494 241.172 101.555 241.329 100.617 241.642C104.058 237.732 108.437 234.916 113.911 235.073C114.537 235.229 114.537 233.978 113.755 233.978Z" fill="#5D7BC2"/>
<path d="M102.806 274.645L101.868 281.057L99.9911 292.631L95.9247 317.812H66.2081L62.1417 292.631L60.2648 281.057L59.3264 274.645H102.806Z" fill="#C8D3FB"/>
<path opacity="0.3" d="M71.6822 281.057L70.5874 274.645H59.3264L60.2648 281.057L62.1417 292.631L66.2081 317.812H77.6255L73.5591 292.631L71.6822 281.057Z" fill="#77749C"/>
<path opacity="0.64" d="M92.4838 315.779C92.3274 315.779 92.3274 315.779 92.4838 315.779C91.5454 315.779 91.0762 315.31 91.0762 314.841L96.2375 276.522C96.2375 276.053 97.0195 275.74 97.8015 275.74C98.5835 275.74 99.2091 276.209 99.0527 276.679L93.8914 314.997C93.735 315.467 93.1094 315.779 92.4838 315.779Z" fill="white"/>
<path d="M145.504 227.723L147.538 229.443V231.32L145.192 230.851L145.504 227.723Z" fill="#FF9326"/>
<path d="M115.788 318.592L110.47 317.497L124.703 246.646L130.177 247.741L115.788 318.592Z" fill="url(#paint6_linear_180125_331598)"/>
<path d="M144.097 318.592L149.414 317.497L135.182 246.646L129.708 247.741L144.097 318.592Z" fill="url(#paint7_linear_180125_331598)"/>
<path d="M25.8563 318.592L20.5386 317.497L34.7712 246.646L40.2453 247.741L25.8563 318.592Z" fill="url(#paint8_linear_180125_331598)"/>
<path d="M54.1652 318.592L59.6393 317.497L45.2502 246.646L39.7761 247.741L54.1652 318.592Z" fill="url(#paint9_linear_180125_331598)"/>
<path d="M145.504 227.723H22.5718V248.055H145.504V227.723Z" fill="#FF9326"/>
<path d="M147.538 229.443H141.438H129.551H117.508H105.622H93.7351H81.8485H69.8055H57.9189H46.0322H34.1456H24.7615V248.212H25.3871H37.2737H49.1603H61.0469H73.0899H84.9765H97.0195H108.75H120.793H132.679H144.722H147.538V241.799V229.443Z" fill="white"/>
<path d="M105.622 229.443L96.8632 248.212H84.9766L93.7351 229.443H105.622Z" fill="url(#paint10_linear_180125_331598)"/>
<path d="M81.8484 229.443L73.0899 248.212H61.0469L69.8054 229.443H81.8484Z" fill="url(#paint11_linear_180125_331598)"/>
<path d="M57.9188 229.443L49.1603 248.212H37.2737L45.8758 229.443H57.9188Z" fill="url(#paint12_linear_180125_331598)"/>
<path d="M34.1456 229.443L25.3871 248.212H24.7615V229.443H34.1456Z" fill="url(#paint13_linear_180125_331598)"/>
<path d="M147.538 229.443H141.438L132.679 248.212H144.722L147.538 241.799V229.443Z" fill="url(#paint14_linear_180125_331598)"/>
<path d="M129.551 229.443L120.793 248.212H108.75L117.508 229.443H129.551Z" fill="url(#paint15_linear_180125_331598)"/>
<path d="M286.892 314.84H244.664L245.289 312.337L248.574 300.294L251.545 289.346L254.361 278.711L257.489 266.98L259.678 258.691L261.242 253.061H270.314L271.721 258.691L273.911 266.98L277.195 278.711L280.011 289.346L282.982 300.294L286.11 312.337L286.892 314.84Z" fill="url(#paint16_linear_180125_331598)"/>
<path d="M270.157 253.061H261.242V253.217H270.157V253.061Z" fill="black"/>
<path d="M292.992 312.338H238.095V317.812H292.992V312.338Z" fill="#77749C"/>
<path d="M273.911 266.981H257.489L259.678 258.691H271.721L273.911 266.981Z" fill="white"/>
<path d="M280.011 289.346H251.545L254.361 278.711H277.195L280.011 289.346Z" fill="white"/>
<path d="M286.11 312.338H245.289L248.574 300.295H282.982L286.11 312.338Z" fill="white"/>
<path d="M270.157 253.06C270.157 253.685 268.124 254.154 265.778 254.154C263.276 254.154 261.399 253.685 261.399 253.06C261.399 252.434 263.432 251.965 265.778 251.965C268.124 252.121 270.157 252.59 270.157 253.06Z" fill="#FF9326"/>
<defs>
<linearGradient id="paint0_linear_180125_331598" x1="-5.26351" y1="209.395" x2="368.415" y2="91.2742" gradientUnits="userSpaceOnUse">
<stop stop-color="white"/>
<stop offset="1" stop-color="#D3DBEB"/>
</linearGradient>
<linearGradient id="paint1_linear_180125_331598" x1="-18.9172" y1="167.785" x2="354.77" y2="49.6616" gradientUnits="userSpaceOnUse">
<stop stop-color="white"/>
<stop offset="1" stop-color="#D3DBEB"/>
</linearGradient>
<linearGradient id="paint2_linear_180125_331598" x1="240.511" y1="185.18" x2="240.511" y2="319.111" gradientUnits="userSpaceOnUse">
<stop stop-color="#CDCCD9"/>
<stop offset="1" stop-color="#837FAA" stop-opacity="0"/>
</linearGradient>
<linearGradient id="paint3_linear_180125_331598" x1="214.581" y1="212.697" x2="150.477" y2="212.697" gradientUnits="userSpaceOnUse">
<stop stop-color="white"/>
<stop offset="1" stop-color="#D3DBEB"/>
</linearGradient>
<linearGradient id="paint4_linear_180125_331598" x1="63.136" y1="97.4675" x2="174.593" y2="79.9913" gradientUnits="userSpaceOnUse">
<stop stop-color="#99B3E8"/>
<stop offset="1" stop-color="#5D7FC2"/>
</linearGradient>
<linearGradient id="paint5_linear_180125_331598" x1="75.2244" y1="95.572" x2="78.9053" y2="94.9948" gradientUnits="userSpaceOnUse">
<stop stop-color="#FFD780"/>
<stop offset="1" stop-color="#FFBC80"/>
</linearGradient>
<linearGradient id="paint6_linear_180125_331598" x1="110.395" y1="282.621" x2="130.116" y2="282.621" gradientUnits="userSpaceOnUse">
<stop stop-color="#99B1E8"/>
<stop offset="1" stop-color="#94AAED"/>
</linearGradient>
<linearGradient id="paint7_linear_180125_331598" x1="129.764" y1="282.621" x2="149.485" y2="282.621" gradientUnits="userSpaceOnUse">
<stop stop-color="#99B3E8"/>
<stop offset="1" stop-color="#5D7BC2"/>
</linearGradient>
<linearGradient id="paint8_linear_180125_331598" x1="20.4796" y1="282.621" x2="40.2001" y2="282.621" gradientUnits="userSpaceOnUse">
<stop stop-color="#99B1E8"/>
<stop offset="1" stop-color="#5D7BC2"/>
</linearGradient>
<linearGradient id="paint9_linear_180125_331598" x1="39.8489" y1="282.621" x2="59.5695" y2="282.621" gradientUnits="userSpaceOnUse">
<stop stop-color="#99B1E8"/>
<stop offset="1" stop-color="#5D7BC2"/>
</linearGradient>
<linearGradient id="paint10_linear_180125_331598" x1="84.9514" y1="238.813" x2="105.65" y2="238.813" gradientUnits="userSpaceOnUse">
<stop stop-color="#FFD780"/>
<stop offset="1" stop-color="#FFBC80"/>
</linearGradient>
<linearGradient id="paint11_linear_180125_331598" x1="61.0961" y1="238.813" x2="81.7898" y2="238.813" gradientUnits="userSpaceOnUse">
<stop stop-color="#FFD780"/>
<stop offset="1" stop-color="#FFBC80"/>
</linearGradient>
<linearGradient id="paint12_linear_180125_331598" x1="37.241" y1="238.813" x2="57.9345" y2="238.813" gradientUnits="userSpaceOnUse">
<stop stop-color="#FFD780"/>
<stop offset="1" stop-color="#FFBC80"/>
</linearGradient>
<linearGradient id="paint13_linear_180125_331598" x1="24.6973" y1="238.813" x2="34.0754" y2="238.813" gradientUnits="userSpaceOnUse">
<stop stop-color="#FFD780"/>
<stop offset="1" stop-color="#FFBC80"/>
</linearGradient>
<linearGradient id="paint14_linear_180125_331598" x1="132.669" y1="238.814" x2="147.612" y2="238.814" gradientUnits="userSpaceOnUse">
<stop stop-color="#FFD780"/>
<stop offset="1" stop-color="#FFBC80"/>
</linearGradient>
<linearGradient id="paint15_linear_180125_331598" x1="108.807" y1="238.813" x2="129.504" y2="238.813" gradientUnits="userSpaceOnUse">
<stop stop-color="#FFD780"/>
<stop offset="1" stop-color="#FFC380"/>
</linearGradient>
<linearGradient id="paint16_linear_180125_331598" x1="244.611" y1="283.98" x2="286.867" y2="283.98" gradientUnits="userSpaceOnUse">
<stop stop-color="#FFD780"/>
<stop offset="1" stop-color="#FFBC80"/>
</linearGradient>
</defs>
</svg>
