<svg width="322" height="320" viewBox="0 0 322 320" fill="none" xmlns="http://www.w3.org/2000/svg">
<path d="M7.71156 164.557C-7.53443 193.889 3.73434 221.564 10.0316 237.141C22.9575 269.124 66.5412 310.057 170.777 317.348C305.008 326.628 325.392 209.798 321.58 159.585C317.768 109.373 311.968 43.4176 201.766 6.62839C91.5645 -30.1608 134.817 97.2757 49.9695 134.562C34.8892 141.191 15.5003 149.808 7.71156 164.557Z" fill="url(#paint0_linear_180125_331765)"/>
<path d="M7.71156 164.557C-7.53443 193.889 3.73434 221.564 10.0316 237.141C22.9575 269.124 66.5412 310.057 170.777 317.348C305.008 326.628 325.392 209.798 321.58 159.585C317.768 109.373 311.968 43.4176 201.766 6.62839C91.5645 -30.1608 134.817 97.2757 49.9695 134.562C34.8892 141.191 15.5003 149.808 7.71156 164.557Z" fill="url(#paint1_linear_180125_331765)"/>
<path d="M15.8317 111.527C17.1574 114.51 19.9746 116.665 23.1233 116.83C35.7178 117.99 53.9467 112.687 72.6727 89.1556C93.7188 62.8066 116.754 35.4633 94.216 37.6176C71.5127 39.7719 34.2263 61.1494 20.8032 83.5213C12.5174 97.2758 13.6774 106.39 15.8317 111.527Z" fill="url(#paint2_linear_180125_331765)"/>
<path d="M7.71156 164.557C-7.53443 193.889 3.73434 221.564 10.0316 237.141C22.9575 269.124 66.5412 310.057 170.777 317.348C305.008 326.628 325.392 209.798 321.58 159.585C317.768 109.373 311.968 43.4176 201.766 6.62839C91.5645 -30.1608 134.817 97.2757 49.9695 134.562C34.8892 141.191 15.5003 149.808 7.71156 164.557Z" fill="url(#paint3_linear_180125_331765)"/>
<path d="M310.477 317.846H11.6888V320.166H310.477V317.846Z" fill="#C8D3FB"/>
<path d="M292.911 265.148H264.905V249.736H292.911V265.148ZM266.562 263.491H291.419V251.228H266.562V263.491Z" fill="#C8D3FB"/>
<path d="M273.688 278.902H245.682V263.49H273.688V278.902ZM247.339 277.41H272.196V265.147H247.339V277.41Z" fill="#C8D3FB"/>
<path d="M227.287 297.629H199.281V282.217H227.287V297.629ZM200.938 296.137H225.795V283.874H200.938V296.137Z" fill="#C8D3FB"/>
<path d="M318.1 165.884H290.094V150.473H318.1V165.884ZM291.585 164.393H316.443V152.13H291.585V164.393Z" fill="#C8D3FB"/>
<path d="M291.585 165.884H263.579V150.473H291.585V165.884ZM265.07 164.393H289.928V152.13H265.07V164.393Z" fill="#C8D3FB"/>
<path d="M304.843 179.804H276.836V164.393H304.843V179.804ZM278.328 178.147H303.185V165.884H278.328V178.147Z" fill="#C8D3FB"/>
<path d="M127.028 283.875H99.0218V268.463H127.028V283.875ZM100.679 282.383H125.537V270.12H100.679V282.383Z" fill="#C8D3FB"/>
<path d="M146.251 297.629H118.245V282.217H146.251V297.629ZM119.736 296.137H144.594V283.874H119.736V296.137Z" fill="#C8D3FB"/>
<path d="M198.949 39.607H170.943V24.1953H198.949V39.607ZM172.434 38.1156H197.292V25.8525H172.434V38.1156Z" fill="#C8D3FB"/>
<path d="M172.434 39.607H144.428V24.1953H172.434V39.607ZM146.085 38.1156H170.943V25.8525H146.085V38.1156Z" fill="#C8D3FB"/>
<path d="M185.692 53.3612H157.686V38.1152H185.692V53.3612ZM159.343 51.8698H184.2V39.6067H159.343V51.8698Z" fill="#C8D3FB"/>
<path d="M173.76 203.832H125.536V310.057H173.76V203.832Z" fill="#6B89CF"/>
<path d="M173.595 269.456H125.536L125.702 251.559H173.926L173.595 269.456Z" fill="#5D7BC2"/>
<path d="M91.5645 317.678C94.3817 310.553 121.062 305.084 153.543 305.084C186.023 305.084 212.538 310.553 215.521 317.678H91.5645Z" fill="#5D7BC2"/>
<path d="M272.859 75.566V246.752C272.859 253.215 268.716 258.849 263.082 261.169C261.425 261.832 259.436 262.164 257.447 262.164H19.4775C11.0259 262.164 4.06577 255.203 4.06577 246.752V75.566C4.06577 69.2687 7.87727 63.8001 13.3459 61.48C15.1688 60.6514 17.3232 60.1543 19.4775 60.1543H257.447C257.779 60.1543 258.11 60.1543 258.442 60.1543C261.756 60.32 264.573 61.48 267.059 63.4686C270.539 66.2858 272.859 70.5945 272.859 75.566Z" fill="#5D7BC2"/>
<path d="M282.636 75.566V246.752C282.636 248.078 282.471 249.238 282.139 250.398C280.482 257.192 274.351 262.164 267.225 262.164H29.2548C29.0891 262.164 29.0891 262.164 28.9234 262.164C20.4718 261.998 13.8431 255.203 13.8431 246.752V75.566C13.8431 67.1144 20.8032 60.1543 29.2548 60.1543H267.225C267.556 60.1543 268.053 60.1543 268.385 60.1543C276.339 60.8172 282.636 67.4459 282.636 75.566Z" fill="url(#paint4_linear_180125_331765)"/>
<path d="M38.3692 253.546H258.11C265.899 253.546 272.196 247.249 272.196 239.46V82.8574C272.196 75.0687 265.899 68.7715 258.11 68.7715H38.3692C30.5805 68.7715 24.2833 75.0687 24.2833 82.8574V239.46C24.2833 247.249 30.5805 253.546 38.3692 253.546Z" fill="url(#paint5_linear_180125_331765)"/>
<path d="M215.024 119.649V245.096H92.0616V77.3906H175.086L215.024 119.649Z" fill="white"/>
<path d="M159.011 178.644H147.08C147.08 176.986 147.08 175.826 147.08 175.495C147.08 171.683 147.743 168.535 148.903 166.049C150.228 163.563 152.714 160.746 156.526 157.597C160.337 154.449 162.657 152.46 163.32 151.466C164.48 149.974 164.977 148.317 164.977 146.494C164.977 144.009 163.983 141.689 161.994 139.866C160.006 138.043 157.188 137.214 153.708 137.214C150.394 137.214 147.577 138.209 145.423 140.031C143.268 141.854 141.611 144.837 140.783 148.649L128.685 147.157C129.017 141.523 131.337 136.883 135.811 132.906C140.285 129.094 145.92 127.105 153.211 127.105C160.669 127.105 166.8 129.094 171.109 133.071C175.583 137.049 177.737 141.523 177.737 146.826C177.737 149.643 176.909 152.46 175.252 155.112C173.595 157.763 170.114 161.243 164.812 165.718C161.994 168.038 160.337 169.861 159.674 171.352C159.343 172.512 159.011 174.998 159.011 178.644ZM147.08 189.747C147.08 186.101 150.063 183.118 153.708 183.118C157.354 183.118 160.337 186.101 160.337 189.747C160.337 193.392 157.354 196.375 153.708 196.375C150.063 196.21 147.08 193.392 147.08 189.747Z" fill="#F5222D"/>
<path opacity="0.5" d="M147.354 203.069C123.822 199.258 107.748 177.052 111.559 153.354C115.371 129.822 137.743 113.748 161.275 117.559C184.806 121.371 200.881 143.577 197.069 167.275C193.258 190.972 170.886 206.881 147.354 203.069Z" fill="#C8D3FB"/>
<path d="M215.024 119.648H175.086V77.2246V77.3903L215.024 119.648Z" fill="#C8D3FB"/>
<path d="M68.8612 318.175H70.187L68.3641 277.74H67.0383L68.8612 318.175Z" fill="#5D7BC2"/>
<path d="M38.8664 275.42C38.8664 272.603 56.9296 272.438 62.564 272.438C68.0326 272.438 86.2615 272.603 86.2615 275.42C86.2615 278.238 68.1983 278.403 62.564 278.403C56.9296 278.403 38.8664 278.238 38.8664 275.42ZM62.3982 273.763C50.3009 273.763 42.3465 274.758 40.3578 275.42C42.3465 276.249 50.1352 277.078 62.3982 277.078C74.4956 277.078 82.45 276.083 84.4386 275.42C82.6157 274.592 74.6613 273.763 62.3982 273.763Z" fill="#5D7BC2"/>
<path d="M84.7701 254.375C85.9301 257.192 86.4272 260.175 86.4272 263.324C86.4272 276.581 75.6556 287.353 62.3982 287.353C49.1409 287.353 38.3692 276.581 38.3692 263.324C38.3692 260.175 39.0321 257.192 40.0264 254.375H84.7701Z" fill="#C8D3FB"/>
<path d="M40.1921 254.375C40.1921 256.363 50.1352 257.855 62.564 257.855C74.827 257.855 84.9358 256.197 84.9358 254.375C84.9358 252.386 74.9928 250.895 62.564 250.895C50.1352 250.895 40.1921 252.386 40.1921 254.375Z" fill="#BFCBF1"/>
<path d="M42.3465 254.374C42.3465 255.866 51.2952 257.026 62.3982 257.026C73.5013 257.026 82.45 255.866 82.45 254.374C82.45 252.883 73.5013 251.723 62.3982 251.723C51.2952 251.723 42.3465 252.883 42.3465 254.374Z" fill="#835F59"/>
<path opacity="0.42" d="M42.3465 262.496C42.3465 260.673 45.1637 260.673 45.1637 262.496C44.9979 266.805 45.6608 271.113 48.6437 274.262C49.9694 275.588 47.9808 277.576 46.6551 276.251C43.0093 272.439 42.1807 267.468 42.3465 262.496Z" fill="white"/>
<path d="M62.3982 278.404C67.8669 278.404 86.0958 278.239 86.0958 275.422H84.7701C84.7701 275.256 84.7701 275.256 84.7701 275.256C83.9415 276.084 75.8213 277.079 62.3982 277.079C48.9751 277.079 40.855 275.919 40.0264 275.256V275.422H38.7007C38.8664 278.239 56.9296 278.404 62.3982 278.404Z" fill="#5D7BC2"/>
<path d="M89.4102 318.176L90.7359 318.01L85.7644 275.752L84.4386 275.918L89.4102 318.176Z" fill="#5D7BC2"/>
<path d="M36.7121 318.176L40.855 276.084L39.5293 275.918L35.3863 318.01L36.7121 318.176Z" fill="#5D7BC2"/>
<path d="M58.5364 277.772L57.7119 318.199L59.0374 318.226L59.8618 277.799L58.5364 277.772Z" fill="#5D7BC2"/>
<path d="M42.3465 254.376C42.3465 255.37 47.1523 256.364 54.1124 256.696C54.4438 256.696 54.941 256.696 55.4381 256.696C56.101 256.696 56.5981 256.696 57.261 256.696C57.5924 256.696 58.0896 256.696 58.421 256.696C59.2496 256.696 60.2439 256.696 61.2382 256.696C61.7354 256.696 62.0668 256.696 62.564 256.696C64.3869 256.696 66.2097 256.696 67.8669 256.53C68.3641 256.53 68.6955 256.53 69.1927 256.53C76.9814 256.199 82.6157 255.204 82.6157 254.044C82.6157 253.05 77.9757 252.056 71.1813 251.724C70.6841 251.724 70.3527 251.724 69.8555 251.724C67.8669 251.559 65.7126 251.559 63.3925 251.559H62.0668C60.7411 251.559 59.2496 251.559 58.0896 251.559C57.5924 251.559 57.261 251.559 56.9296 251.559C56.2667 251.559 55.6038 251.559 54.941 251.724C54.4438 251.724 54.1124 251.724 53.6152 251.724C46.8208 252.553 42.3465 253.381 42.3465 254.376Z" fill="#C8D3FB"/>
<path d="M62.2325 231.009C61.4039 230.512 60.5754 229.683 59.9125 229.186C58.9182 228.192 57.261 226.534 57.261 224.877C57.261 223.552 58.5868 223.22 59.5811 224.049C60.4096 224.712 60.7411 225.706 61.4039 226.534C62.2325 227.529 63.3926 228.357 64.7183 228.855C66.3755 226.369 66.7069 223.054 66.2097 220.072C65.5469 216.591 63.2268 211.786 59.9125 207.146C59.4153 208.306 58.9182 209.466 58.421 210.294C57.7582 211.289 56.7639 213.443 55.6038 213.774C54.2781 214.271 54.1124 213.111 54.2781 212.117V211.951C54.2781 211.786 54.2781 211.786 54.2781 211.62L54.4438 211.454C55.1067 210.128 55.9353 208.803 56.5981 207.311C57.0953 206.317 57.4267 205.157 57.5924 204.163C54.6095 200.848 51.1295 197.865 47.1523 196.208C47.9808 197.865 48.478 199.854 48.9752 201.345C49.4723 203.003 50.9638 206.648 49.638 208.306C49.3066 208.803 48.478 209.134 47.9808 208.803C47.1523 208.306 47.1523 206.483 47.1523 205.654C47.1523 203.666 47.1523 201.843 46.4894 199.854C45.9922 198.197 44.9979 196.54 44.0036 195.214C41.5179 194.551 38.8664 194.551 36.2149 195.214C37.0435 195.877 37.5407 196.705 37.7064 197.7C37.8721 198.694 37.2092 200.848 36.0492 200.848C34.392 201.014 34.392 197.203 34.0606 195.711C32.5691 196.208 31.0777 197.037 29.5862 197.865C27.1005 199.523 25.1119 201.677 23.6204 204.163V204.328C24.1176 208.471 29.4205 209.797 32.5691 211.454C33.5634 211.951 37.2092 213.609 36.7121 215.1C36.5464 215.929 35.2206 215.929 34.5577 215.763C33.0663 215.431 31.5748 214.271 30.4148 213.277C27.5976 211.123 24.7804 208.968 22.4604 206.317C19.9746 211.786 19.3118 218.083 19.4775 222.889C19.4775 222.889 19.6432 222.889 19.8089 222.889C21.6318 223.717 23.7861 224.049 25.609 223.883C26.769 223.717 28.0948 223.552 29.4205 223.717C30.4148 223.883 32.072 225.209 30.912 226.203C29.9177 227.032 27.5976 226.866 26.4376 226.7C23.9518 226.369 21.7975 225.54 19.6432 224.546C19.6432 225.872 19.8089 227.032 19.9746 228.026C20.6375 232.666 23.4547 236.809 27.2662 239.295C28.5919 240.123 29.9177 240.786 31.4091 241.283C34.2263 238.798 36.3806 236.146 37.7064 232.5C38.2035 231.009 39.1978 227.032 41.3522 227.032C42.3465 227.032 43.0093 228.192 43.175 229.02C43.5065 230.346 42.6779 231.837 41.8493 232.832C40.6893 234.489 39.5293 235.815 38.3692 237.472C37.3749 238.963 36.2149 240.62 35.0549 241.946C37.7064 242.278 40.5236 242.112 43.0093 241.283C46.9865 239.958 51.2952 235.815 48.9752 231.506C52.9524 232.666 58.2553 233.329 62.2325 231.009ZM26.6033 219.574H26.4376C26.2719 219.74 26.1062 219.74 25.9405 219.574L25.7747 219.409C25.2776 219.077 25.1119 218.58 24.9461 218.083C24.9461 217.917 24.9461 217.917 24.9461 217.751C24.9461 217.42 24.7804 217.254 24.7804 216.923C24.7804 216.26 25.1119 215.597 25.7747 215.763C26.6033 215.929 27.4319 216.757 27.5976 217.586C27.7633 218.414 27.4319 219.409 26.6033 219.574ZM52.9524 220.569C52.4552 221.066 51.7923 221.232 51.2952 220.734C50.798 220.237 50.6323 219.409 50.798 218.58C50.798 218.414 50.9638 218.414 50.9638 218.414C51.6266 218.083 52.4552 218.083 52.9524 218.58C53.6152 219.077 53.4495 220.072 52.9524 220.569Z" fill="#5D7BC2"/>
<path d="M96.536 207.311C98.6903 208.14 101.01 208.637 103.33 208.968C104.656 204.494 104.49 199.688 103.993 195.048C102.336 196.705 100.513 198.197 98.3589 199.191C96.536 200.02 93.3874 201.511 91.7302 199.523C91.5645 199.357 91.5645 199.191 91.7302 199.025C93.5531 197.534 95.8731 197.7 98.0274 197.037C100.182 196.374 102.336 194.882 103.828 193.06C103.828 192.728 103.662 192.231 103.662 191.9C103.165 188.42 102.668 185.105 102.005 181.791C102.005 181.791 102.005 181.957 101.839 181.957C101.508 182.619 101.01 183.779 100.182 183.945C99.5189 184.111 99.1875 183.282 99.3532 182.619C99.5189 181.791 100.347 181.128 100.679 180.299C100.845 179.802 101.01 179.305 101.176 178.808C100.679 176.156 100.016 173.505 99.3532 170.853C99.3532 170.688 99.1875 170.522 98.856 170.688C96.2046 171.019 93.5531 171.351 90.9016 171.848C87.9187 174.665 85.9301 178.145 85.5987 182.288C85.4329 183.448 86.2615 189.745 83.4443 188.917C80.4614 188.088 81.7872 182.454 82.45 180.631C83.4443 177.648 84.9358 174.996 86.7587 172.676C80.7929 173.836 74.827 175.494 69.3584 178.476C67.3698 182.785 67.5355 187.26 70.1869 191.402C70.6841 192.397 74.1642 196.54 71.347 197.037C69.0269 197.368 67.204 192.894 66.8726 191.237C66.3755 188.751 66.7069 186.099 66.8726 183.614C67.0383 182.122 67.204 180.631 67.7012 179.305C67.7012 179.305 67.5355 179.305 67.5355 179.471C63.3925 181.957 59.581 185.105 58.2553 189.911C57.7582 192.065 57.5924 194.22 57.9239 196.374C58.9182 197.865 60.0782 199.357 61.4039 200.683C62.7297 202.008 64.3868 202.671 65.8783 203.666C67.0383 204.328 68.8612 206.648 67.204 207.974C65.8783 208.968 63.3925 207.808 62.0668 207.311C61.5697 207.146 61.0725 206.814 60.5754 206.648C60.4096 219.574 71.6784 212.946 71.6784 212.946C71.5127 224.877 83.7758 225.043 91.233 222.226C90.4045 222.06 89.7416 221.894 88.913 221.894C87.4215 221.729 85.9301 221.563 84.4386 221.232C82.7815 220.9 80.6271 219.906 80.9586 217.917C81.29 216.094 83.6101 217.586 84.4386 218.083C87.4215 219.74 90.7359 221.232 94.216 221.066C94.5474 220.9 94.8788 220.569 95.2103 220.403C97.8617 218.58 100.016 216.094 101.508 213.443C98.6903 213.443 95.7074 213.111 92.8902 212.614C90.9016 212.283 87.5873 211.786 86.593 209.466C86.4272 209.3 86.593 208.968 86.9244 208.968C89.4102 208.803 91.7302 209.466 94.0502 210.626C96.7017 211.951 99.3532 212.614 102.17 212.283C102.502 211.62 102.833 210.957 102.999 210.128V209.963C100.679 209.631 98.3589 209.134 96.2046 208.306C95.8731 207.808 96.0388 207.146 96.536 207.311ZM92.0616 182.785C92.0616 182.619 92.0616 182.619 92.2273 182.619C92.3931 182.122 92.7245 181.625 93.3874 181.459C95.0445 181.294 96.0388 183.117 94.7131 184.111C94.216 184.608 93.3874 184.774 92.8902 184.608C92.0616 184.442 91.8959 183.614 92.0616 182.785ZM77.4785 214.769C76.9814 215.1 76.3185 215.266 75.8213 214.769C75.6556 214.603 75.6556 214.437 75.8213 214.271C75.8213 213.774 75.9871 213.277 76.3185 213.111C76.8156 212.614 77.4785 212.78 77.8099 213.277C78.1414 213.774 77.8099 214.437 77.4785 214.769ZM78.8042 189.248C78.6385 190.077 78.3071 191.237 77.4785 191.568C76.4842 192.065 76.1528 190.905 75.9871 190.077V189.911C75.6556 189.082 75.3242 188.254 75.4899 187.425C75.6556 186.265 76.8156 185.934 77.8099 186.431C78.8043 187.094 78.97 188.254 78.8042 189.248ZM87.753 201.843C87.4215 202.34 86.593 202.34 86.0958 202.174C85.4329 201.843 85.1015 201.18 85.1015 200.351C85.1015 200.02 85.4329 200.02 85.5987 200.02C86.0958 199.523 86.7587 199.357 87.2558 199.854C87.9187 200.351 88.2501 201.18 87.753 201.843Z" fill="url(#paint6_linear_180125_331765)"/>
<path d="M39.0321 258.186C39.695 259.512 40.1921 261.003 40.5236 262.329C37.7064 263.323 34.392 263.489 31.4091 263.323C32.4034 262.163 33.232 261.003 33.8949 259.512C34.392 258.352 35.2206 256.197 33.8949 255.203C33.7292 255.203 33.7292 255.203 33.5634 255.203C32.7349 256.363 32.9006 257.854 32.5691 259.346C32.2377 260.672 31.4091 262.163 30.2491 263.157C29.9177 263.157 29.7519 263.157 29.4205 263.157C27.1005 262.992 24.9461 262.826 22.6261 262.66C22.6261 262.66 22.6261 262.66 22.7918 262.66C23.1233 262.494 23.9518 261.997 23.9518 261.5C23.9518 261.003 23.4547 260.837 23.1233 261.003C22.6261 261.169 22.129 261.666 21.6318 261.997C21.3004 262.163 20.9689 262.329 20.6375 262.329C18.8146 262.163 16.9917 261.832 15.3345 261.666C15.0031 261.832 15.0031 261.666 15.0031 261.5C15.1688 259.843 15.1688 258.02 15.3345 256.363C17.1574 254.374 19.146 252.883 21.9632 252.551C22.7918 252.386 26.9348 252.551 26.2719 250.894C25.609 249.071 21.9632 250.231 20.8032 250.729C18.8146 251.391 17.1574 252.551 15.666 253.877C16.1631 250.066 16.9917 246.088 18.6489 242.608C21.3004 241.117 24.2833 241.117 27.2662 242.443C27.9291 242.774 30.912 244.597 31.0777 242.94C31.2434 241.448 28.0948 240.62 27.1005 240.454C25.4433 240.288 23.7861 240.62 22.129 240.785C21.1347 240.951 20.1403 241.117 19.3118 241.614V241.448C20.8032 238.797 22.6261 236.145 25.7747 235.151C27.1005 234.654 28.5919 234.488 30.0834 234.654C31.0777 235.317 32.2377 235.814 33.0663 236.643C34.0606 237.471 34.5577 238.3 35.2206 239.294C35.7178 239.957 37.3749 241.117 38.0378 239.957C38.535 239.128 37.7064 237.637 37.3749 236.808C37.2092 236.477 37.0435 236.145 36.8778 235.814C45.4951 234.985 41.5179 242.608 41.6836 242.608C49.638 241.945 50.3009 249.568 48.8094 254.54C48.6437 254.043 48.478 253.546 48.478 253.214C48.3123 252.22 48.1466 251.391 47.8151 250.397C47.4837 249.403 46.8208 248.077 45.3294 248.408C44.1693 248.74 45.1636 250.066 45.6608 250.563C46.8208 252.386 47.9808 254.374 47.9808 256.529C47.8151 256.694 47.6494 257.026 47.6494 257.191C46.4894 258.849 44.9979 260.34 43.3408 261.5C43.175 259.677 42.8436 257.854 42.3465 256.031C42.015 254.706 41.5179 252.717 40.0264 252.22C39.8607 252.22 39.695 252.22 39.695 252.386C39.695 254.043 40.1921 255.369 41.1864 256.694C42.1807 258.351 42.6779 260.009 42.6779 261.832C42.1807 261.997 41.8493 262.329 41.3522 262.494C41.3522 262.494 41.3522 262.494 41.1864 262.494C40.855 261.003 40.3578 259.677 39.695 258.351C39.3635 257.689 38.8664 257.854 39.0321 258.186ZM22.6261 256.529C22.129 256.694 21.7975 257.026 21.7975 257.357C21.7975 258.352 22.9575 259.014 23.6204 258.02C23.9518 257.689 23.9518 257.191 23.7861 256.86C23.6204 256.363 23.1233 256.363 22.6261 256.529ZM43.0093 245.591C43.175 245.26 43.3408 244.928 43.0093 244.597C42.8436 244.431 42.6779 244.597 42.6779 244.597C42.3465 244.597 42.015 244.763 41.8493 244.928C41.5179 245.26 41.6836 245.757 42.015 245.923C42.5122 246.088 42.8436 245.923 43.0093 245.591ZM26.2719 247.746C26.769 247.58 27.5976 247.248 27.7633 246.751C28.0948 246.088 27.2662 245.923 26.769 245.923C26.769 245.923 26.769 245.923 26.6033 245.923C26.1062 245.757 25.4433 245.591 24.9461 245.757C24.1176 245.923 23.9518 246.751 24.449 247.248C24.7804 247.911 25.609 247.911 26.2719 247.746ZM35.0549 252.883C35.3863 252.551 35.3863 252.22 35.2206 251.889C35.0549 251.391 34.392 251.226 33.8949 251.391C33.7292 251.391 33.7292 251.557 33.7292 251.723C33.3977 252.054 33.3977 252.551 33.7292 252.883C34.0606 253.049 34.5577 253.214 35.0549 252.883Z" fill="url(#paint7_linear_180125_331765)"/>
<path d="M107.308 230.346C106.479 230.346 105.65 230.181 104.988 230.181C103.33 230.015 101.176 230.346 99.6846 229.186C99.5189 229.021 99.5189 228.855 99.6846 228.689C102.17 226.535 104.988 228.855 107.639 229.021C107.97 227.032 107.97 224.712 107.805 222.889C107.639 221.398 107.308 219.906 106.81 218.58C105.319 220.569 103.993 222.723 102.005 224.38C101.176 225.043 99.1875 226.866 98.1932 226.203C97.0331 225.375 99.0217 224.049 99.6846 223.552C102.17 221.895 104.656 220.238 106.479 217.918C105.485 215.929 103.993 214.437 102.005 213.443C100.513 212.78 99.0218 212.283 97.3646 211.952C97.696 214.437 97.3646 218.249 95.0445 218.912C93.3874 219.409 92.3931 217.42 92.2273 215.929C92.0616 214.106 93.2216 212.615 94.5474 211.62C92.0616 211.289 89.5759 211.289 87.0901 211.455C86.593 211.455 86.2615 211.455 85.7644 211.62V211.786C84.6044 214.106 83.2786 216.592 83.1129 219.243C82.9472 220.238 83.4443 221.398 82.9472 222.392C82.1186 223.883 80.6271 222.723 80.4614 221.563C80.13 219.409 80.9586 216.758 81.7872 214.769C82.1186 213.94 82.45 213.112 82.7815 212.117C79.7986 212.78 76.8156 213.775 74.3299 215.597C73.5013 216.26 72.6727 216.923 72.0098 217.586C71.6784 220.072 71.8441 222.723 72.6727 225.043C73.3356 226.701 75.1585 229.849 73.3356 231.506C72.0098 232.666 71.347 230.346 71.0155 229.518C70.1869 226.535 69.8555 223.386 69.6898 220.238C68.3641 222.06 67.3698 224.215 66.5412 226.369C65.7126 228.523 65.0497 230.678 64.5526 232.832C66.044 233.992 67.8669 234.324 69.6898 235.318C70.5184 235.815 72.0098 236.809 71.347 237.969C69.8555 240.455 66.2097 237.638 64.2211 235.484C64.0554 237.472 64.7183 239.129 66.044 240.621C69.0269 243.769 73.8327 244.764 77.6442 241.947C77.4785 245.592 80.2957 248.741 83.9415 248.078C85.2672 247.912 86.2615 247.249 87.2558 246.421C86.4272 246.587 85.5986 246.587 84.7701 246.587C83.61 246.587 81.7872 246.421 81.4557 245.095C80.9586 243.935 82.1186 243.769 82.9472 244.101C83.9415 244.432 84.6043 244.929 85.5986 245.095C86.9244 245.095 88.0844 244.764 89.2444 244.267C90.5702 242.609 91.8959 241.284 93.8845 240.289C94.5474 239.958 95.376 239.626 96.2046 239.295C94.7131 239.129 92.3931 238.964 91.8959 237.472C91.0673 235.152 94.5474 234.986 95.7074 235.152C97.3646 235.484 98.856 235.981 100.347 235.981C101.673 236.146 102.999 235.981 104.325 235.484C104.656 235.318 104.822 235.152 105.153 234.821C106.148 233.329 106.81 231.838 107.308 230.346ZM78.97 232.003C78.3071 232.003 77.9757 231.175 77.8099 230.512C77.8099 229.849 77.8099 229.186 78.1414 228.689V228.523C78.3071 228.026 78.4728 227.529 78.97 227.363C79.3014 227.198 79.6328 227.363 79.9643 227.695C80.4614 228.358 80.7929 229.352 80.6271 230.181C80.2957 230.843 79.7985 232.003 78.97 232.003ZM87.753 223.386C87.4215 222.558 87.5873 221.729 88.2501 221.066H88.4158C89.0787 220.569 89.7416 220.735 90.2387 221.398C90.5702 222.226 90.4045 223.22 89.5759 223.718C88.913 224.381 88.0844 224.049 87.753 223.386ZM86.4272 239.461C85.9301 240.124 84.9358 240.455 84.4386 239.792C83.9415 239.295 83.9415 238.466 84.2729 237.969C84.1072 237.804 84.1072 237.638 84.2729 237.472C85.2672 236.478 87.2558 237.969 86.4272 239.461Z" fill="url(#paint8_linear_180125_331765)"/>
<path d="M67.8669 256.86C68.3641 256.86 68.6955 256.86 69.1927 256.86C69.6898 255.534 70.187 254.374 70.6841 253.048C70.8498 252.717 71.0155 252.386 71.1813 252.054C74.3299 245.757 78.8043 240.288 84.2729 235.814C84.9358 235.317 83.9415 234.488 83.4443 234.985C77.8099 239.46 73.1699 245.094 70.0212 251.557C70.0212 251.723 69.8555 251.888 69.8555 252.054C69.0269 253.546 68.3641 255.203 67.8669 256.86Z" fill="#5D7BC2"/>
<path d="M61.2382 257.027C61.7354 257.027 62.0668 257.027 62.564 257.027C62.7297 255.204 63.0611 253.547 63.3925 251.89C63.8897 248.907 64.5526 245.924 65.2154 242.941C66.7069 236.644 68.3641 230.512 70.0212 224.215C71.6784 218.083 73.3356 212.118 77.1471 206.98C77.6442 206.318 76.4842 205.655 76.1528 206.318C72.507 211.289 70.6841 217.089 69.1927 222.889C67.3698 229.849 65.3812 236.81 63.8897 243.77C63.2268 246.421 62.7297 249.238 62.2325 251.89C61.7354 253.547 61.4039 255.204 61.2382 257.027Z" fill="#5D7BC2"/>
<path d="M46.3237 228.356C47.9808 231.671 49.3066 235.151 50.4666 238.631C50.6323 239.128 50.798 239.625 50.9638 240.122C52.1238 243.934 52.9524 247.911 53.6152 252.054C53.9467 253.546 54.1124 255.203 54.2781 256.86C54.6095 256.86 55.1067 256.86 55.6038 256.86C55.4381 255.203 55.1067 253.546 54.941 252.054C54.4438 248.408 53.6152 244.928 52.6209 241.448C52.4552 240.785 52.2895 240.122 52.1238 239.46C50.9638 235.482 49.4723 231.671 47.6494 227.859C47.1523 227.031 45.9922 227.694 46.3237 228.356Z" fill="#5D7BC2"/>
<path d="M34.7235 247.581C37.8721 245.427 41.1864 243.272 44.3351 241.118C46.158 239.958 47.9808 239.129 50.1352 239.792C50.3009 239.958 50.6323 239.958 50.798 240.124C51.4609 240.455 51.9581 240.787 52.4552 241.284C53.1181 241.947 53.6152 242.61 54.1124 243.272C55.6038 245.758 56.2667 248.741 56.7639 251.724C56.9296 253.381 57.0953 255.038 57.261 256.696C57.5924 256.696 58.0896 256.696 58.421 256.696C58.2553 255.038 58.2553 253.215 57.9239 251.558C57.4267 247.25 56.2667 243.272 53.6152 240.455C53.1181 239.958 52.6209 239.461 51.9581 239.129C51.4609 238.798 50.9638 238.632 50.4666 238.467C49.1409 237.969 47.8151 237.969 46.3237 238.467C44.5008 239.129 42.6779 240.621 41.0207 241.781C38.7007 243.272 36.5464 244.764 34.2263 246.255C33.5634 246.918 34.0606 247.912 34.7235 247.581Z" fill="#5D7BC2"/>
<path d="M242.201 188.089C244.024 179.306 249.327 173.506 250.984 172.015C253.802 169.529 261.756 169.86 265.07 176.489C268.385 183.118 269.545 187.095 268.551 199.027C267.722 210.958 257.779 251.891 257.779 260.839C257.779 269.788 239.053 268.794 240.047 256.033C241.207 243.273 240.047 198.198 242.201 188.089Z" fill="#50496A"/>
<path d="M268.882 190.739C268.716 184.773 267.39 181.293 265.07 176.488C263.248 172.842 259.933 171.019 256.95 170.688C256.785 170.688 256.619 170.688 256.453 170.688C256.287 170.688 256.122 170.688 255.956 170.688C255.459 170.688 254.962 170.688 254.465 170.688C253.802 170.688 253.305 170.853 252.807 171.019C252.476 171.185 252.31 171.185 251.979 171.35C251.813 171.35 251.813 171.516 251.647 171.516C251.482 171.682 251.15 171.848 250.984 172.013C250.819 172.179 250.819 172.179 250.653 172.345L250.487 172.51L250.322 172.676C250.322 172.676 250.322 172.676 250.156 172.842L249.99 173.008C249.99 173.008 249.99 173.008 249.824 173.173C249.659 173.339 249.493 173.67 249.162 173.836C249.162 173.836 249.162 173.836 248.996 174.002C248.996 174.168 248.83 174.168 248.83 174.333C248.83 174.333 248.83 174.499 248.664 174.499C248.664 174.665 248.499 174.665 248.333 174.83C248.333 174.83 248.333 174.996 248.167 174.996C248.002 175.328 247.67 175.659 247.504 175.99C247.504 175.99 247.504 176.156 247.339 176.156C247.173 176.322 247.173 176.488 247.007 176.488C247.007 176.488 247.007 176.653 246.842 176.653C246.676 176.819 246.676 176.985 246.51 176.985C246.51 176.985 246.51 177.15 246.344 177.15C246.013 177.482 245.847 177.979 245.516 178.31C245.516 178.31 245.516 178.476 245.35 178.476C245.184 178.642 245.184 178.808 245.019 178.973C245.019 178.973 245.019 179.139 244.853 179.139C244.687 179.305 244.687 179.471 244.522 179.636C244.522 179.636 244.521 179.802 244.356 179.802C244.19 179.968 244.19 180.299 244.024 180.465C243.859 180.631 243.859 180.962 243.693 181.128C243.693 181.128 243.693 181.293 243.527 181.293C243.527 181.459 243.361 181.625 243.361 181.791C243.361 181.956 243.361 181.956 243.196 182.122C243.196 182.288 243.03 182.453 243.03 182.619C243.03 182.619 243.03 182.785 242.864 182.785C242.699 183.116 242.699 183.282 242.533 183.613C242.367 183.945 242.367 184.111 242.201 184.442C242.201 184.608 242.201 184.608 242.036 184.773C242.036 184.939 241.87 185.105 241.87 185.436C241.87 185.602 241.87 185.602 241.704 185.768C241.704 185.933 241.539 186.265 241.539 186.431C241.539 186.596 241.539 186.596 241.539 186.762C241.539 187.094 241.373 187.425 241.373 187.756C241.373 187.922 241.373 188.088 241.207 188.254V188.419C241.207 188.585 241.207 188.751 241.207 188.916V189.082C241.207 189.248 241.207 189.414 241.207 189.579C241.207 189.745 241.207 189.745 241.207 189.911C241.207 190.076 241.207 190.242 241.207 190.408C241.207 190.574 241.207 190.574 241.207 190.739C241.207 190.905 241.207 191.071 241.207 191.236V191.402C241.207 191.899 241.041 192.562 241.041 193.225V193.391C241.041 193.722 241.041 193.888 241.041 194.219C241.041 194.385 241.041 194.385 241.041 194.551C241.041 194.882 241.041 195.048 241.041 195.379C241.041 195.545 241.041 195.545 241.041 195.711C241.041 196.042 241.041 196.208 241.041 196.539V196.705C241.041 197.037 241.041 197.368 241.041 197.699C241.041 198.859 240.876 200.019 240.876 201.345C240.876 201.345 240.876 201.345 240.876 201.511C240.876 201.842 240.876 202.339 240.876 202.671C240.876 202.671 240.876 202.671 240.876 202.837C240.876 203.334 240.876 203.665 240.876 204.162C248.83 209.797 262.419 209.631 261.922 213.774C261.756 215.597 255.956 254.375 255.293 255.866C255.293 256.032 256.287 261.666 257.613 261.501C257.613 261.335 257.613 261.003 257.613 260.838C257.613 252.055 267.225 212.283 268.385 199.688C268.385 199.522 268.385 199.357 268.385 199.191C268.55 197.368 268.551 195.711 268.716 194.054C269.048 192.894 269.048 191.734 268.882 190.739Z" fill="#403A57"/>
<path d="M285.122 188.255C281.642 179.472 275.511 173.506 273.522 172.015C270.208 169.529 262.253 169.695 260.265 176.158C258.11 182.787 257.779 186.764 260.762 198.861C263.745 210.959 275.013 251.891 276.671 260.839C278.328 269.788 295.065 262.662 293.242 249.571C290.922 234.988 289.099 198.53 285.122 188.255Z" fill="#50496A"/>
<path d="M266.728 206.153C270.871 205.49 277.333 204.33 278.825 204.827C281.974 205.821 284.459 208.473 284.459 211.953C284.459 215.93 290.591 253.548 290.591 253.714C291.254 253.216 292.248 252.388 293.077 251.394C293.077 250.896 293.077 250.234 292.911 249.571C290.757 234.988 288.934 198.53 285.122 188.255C281.974 180.301 276.671 174.666 274.185 172.512C273.853 172.346 273.688 172.181 273.522 172.015C270.208 169.529 262.253 169.695 260.265 176.158C258.11 182.787 257.779 186.764 260.762 198.861C260.928 199.524 261.59 201.513 262.253 203.336C262.75 205.324 264.739 206.484 266.728 206.153Z" fill="#403A57"/>
<path d="M234.744 149.312C236.401 145.666 238.721 143.014 245.019 134.397C245.184 134.066 245.516 133.569 245.682 133.237C250.156 126.277 252.807 117.163 253.802 115.837C257.282 111.197 269.379 110.7 267.556 122.963C265.899 134.066 253.636 152.958 246.344 156.106C243.527 157.266 237.727 155.609 236.236 153.455C236.567 153.123 234.247 150.472 234.744 149.312Z" fill="#F3AF6A"/>
<path d="M238.224 146.327C231.43 150.967 219.995 169.03 215.024 170.522C211.709 171.516 220.327 175.328 221.818 173.339C225.133 168.699 240.047 161.407 246.51 156.104C251.979 151.464 242.864 143.178 238.224 146.327Z" fill="#FFD2A7"/>
<path d="M270.042 95.9502C269.213 101.916 276.671 104.402 276.671 104.402C277.333 99.9275 282.305 97.4417 283.962 91.973C285.619 86.3386 282.305 80.3728 274.351 80.5385C269.379 80.7042 270.871 89.8187 270.042 95.9502Z" fill="#2F53A8"/>
<path d="M276.505 112.853C280.648 113.35 288.437 115.339 290.757 119.316C293.077 123.293 291.419 161.739 288.437 186.928C288.437 186.928 253.47 201.677 241.041 185.768C241.041 185.768 249.659 120.973 254.63 115.007C258.773 110.201 272.196 112.356 276.505 112.853Z" fill="url(#paint9_linear_180125_331765)"/>
<path d="M277.334 113.018C277.334 113.018 262.585 133.567 260.927 135.224C260.927 135.224 261.425 117.658 261.756 112.355L277.334 113.018Z" fill="url(#paint10_linear_180125_331765)"/>
<path d="M274.516 104.401C274.682 103.572 274.848 103.075 274.848 103.075C274.848 103.075 266.396 96.4466 265.402 103.241L274.516 104.401Z" fill="url(#paint11_linear_180125_331765)"/>
<path d="M265.568 117.328L263.082 112.522C263.082 112.522 265.733 110.699 265.402 106.059C264.573 94.7905 275.013 103.076 275.013 103.076C275.013 103.076 273.191 112.522 276.505 112.854L265.568 117.328Z" fill="#FFD2A7"/>
<path d="M265.733 115.174C271.533 116.002 271.368 108.545 271.533 107.219C271.865 105.893 274.848 103.076 274.848 103.076C274.848 103.076 273.025 112.522 276.339 112.853L265.568 117.328L264.076 114.511C264.573 114.842 265.07 115.008 265.733 115.174Z" fill="#FFBC8E"/>
<path d="M291.751 142.516L288.934 133.236L282.968 137.545C282.968 137.545 286.779 192.232 248.499 191.403C263.745 197.369 288.271 186.929 288.271 186.929C289.762 174.997 291.254 155.442 291.751 142.516Z" fill="#F3AF6A"/>
<path d="M262.419 86.8359L259.602 99.9276C259.105 103.905 263.082 107.551 267.225 108.048C271.368 108.545 275.013 105.893 275.676 101.916V101.585C275.676 101.585 279.985 101.916 280.482 97.4418C280.979 93.1332 277.996 94.4589 277.996 94.4589L278.162 92.636C278.494 90.4817 277.002 88.4931 274.848 88.3274L262.419 86.8359Z" fill="#FFD2A7"/>
<path d="M277.996 94.6231L278.328 92.6345C278.659 90.6459 277.168 88.6573 275.179 88.4916L273.025 88.1602V88.3259L271.036 103.24C270.705 105.892 267.888 107.549 265.402 107.218C264.573 107.052 263.082 106.389 262.419 105.892C264.076 107.218 265.733 107.881 267.225 108.046C271.368 108.543 275.013 105.892 275.676 101.915V101.583C275.676 101.583 279.985 101.915 280.482 97.4403C281.145 93.2974 277.996 94.6231 277.996 94.6231Z" fill="#FFBC8E"/>
<path d="M264.408 111.029C264.076 114.012 265.733 117.327 265.733 117.327C265.733 117.327 264.076 116.332 262.088 118.321C261.259 119.149 260.596 119.149 260.596 119.149C260.596 119.149 260.596 116.664 261.756 112.189L264.408 111.029Z" fill="#C8D3FB"/>
<path d="M313.294 140.031C310.311 137.214 291.917 119.317 290.591 118.488C285.785 115.505 274.185 119.317 280.316 130.088C285.785 139.866 296.888 150.306 304.843 150.637C307.825 150.803 312.631 146.992 313.294 144.506C313.626 143.677 314.288 140.86 313.294 140.031Z" fill="url(#paint12_linear_180125_331765)"/>
<path d="M274.682 110.699C272.859 113.682 265.733 117.328 265.733 117.328C265.733 117.328 267.888 116.831 270.042 119.648C270.871 120.808 272.362 121.305 272.362 121.305C272.362 121.305 276.836 117.825 277.499 113.019L274.682 110.699Z" fill="#C8D3FB"/>
<path d="M273.356 87.0011C273.356 87.0011 270.042 90.3154 264.739 88.9897C259.436 87.8297 258.607 90.4812 258.607 90.4812C258.607 90.4812 257.282 80.3724 264.739 77.7209C272.031 75.0695 275.676 80.3724 275.676 80.3724L273.356 87.0011Z" fill="#2F53A8"/>
<path d="M300.7 311.549C296.391 310.057 295.397 303.428 294.9 299.451L288.602 301.771C288.602 301.771 291.088 308.4 290.094 313.04C289.099 317.68 290.425 317.183 290.425 317.183H309.814C309.814 317.183 305.008 313.04 300.7 311.549Z" fill="#FFD2A7"/>
<path d="M310.146 317.68H290.425C290.425 317.68 289.762 317.846 289.431 316.52C289.265 315.692 289.265 315.692 289.431 313.869C289.431 313.537 289.597 313.04 289.597 312.709C291.419 312.875 294.237 311.549 294.237 311.549C295.065 309.395 297.882 308.4 298.545 309.56C299.705 311.549 302.191 312.046 303.848 312.543C307.494 313.869 308.488 315.195 309.317 316.686C309.98 317.183 310.146 317.68 310.146 317.68Z" fill="#2F53A8"/>
<path d="M310.146 317.68H290.425C290.425 317.68 289.762 317.845 289.431 316.52H309.483C309.98 317.182 310.146 317.68 310.146 317.68Z" fill="#2F53A8"/>
<path d="M291.917 247.912C297.551 252.552 295.065 286.027 297.882 308.233C297.882 308.233 291.254 309.724 287.277 307.901C287.277 307.901 276.505 268.792 276.505 259.678C276.505 243.769 285.951 242.94 291.917 247.912Z" fill="#50496A"/>
<path d="M237.561 312.044C241.87 310.553 239.881 303.593 240.379 299.781L246.676 302.101C246.676 302.101 247.173 309.061 248.167 313.702C249.162 318.342 247.67 317.844 247.67 317.844L227.95 317.679C227.95 317.513 233.253 313.37 237.561 312.044Z" fill="#FFD2A7"/>
<path d="M237.561 312.044C238.887 311.713 239.219 310.718 240.047 309.558C240.544 308.73 242.036 310.221 242.864 311.878C242.864 311.878 246.344 313.204 248.167 312.707C248.167 313.038 248.167 313.37 248.333 313.701C249.327 318.341 247.836 317.844 247.836 317.844L228.116 317.678C228.944 313.867 233.418 313.204 237.561 312.044Z" fill="#2F53A8"/>
<path d="M248.499 316.519C248.333 317.845 247.836 317.679 247.836 317.679L228.116 317.514C228.116 317.514 228.115 317.016 228.613 316.354L248.499 316.519Z" fill="#2F53A8"/>
<path d="M241.373 254.872C237.727 258.85 240.047 286.69 238.887 306.742C238.887 306.742 245.516 308.731 249.327 306.908C249.327 306.908 259.767 268.296 257.613 260.341C254.63 249.57 246.344 249.404 241.373 254.872Z" fill="#50496A"/>
<path d="M257.613 260.342C257.116 258.685 256.619 257.359 255.79 256.033C255.79 256.53 248.499 290.668 247.67 307.406C248.002 307.406 248.333 307.24 248.664 307.074C248.83 307.074 248.996 306.908 249.162 306.908C249.162 306.908 252.476 294.314 255.293 281.388C257.282 272.439 258.607 263.656 257.613 260.342Z" fill="#50496A"/>
<path d="M291.917 247.913C291.254 247.25 290.425 246.753 289.597 246.422C290.425 249.405 293.408 262.165 293.077 271.279C292.911 281.388 294.734 305.417 295.562 308.732C296.888 308.566 297.717 308.4 297.717 308.4C295.065 286.028 297.717 252.553 291.917 247.913Z" fill="#403A57"/>
<path d="M272.528 183.613L274.185 173.504L199.281 161.738L197.624 171.847L272.528 183.613Z" fill="url(#paint13_linear_180125_331765)"/>
<path d="M298.214 187.425L299.705 177.979C300.202 175.162 298.214 172.511 295.397 172.013L224.304 160.91C221.487 160.413 218.835 162.402 218.338 165.219L216.847 174.665C216.35 177.482 218.338 180.134 221.155 180.631L292.248 191.734C295.065 192.231 297.882 190.242 298.214 187.425Z" fill="#6B90E8"/>
<path d="M145.92 208.637C172.932 213.111 198.286 194.717 202.595 167.87C206.904 140.858 188.675 115.504 161.829 111.195C134.817 106.721 109.462 124.95 105.153 151.796C100.679 178.808 119.074 204.162 145.92 208.637ZM111.119 152.79C114.931 129.258 137.137 113.184 160.834 116.995C184.366 120.807 200.441 143.013 196.629 166.71C192.818 190.242 170.612 206.317 146.914 202.505C123.382 198.694 107.308 176.488 111.119 152.79Z" fill="#6B90E8"/>
<g opacity="0.5">
<path d="M165.64 191.07C164.977 190.407 163.983 190.076 162.989 190.241C159.011 191.07 155.034 191.07 151.057 190.573C149.566 190.241 148.074 191.401 147.743 192.893C147.411 194.384 148.571 195.876 150.063 196.207C154.703 197.036 159.509 196.87 164.149 195.876C165.64 195.544 166.634 194.053 166.303 192.561C166.303 191.899 165.972 191.567 165.64 191.07Z" fill="white"/>
<path d="M123.051 161.904C122.388 161.241 121.559 160.91 120.565 161.075C119.074 161.241 117.914 162.733 118.245 164.39C119.902 174.167 125.371 183.282 133.325 189.082C134.651 190.076 136.308 189.745 137.302 188.419C138.297 187.093 137.965 185.436 136.64 184.442C129.845 179.304 125.205 171.681 123.714 163.395C123.714 162.898 123.548 162.235 123.051 161.904Z" fill="white"/>
</g>
<path d="M216.35 174.334C216.184 173.672 215.852 172.677 215.024 172.677C214.858 172.677 214.858 172.677 214.692 172.843C214.692 172.346 214.692 172.014 214.692 171.517C214.527 170.523 213.864 169.197 212.704 169.86C212.207 170.191 211.875 170.523 211.709 171.02C211.544 170.191 211.212 169.529 210.218 169.031C208.892 168.369 208.229 169.363 207.898 170.357C207.732 169.197 207.235 167.706 205.909 168.369C205.246 168.7 204.749 169.86 204.252 170.523C203.755 171.517 203.258 172.512 202.926 173.672C202.926 173.672 202.926 173.672 202.926 173.837C202.761 174.003 202.761 174.169 202.761 174.334C203.092 175.494 204.252 176.82 205.578 175.826C205.909 175.66 206.241 175.329 206.407 174.997C206.241 175.992 206.407 176.986 207.401 177.317C208.395 177.649 209.389 176.82 210.052 175.826C210.384 176.323 210.715 176.986 211.378 176.986C211.875 176.986 212.372 176.654 212.704 176.323C212.704 176.489 212.704 176.489 212.869 176.654C214.527 177.483 216.515 176.323 216.35 174.334Z" fill="#FFD2A7"/>
<path d="M285.785 192.895C285.619 190.575 285.288 188.421 285.288 190.078C285.288 192.232 282.802 193.392 282.802 191.072C282.802 188.255 282.471 185.272 283.299 182.621C284.128 179.638 290.425 176.323 291.917 174.003C292.58 173.009 298.048 177.318 297.882 178.312C297.551 181.461 293.408 182.621 293.242 183.118C293.408 184.609 293.574 185.272 293.905 186.598C294.237 188.255 292.082 190.078 291.751 188.421C291.585 187.426 291.088 187.592 291.419 189.084C291.751 191.072 289.265 192.729 288.934 190.907C288.768 190.078 288.437 189.746 288.602 190.907C288.768 193.227 285.951 195.215 285.785 192.895Z" fill="#FFD2A7"/>
<path d="M314.786 145.997C312.3 153.952 297.717 173.341 297.882 178.312C298.048 181.792 290.094 176.324 291.585 174.335C295.065 169.861 299.871 148.649 303.02 140.86C305.837 134.397 316.443 140.694 314.786 145.997Z" fill="#FFD2A7"/>
<path d="M70.5184 266.473L66.3755 276.416L72.507 279.565C72.0098 282.713 72.0098 285.862 72.507 289.01L66.3755 292.159L70.5184 302.102L76.9814 300.113C78.8043 302.765 80.9586 304.919 83.6101 306.908L81.4557 313.371L91.3988 317.514L94.5474 311.382C97.696 311.879 101.01 311.879 103.993 311.382L107.142 317.514L117.085 313.371L115.096 306.908C117.748 305.085 119.902 302.931 121.891 300.279L128.354 302.433L132.497 292.49L126.365 289.342C126.862 286.193 126.862 283.045 126.365 279.896L132.497 276.747L128.354 266.804L121.891 268.793C120.068 266.141 117.914 263.987 115.262 261.998L117.416 255.536L107.473 251.393L104.325 257.524C101.176 257.027 98.0275 257.027 94.8788 257.524L91.7302 251.393L81.7872 255.536L83.7758 261.998C81.1243 263.821 78.97 265.976 76.9814 268.627L70.5184 266.473ZM106.976 266.307C116.919 270.45 121.559 281.885 117.416 291.828C113.273 301.771 101.839 306.411 91.8959 302.268C81.9529 298.125 77.3128 286.69 81.4557 276.747C85.5987 266.97 97.0331 262.164 106.976 266.307Z" fill="#D3956A"/>
<path d="M74.6613 266.639L70.5184 276.582L76.6499 279.731C76.1528 282.879 76.1528 286.028 76.6499 289.176L70.5184 292.325L74.6613 302.268L81.1243 300.279C82.9472 302.931 85.1015 305.085 87.753 307.074L85.5987 313.537L95.5417 317.68L98.6903 311.548C101.839 312.045 105.153 312.045 108.136 311.548L111.285 317.68L121.228 313.537L119.239 307.074C121.891 305.251 124.045 303.097 126.034 300.445L132.497 302.6L136.64 292.656L130.508 289.508C131.005 286.359 131.005 283.211 130.508 280.062L136.64 276.913L132.497 266.97L126.034 268.959C124.211 266.307 122.056 264.153 119.405 262.164L121.559 255.702L111.616 251.559L108.468 257.69C105.319 257.193 102.17 257.193 99.0218 257.69L95.8731 251.559L85.9301 255.702L87.9187 262.164C85.2672 263.987 83.1129 266.142 81.1243 268.793L74.6613 266.639ZM111.285 266.639C121.228 270.782 125.868 282.216 121.725 292.159C117.582 302.102 106.148 306.742 96.2046 302.6C86.2615 298.457 81.6214 287.022 85.7644 277.079C89.9073 267.136 101.342 262.496 111.285 266.639Z" fill="url(#paint14_linear_180125_331765)"/>
<path d="M91.5645 251.227L95.8731 251.392L92.3931 252.718L91.5645 251.227Z" fill="#D3956A"/>
<path d="M107.473 251.227L111.616 251.392L110.953 252.718L107.473 251.227Z" fill="#D3956A"/>
<path d="M128.519 266.473L132.828 266.804L129.017 267.964L128.519 266.473Z" fill="#D3956A"/>
<path d="M128.519 302.268L132.662 302.433L128.851 301.273L128.519 302.268Z" fill="#D3956A"/>
<path d="M107.308 317.513L111.616 317.679L110.788 316.188L107.308 317.513Z" fill="#D3956A"/>
<path d="M95.7074 317.679L92.2273 316.188L91.5645 317.513L95.7074 317.679Z" fill="#D3956A"/>
<path d="M74.6613 302.433L74.1642 300.941L70.3527 302.101L74.6613 302.433Z" fill="#D3956A"/>
<path d="M70.5184 266.473L74.6613 266.638L74.3299 267.633L70.5184 266.473Z" fill="#D3956A"/>
<path d="M122.885 284.039L120.234 290.502L124.211 292.656C123.879 294.811 123.879 296.799 124.211 298.954L120.234 300.942L122.885 307.405L127.194 306.079C128.354 307.737 129.845 309.228 131.502 310.554L130.177 314.862L136.64 317.514L138.794 313.537C140.948 313.868 142.937 313.868 144.925 313.537L146.914 317.514L153.377 314.862L152.051 310.554C153.708 309.394 155.2 307.902 156.526 306.245L160.834 307.571L163.486 301.108L159.509 298.954C159.84 296.799 159.84 294.811 159.509 292.822L163.486 290.833L160.834 284.37L156.526 285.696C155.366 284.039 153.874 282.548 152.217 281.222L153.543 276.913L147.08 274.262L144.925 278.239C142.771 277.907 140.782 277.907 138.794 278.239L136.805 274.262L130.342 276.913L131.668 281.222C130.011 282.382 128.519 283.873 127.194 285.53L122.885 284.039ZM146.748 284.039C153.211 286.691 156.36 294.314 153.708 300.776C151.057 307.239 143.434 310.388 136.971 307.737C130.508 305.085 127.359 297.462 130.011 290.999C132.828 284.37 140.285 281.388 146.748 284.039Z" fill="#2F53A8"/>
<path d="M125.702 284.205L123.051 290.668L127.028 292.822C126.697 294.977 126.697 296.965 127.028 299.12L123.051 301.108L125.702 307.571L130.011 306.245C131.171 307.903 132.662 309.394 134.32 310.72L132.994 315.028L139.457 317.68L141.611 313.703C143.765 314.034 145.754 314.034 147.908 313.703L149.897 317.68L156.36 315.028L155.034 310.72C156.691 309.56 158.183 308.068 159.509 306.411L163.817 307.737L166.469 301.274L162.491 299.12C162.823 296.965 162.823 294.977 162.491 292.988L166.469 290.999L163.817 284.536L159.509 285.862C158.349 284.205 156.857 282.714 155.2 281.388L156.526 277.079L150.063 274.428L147.908 278.405C145.754 278.074 143.765 278.074 141.777 278.405L139.788 274.428L133.325 277.079L134.651 281.388C132.994 282.548 131.502 284.039 130.177 285.696L125.702 284.205ZM149.566 284.205C156.028 286.857 159.177 294.48 156.526 300.942C153.874 307.405 146.251 310.554 139.788 307.903C133.325 305.251 130.177 297.628 132.828 291.165C135.48 284.536 143.103 281.554 149.566 284.205Z" fill="url(#paint15_linear_180125_331765)"/>
<path d="M136.64 274.096L139.457 274.261L137.302 275.256L136.64 274.096Z" fill="#2F53A8"/>
<path d="M147.08 274.096L149.897 274.261L149.4 275.09L147.08 274.096Z" fill="#2F53A8"/>
<path d="M160.834 284.205L163.651 284.371L161.331 285.034L160.834 284.205Z" fill="#2F53A8"/>
<path d="M160.834 307.571L163.651 307.737L161.166 306.908L160.834 307.571Z" fill="#2F53A8"/>
<path d="M147.08 317.68H149.731L149.234 316.686L147.08 317.68Z" fill="#2F53A8"/>
<path d="M139.457 317.68L137.137 316.686L136.64 317.514L139.457 317.68Z" fill="#2F53A8"/>
<path d="M125.537 307.736L125.205 306.742L122.885 307.571L125.537 307.736Z" fill="#2F53A8"/>
<path d="M122.885 284.039L125.702 284.205L125.371 284.868L122.885 284.039Z" fill="#2F53A8"/>
<path d="M262.253 25.0234H170.446C166.137 25.0234 162.823 28.5035 162.823 32.6464V61.9784C162.823 66.287 166.303 69.6014 170.446 69.6014H242.201L253.802 83.5216C254.63 84.6816 256.453 84.0188 256.453 82.693L252.973 69.6014H262.253C266.562 69.6014 269.876 66.1213 269.876 61.9784V32.8121C269.876 28.5035 266.396 25.0234 262.253 25.0234Z" fill="url(#paint16_linear_180125_331765)"/>
<path d="M242.586 69.2813L242.436 69.1014H242.201H170.446C166.572 69.1014 163.323 66.0038 163.323 61.9784V32.6464C163.323 28.7725 166.42 25.5234 170.446 25.5234H262.253C266.113 25.5234 269.376 28.7726 269.376 32.8121V61.9784C269.376 65.8523 266.279 69.1014 262.253 69.1014H252.973H252.323L252.49 69.7298L255.951 82.7512C255.926 83.1332 255.656 83.4399 255.28 83.5651C254.895 83.6935 254.476 83.6049 254.209 83.231L254.198 83.2158L254.186 83.2015L242.586 69.2813Z" stroke="#096DD9" stroke-opacity="0.3"/>
<path d="M177.584 40.7812H182.887C183.974 40.7812 184.908 40.944 185.689 41.2695C186.477 41.5951 187.083 42.0768 187.506 42.7148C187.929 43.3529 188.141 44.1374 188.141 45.0684C188.141 45.8301 188.01 46.4844 187.75 47.0312C187.496 47.5716 187.135 48.0241 186.666 48.3887C186.204 48.7467 185.66 49.0332 185.035 49.248L184.107 49.7363H179.498L179.479 47.4512H182.906C183.421 47.4512 183.847 47.36 184.186 47.1777C184.524 46.9954 184.778 46.7415 184.947 46.416C185.123 46.0905 185.211 45.7129 185.211 45.2832C185.211 44.8275 185.126 44.4336 184.957 44.1016C184.788 43.7695 184.531 43.5156 184.186 43.3398C183.84 43.1641 183.408 43.0762 182.887 43.0762H180.514V55H177.584V40.7812ZM185.533 55L182.291 48.6621L185.387 48.6426L188.668 54.8633V55H185.533ZM200.938 52.7148V55H193.369V52.7148H200.938ZM194.326 40.7812V55H191.396V40.7812H194.326ZM199.951 46.5723V48.7988H193.369V46.5723H199.951ZM200.928 40.7812V43.0762H193.369V40.7812H200.928ZM209.184 49.9316H205.561V47.6465H209.184C209.743 47.6465 210.199 47.5553 210.551 47.373C210.902 47.1842 211.16 46.9238 211.322 46.5918C211.485 46.2598 211.566 45.8854 211.566 45.4688C211.566 45.0456 211.485 44.6517 211.322 44.2871C211.16 43.9225 210.902 43.6296 210.551 43.4082C210.199 43.1868 209.743 43.0762 209.184 43.0762H206.576V55H203.646V40.7812H209.184C210.297 40.7812 211.251 40.9831 212.045 41.3867C212.846 41.7839 213.458 42.334 213.881 43.0371C214.304 43.7402 214.516 44.5443 214.516 45.4492C214.516 46.3672 214.304 47.1615 213.881 47.832C213.458 48.5026 212.846 49.0202 212.045 49.3848C211.251 49.7493 210.297 49.9316 209.184 49.9316ZM229.217 47.5586V48.2324C229.217 49.3132 229.07 50.2832 228.777 51.1426C228.484 52.002 228.071 52.7344 227.537 53.3398C227.003 53.9388 226.365 54.3978 225.623 54.7168C224.887 55.0358 224.07 55.1953 223.172 55.1953C222.28 55.1953 221.463 55.0358 220.721 54.7168C219.985 54.3978 219.347 53.9388 218.807 53.3398C218.266 52.7344 217.846 52.002 217.547 51.1426C217.254 50.2832 217.107 49.3132 217.107 48.2324V47.5586C217.107 46.4714 217.254 45.5013 217.547 44.6484C217.84 43.7891 218.253 43.0566 218.787 42.4512C219.327 41.8457 219.965 41.3835 220.701 41.0645C221.443 40.7454 222.26 40.5859 223.152 40.5859C224.051 40.5859 224.868 40.7454 225.604 41.0645C226.346 41.3835 226.984 41.8457 227.518 42.4512C228.058 43.0566 228.475 43.7891 228.768 44.6484C229.067 45.5013 229.217 46.4714 229.217 47.5586ZM226.258 48.2324V47.5391C226.258 46.7839 226.189 46.1198 226.053 45.5469C225.916 44.974 225.714 44.4922 225.447 44.1016C225.18 43.7109 224.855 43.418 224.471 43.2227C224.087 43.0208 223.647 42.9199 223.152 42.9199C222.658 42.9199 222.218 43.0208 221.834 43.2227C221.456 43.418 221.134 43.7109 220.867 44.1016C220.607 44.4922 220.408 44.974 220.271 45.5469C220.135 46.1198 220.066 46.7839 220.066 47.5391V48.2324C220.066 48.9811 220.135 49.6452 220.271 50.2246C220.408 50.7975 220.61 51.2826 220.877 51.6797C221.144 52.0703 221.469 52.3665 221.854 52.5684C222.238 52.7702 222.677 52.8711 223.172 52.8711C223.667 52.8711 224.106 52.7702 224.49 52.5684C224.874 52.3665 225.197 52.0703 225.457 51.6797C225.717 51.2826 225.916 50.7975 226.053 50.2246C226.189 49.6452 226.258 48.9811 226.258 48.2324ZM232.326 40.7812H237.629C238.716 40.7812 239.65 40.944 240.432 41.2695C241.219 41.5951 241.825 42.0768 242.248 42.7148C242.671 43.3529 242.883 44.1374 242.883 45.0684C242.883 45.8301 242.753 46.4844 242.492 47.0312C242.238 47.5716 241.877 48.0241 241.408 48.3887C240.946 48.7467 240.402 49.0332 239.777 49.248L238.85 49.7363H234.24L234.221 47.4512H237.648C238.163 47.4512 238.589 47.36 238.928 47.1777C239.266 46.9954 239.52 46.7415 239.689 46.416C239.865 46.0905 239.953 45.7129 239.953 45.2832C239.953 44.8275 239.868 44.4336 239.699 44.1016C239.53 43.7695 239.273 43.5156 238.928 43.3398C238.583 43.1641 238.15 43.0762 237.629 43.0762H235.256V55H232.326V40.7812ZM240.275 55L237.033 48.6621L240.129 48.6426L243.41 54.8633V55H240.275ZM251.91 40.7812V55H248.99V40.7812H251.91ZM256.285 40.7812V43.0762H244.684V40.7812H256.285Z" fill="#F5222D"/>
<defs>
<linearGradient id="paint0_linear_180125_331765" x1="-26.4366" y1="216.424" x2="388.394" y2="103.074" gradientUnits="userSpaceOnUse">
<stop stop-color="white"/>
<stop offset="1" stop-color="#D3DBEB"/>
</linearGradient>
<linearGradient id="paint1_linear_180125_331765" x1="0.0885622" y1="158.873" x2="321.947" y2="158.873" gradientUnits="userSpaceOnUse">
<stop stop-color="white"/>
<stop offset="1" stop-color="#D3DBEB"/>
</linearGradient>
<linearGradient id="paint2_linear_180125_331765" x1="-55.7114" y1="109.289" x2="359.121" y2="-4.06215" gradientUnits="userSpaceOnUse">
<stop stop-color="white"/>
<stop offset="1" stop-color="#D3DBEB"/>
</linearGradient>
<linearGradient id="paint3_linear_180125_331765" x1="0.0885622" y1="158.873" x2="321.947" y2="158.873" gradientUnits="userSpaceOnUse">
<stop stop-color="white"/>
<stop offset="1" stop-color="#D3DBEB"/>
</linearGradient>
<linearGradient id="paint4_linear_180125_331765" x1="148.24" y1="60.1543" x2="148.24" y2="262.164" gradientUnits="userSpaceOnUse">
<stop stop-color="#6E8DCC"/>
<stop offset="1" stop-color="#6E8DCC"/>
</linearGradient>
<linearGradient id="paint5_linear_180125_331765" x1="41.8972" y1="240.432" x2="230.815" y2="99.5729" gradientUnits="userSpaceOnUse">
<stop stop-color="white"/>
<stop offset="1" stop-color="#D3DBEB"/>
</linearGradient>
<linearGradient id="paint6_linear_180125_331765" x1="57.8312" y1="197.107" x2="104.259" y2="197.107" gradientUnits="userSpaceOnUse">
<stop stop-color="#99B3E8"/>
<stop offset="1" stop-color="#5D7BC2"/>
</linearGradient>
<linearGradient id="paint7_linear_180125_331765" x1="14.9285" y1="248.847" x2="49.2173" y2="248.847" gradientUnits="userSpaceOnUse">
<stop stop-color="#B0C1E8"/>
<stop offset="1" stop-color="#97A4C2"/>
</linearGradient>
<linearGradient id="paint8_linear_180125_331765" x1="86.0549" y1="211.346" x2="86.0549" y2="248.167" gradientUnits="userSpaceOnUse">
<stop stop-color="#B7C7ED"/>
<stop offset="1" stop-color="#8AA3DC"/>
</linearGradient>
<linearGradient id="paint9_linear_180125_331765" x1="278.377" y1="195.261" x2="254.141" y2="112.817" gradientUnits="userSpaceOnUse">
<stop stop-color="#FFC64D"/>
<stop offset="1" stop-color="#FFA14D"/>
</linearGradient>
<linearGradient id="paint10_linear_180125_331765" x1="260.832" y1="123.794" x2="277.303" y2="123.794" gradientUnits="userSpaceOnUse">
<stop stop-color="white"/>
<stop offset="1" stop-color="#D3DBEB"/>
</linearGradient>
<linearGradient id="paint11_linear_180125_331765" x1="247.512" y1="99.1326" x2="299.116" y2="105.792" gradientUnits="userSpaceOnUse">
<stop offset="1.09e-06" stop-color="#FFE880"/>
<stop offset="1" stop-color="#FFBA80"/>
</linearGradient>
<linearGradient id="paint12_linear_180125_331765" x1="311.583" y1="185.501" x2="287.346" y2="103.056" gradientUnits="userSpaceOnUse">
<stop stop-color="#FFC64D"/>
<stop offset="1" stop-color="#FFA14D"/>
</linearGradient>
<linearGradient id="paint13_linear_180125_331765" x1="269.894" y1="156.81" x2="198.594" y2="175.321" gradientUnits="userSpaceOnUse">
<stop stop-color="#82A1E8"/>
<stop offset="1" stop-color="#5D7BC2"/>
</linearGradient>
<linearGradient id="paint14_linear_180125_331765" x1="70.2503" y1="282.916" x2="137.182" y2="286.22" gradientUnits="userSpaceOnUse">
<stop stop-color="#FFD780"/>
<stop offset="1" stop-color="#FFBC80"/>
</linearGradient>
<linearGradient id="paint15_linear_180125_331765" x1="122.903" y1="295.998" x2="166.402" y2="295.998" gradientUnits="userSpaceOnUse">
<stop stop-color="white"/>
<stop offset="1" stop-color="#D3DBEB"/>
</linearGradient>
<linearGradient id="paint16_linear_180125_331765" x1="216.35" y1="25.0234" x2="216.35" y2="84.1198" gradientUnits="userSpaceOnUse">
<stop stop-color="#B3C3FF"/>
<stop offset="1" stop-color="#C8D3FB"/>
</linearGradient>
</defs>
</svg>
