<svg width="350" height="321" viewBox="0 0 350 321" fill="none" xmlns="http://www.w3.org/2000/svg">
<path d="M295.663 101.933C256.722 90.082 223.03 73.3206 184.936 26.9306C146.842 -19.4594 44.581 -5.23765 14.783 64.3474C-15.015 133.932 6.48697 198.269 42.2107 210.12C77.9344 221.972 93.172 233.654 112.981 279.367C128.726 315.937 216.766 333.714 244.024 298.329C293.8 233.654 295.155 258.881 319.027 210.798C342.73 162.545 335.788 114.124 295.663 101.933Z" fill="url(#paint0_linear_180125_333051)"/>
<path d="M271.621 35.0576C245.209 5.09035 235.051 -3.8829 205.761 2.55075C176.471 8.8151 224.046 59.6071 272.637 84.6645C321.228 109.383 304.128 71.6278 271.621 35.0576Z" fill="url(#paint1_linear_180125_333051)"/>
<path d="M323.599 317.631H9.7041V320.001H323.599V317.631Z" fill="#C8E2FB"/>
<mask id="mask0_180125_333051" style="mask-type:luminance" maskUnits="userSpaceOnUse" x="0" y="0" width="333" height="318">
<path d="M295.663 101.933C256.722 90.082 223.03 73.3206 184.936 26.9306C146.842 -19.4594 44.581 -5.23765 14.783 64.3474C-15.015 133.932 6.48697 198.269 42.2107 210.12C77.9344 221.972 93.172 233.654 112.981 279.367C128.726 315.937 216.766 333.714 244.024 298.329C293.8 233.654 295.155 258.881 319.027 210.798C342.73 162.545 335.788 114.124 295.663 101.933Z" fill="white"/>
</mask>
<g mask="url(#mask0_180125_333051)">
<path d="M48.6439 92.6233V80.2639H69.2993V20.668H75.0557V80.2639H97.2349V92.6233H109.256V342.52H23.0786V92.6233H48.6439Z" fill="#C8E2FB"/>
<path d="M23.2875 317.576H35.1389L35.1389 92.737H23.2875L23.2875 317.576Z" fill="#D5DDFB"/>
<path d="M66.1483 342.617H152.156L152.156 152.317H66.1483L66.1483 342.617Z" fill="#C8E2FB"/>
<path d="M66.1759 342.617H78.0273L78.0273 152.317H66.1759L66.1759 342.617Z" fill="#D5DDFB"/>
<path d="M127.864 165.467H140.224V160.388H127.864V165.467Z" fill="#D5DDFB"/>
<path d="M107.104 165.467H119.464V160.388H107.104V165.467Z" fill="#D5DDFB"/>
<path d="M127.864 184.166H140.224V179.087H127.864V184.166Z" fill="#D5DDFB"/>
<path d="M107.104 184.166H119.464V179.087H107.104V184.166Z" fill="#D5DDFB"/>
<path d="M86.3437 184.166H98.7031V179.087H86.3437V184.166Z" fill="#D5DDFB"/>
<path d="M127.864 202.865H140.224V197.786H127.864V202.865Z" fill="#D5DDFB"/>
<path d="M86.3437 202.865H98.7031V197.786H86.3437V202.865Z" fill="#D5DDFB"/>
<path d="M107.104 212.047H119.464V206.968H107.104V212.047Z" fill="#D5DDFB"/>
<path d="M127.864 221.396H140.224V216.317H127.864V221.396Z" fill="#D5DDFB"/>
<path d="M107.104 230.748H119.464V225.669H107.104V230.748Z" fill="#D5DDFB"/>
<path d="M127.864 240.096H140.224V235.017H127.864V240.096Z" fill="#D5DDFB"/>
<path d="M86.3437 240.096H98.7031V235.017H86.3437V240.096Z" fill="#D5DDFB"/>
<path d="M127.864 257.32H140.224V252.241H127.864V257.32Z" fill="#D5DDFB"/>
<path d="M107.104 257.32H119.464V252.241H107.104V257.32Z" fill="#D5DDFB"/>
<path d="M127.864 276.021H140.224V270.942H127.864V276.021Z" fill="#D5DDFB"/>
<path d="M107.104 276.021H119.464V270.942H107.104V276.021Z" fill="#D5DDFB"/>
<path d="M86.3437 276.021H98.7031V270.942H86.3437V276.021Z" fill="#D5DDFB"/>
<path d="M127.864 294.721H140.224V289.642H127.864V294.721Z" fill="#D5DDFB"/>
<path d="M86.3437 294.721H98.7031V289.642H86.3437V294.721Z" fill="#D5DDFB"/>
<path d="M107.104 304.072H119.464V298.993H107.104V304.072Z" fill="#D5DDFB"/>
<path d="M86.3437 304.072H98.7031V298.993H86.3437V304.072Z" fill="#D5DDFB"/>
<path d="M127.864 313.424H140.224V308.345H127.864V313.424Z" fill="#D5DDFB"/>
<path d="M272.111 342.617H358.119V152.317H272.111V342.617Z" fill="#C8E2FB"/>
<path d="M272.139 342.617H283.99V152.317H272.139V342.617Z" fill="#D5DDFB"/>
<path d="M149.792 342.646H265.259L265.259 61.7668H149.792L149.792 342.646Z" fill="#C8E2FB"/>
<path d="M149.87 342.646H161.721L161.721 61.7668H149.87L149.87 342.646Z" fill="#D5DDFB"/>
<path d="M235.093 82.5801H253.209V75.1306H235.093V82.5801Z" fill="#D5DDFB"/>
<path d="M204.674 82.5801H222.79V75.1306H204.674V82.5801Z" fill="#D5DDFB"/>
<path d="M235.093 109.826H253.209V102.377H235.093V109.826Z" fill="#D5DDFB"/>
<path d="M204.674 109.826H222.79V102.377H204.674V109.826Z" fill="#D5DDFB"/>
<path d="M174.253 109.826H192.369V102.377H174.253V109.826Z" fill="#D5DDFB"/>
<path d="M235.093 137.068H253.209V129.619H235.093V137.068Z" fill="#D5DDFB"/>
<path d="M174.253 137.068H192.369V129.619H174.253V137.068Z" fill="#D5DDFB"/>
<path d="M204.674 150.777H222.79V143.328H204.674V150.777Z" fill="#D5DDFB"/>
<path d="M235.093 164.314H253.209V156.865H235.093V164.314Z" fill="#D5DDFB"/>
<path d="M204.674 178.021H222.79V170.572H204.674V178.021Z" fill="#D5DDFB"/>
<path d="M235.093 191.564H253.209V184.115H235.093V191.564Z" fill="#D5DDFB"/>
<path d="M174.253 191.564H192.369V184.115H174.253V191.564Z" fill="#D5DDFB"/>
<path d="M235.093 216.869H253.209V209.42H235.093V216.869Z" fill="#D5DDFB"/>
<path d="M204.674 216.869H222.79V209.42H204.674V216.869Z" fill="#D5DDFB"/>
<path d="M235.093 244.117H253.209V236.668H235.093V244.117Z" fill="#D5DDFB"/>
<path d="M204.674 244.117H222.79V236.668H204.674V244.117Z" fill="#D5DDFB"/>
<path d="M174.253 244.117H192.369V236.668H174.253V244.117Z" fill="#D5DDFB"/>
<path d="M235.093 271.365H253.209V263.916H235.093V271.365Z" fill="#D5DDFB"/>
<path d="M174.253 271.365H192.369V263.916H174.253V271.365Z" fill="#D5DDFB"/>
<path d="M204.674 284.904H222.79V277.455H204.674V284.904Z" fill="#D5DDFB"/>
<path d="M174.253 284.904H192.369V277.455H174.253V284.904Z" fill="#D5DDFB"/>
<path d="M235.093 298.609H253.209V291.16H235.093V298.609Z" fill="#D5DDFB"/>
<path d="M204.674 312.15H222.79V304.701H204.674V312.15Z" fill="#D5DDFB"/>
<path d="M331.461 342.588H444.558L444.558 82.5329H331.461V342.588Z" fill="#C8E2FB"/>
<path d="M331.395 342.588H343.078L343.078 82.5329H331.395L331.395 342.588Z" fill="#D5DDFB"/>
<path d="M-34.4936 342.621H38.4775L38.4775 165.357H-34.4936L-34.4936 342.621Z" fill="#C8E2FB"/>
<path d="M19.445 178.545H30.7886V173.804H19.445V178.545Z" fill="#D5DDFB"/>
<path d="M0.414031 178.545H11.7576V173.804H0.414031V178.545Z" fill="#D5DDFB"/>
<path d="M19.445 195.682H30.7886V190.941H19.445V195.682Z" fill="#D5DDFB"/>
<path d="M0.414031 195.682H11.7576V190.941H0.414031V195.682Z" fill="#D5DDFB"/>
<path d="M19.445 212.818H30.7886V208.078H19.445V212.818Z" fill="#D5DDFB"/>
<path d="M0.414031 221.557H11.7576V216.816H0.414031V221.557Z" fill="#D5DDFB"/>
<path d="M19.445 230.119H30.7886V225.379H19.445V230.119Z" fill="#D5DDFB"/>
<path d="M0.414031 238.691H11.7576V233.951H0.414031V238.691Z" fill="#D5DDFB"/>
<path d="M19.445 247.254H30.7886V242.513H19.445V247.254Z" fill="#D5DDFB"/>
<path d="M19.445 263.133H30.7886V258.392H19.445V263.133Z" fill="#D5DDFB"/>
<path d="M0.414031 263.133H11.7576V258.392H0.414031V263.133Z" fill="#D5DDFB"/>
<path d="M19.445 280.439H30.7886V275.699H19.445V280.439Z" fill="#D5DDFB"/>
<path d="M0.414031 280.439H11.7576V275.699H0.414031V280.439Z" fill="#D5DDFB"/>
<path d="M19.445 297.576H30.7886V292.836H19.445V297.576Z" fill="#D5DDFB"/>
<path d="M0.414031 306.143H11.7576V301.402H0.414031V306.143Z" fill="#D5DDFB"/>
<path d="M19.445 314.883H30.7886V310.142H19.445V314.883Z" fill="#D5DDFB"/>
<path opacity="0.35" d="M226.754 -24.5332H-82.2302V327.625H226.754V-24.5332Z" fill="white"/>
<path opacity="0.5" d="M26.2952 321.361H2.25366L130.927 -20.4688H154.799L26.2952 321.361Z" fill="white"/>
<path opacity="0.5" d="M-16.0312 321.361H-28.052L100.452 -20.4688H112.472L-16.0312 321.361Z" fill="white"/>
<path opacity="0.5" d="M127.033 321.36H115.182L225.231 16.2695V40.819L127.033 321.36Z" fill="white"/>
<path opacity="0.35" d="M539.464 -31.4746H230.479V320.683H539.464V-31.4746Z" fill="white"/>
<path opacity="0.5" d="M281.61 321.359H257.568L386.072 -20.4707H410.114L281.61 321.359Z" fill="white"/>
<path opacity="0.5" d="M239.283 321.359H227.263L355.766 -20.4707H367.787L239.283 321.359Z" fill="white"/>
<path d="M552.331 38.9537V34.8904H541.157V-28.5996H232.172H225.4H-83.415V-20.4729H-76.6428V-17.5947H122.631V35.0597H-83.415V39.123H122.462V142.569H-83.415V146.633H122.462V250.079H-83.415V254.142H122.462V321.526H-76.6428V323.897H-83.415V333.209H225.57H232.342H541.326V332.531V254.312H552.501V250.248H541.326V146.802H552.501V142.739H541.326V38.9537H552.331ZM232.342 146.463H328.508V249.91H232.342V146.463ZM232.342 142.4V38.9537H328.508V142.4H232.342ZM232.342 35.0597V-17.5947H328.508V35.0597H232.342ZM232.342 253.973H328.508V321.357H232.342V323.727V253.973ZM335.28 321.357V253.973H431.446V321.357H335.28ZM335.28 249.91V146.463H431.446V249.91H335.28ZM335.28 142.4V38.9537H431.446V142.4H335.28ZM335.28 35.0597V-17.5947H431.446V35.0597H335.28ZM438.219 -17.5947H534.385V35.0597H438.219V-17.5947ZM129.234 -17.5947H225.4V35.0597H129.234V-17.5947ZM129.234 38.9537H225.4V142.4H129.234V38.9537ZM129.234 146.463H225.4V249.91H129.234V146.463ZM129.234 253.973H225.4V323.727V321.357H129.234V253.973ZM534.385 323.727V321.357H438.219V253.973H534.385V323.727ZM534.385 249.91H438.219V146.463H534.385V249.91ZM534.385 142.4H438.219V38.9537H534.385V142.4Z" fill="url(#paint2_linear_180125_333051)"/>
</g>
<path d="M183.244 278.013C183.244 285.293 177.318 291.219 170.038 291.219H44.7511C37.4709 291.219 31.5452 285.293 31.5452 278.013V30.8251C31.5452 23.5449 37.4709 17.6191 44.7511 17.6191H170.038C177.318 17.6191 183.244 23.5449 183.244 30.8251V278.013Z" fill="#C8E2FB"/>
<path d="M31.376 4.75195L124.156 5.25987V17.2806L77.2581 17.4499L43.7354 17.6193C32.3918 17.6193 23.2493 26.7618 23.4186 38.1054L23.9265 270.902C23.9265 282.246 33.0691 291.388 44.4126 291.219L124.833 291.388V316.615L32.0532 317.461C20.7097 317.461 11.5671 308.319 11.5671 297.145L10.8899 25.2381C10.8899 13.8945 20.0325 4.75195 31.376 4.75195Z" fill="#5167A8"/>
<path d="M19.3552 25.0701V297.146C19.3552 307.981 27.8206 316.785 38.3176 317.463C38.8255 317.463 39.1641 317.463 39.672 317.463H182.228C189.508 317.463 195.434 311.537 195.434 304.257V17.7899C195.434 10.5097 189.508 4.58398 182.228 4.58398H39.672C39.1641 4.58398 38.6562 4.58398 38.3176 4.58398C27.6512 5.43052 19.3552 14.2345 19.3552 25.0701ZM31.5453 30.6572C31.5453 23.377 37.471 17.4513 44.7512 17.4513H170.038C177.318 17.4513 183.244 23.377 183.244 30.6572V277.845C183.244 285.125 177.318 291.051 170.038 291.051H44.7512C37.471 291.051 31.5453 285.125 31.5453 277.845V30.6572Z" fill="url(#paint3_linear_180125_333051)"/>
<path d="M90.8027 310.523H124.833C128.219 310.523 130.928 307.815 130.928 304.259C130.928 300.873 128.219 298.164 124.664 298.164H90.6334C87.2472 298.164 84.5383 300.873 84.5383 304.428C84.5383 307.645 87.2472 310.523 90.8027 310.523Z" fill="#5D7BC2"/>
<path d="M321.228 168.301C321.228 167.962 320.889 167.793 320.551 167.793C313.609 167.962 305.144 167.962 299.218 172.195C293.8 176.089 292.954 183.2 293.123 189.295C293.123 189.972 293.8 190.141 294.308 189.803C308.699 195.221 323.26 183.369 321.228 168.301Z" fill="#99BAE8"/>
<path d="M287.875 196.409C287.875 191.668 286.859 186.758 283.134 183.541C278.901 179.816 272.806 177.616 267.896 174.907C267.388 174.568 266.542 175.076 266.88 175.753C269.081 181.51 268.743 188.451 272.806 193.53C276.192 197.763 281.949 199.117 287.028 197.594C287.367 197.594 287.367 197.424 287.536 197.086C287.705 196.916 287.875 196.747 287.875 196.409Z" fill="#99BAE8"/>
<path d="M332.403 211.983C329.016 209.443 324.614 209.613 320.551 209.782C315.98 209.951 311.409 210.628 307.345 212.66C300.234 216.046 295.155 223.665 297.695 231.622C297.695 231.961 297.695 232.3 298.203 232.469C304.975 234.67 308.361 230.099 312.424 225.527C317.673 219.771 324.445 215.538 332.064 213.168C332.403 212.999 332.741 212.322 332.403 211.983Z" fill="#99BAE8"/>
<path d="M348.656 228.911C348.486 228.911 348.486 228.911 348.317 228.741C345.439 227.556 342.73 225.186 340.19 222.816C337.312 220.276 334.265 217.906 330.879 217.398C330.879 217.398 330.879 217.398 330.709 217.398C329.185 217.059 327.492 217.229 325.63 217.906C318.35 220.276 313.779 228.064 313.101 235.344C313.101 235.514 313.101 235.683 313.271 235.852C313.271 235.852 313.271 235.852 313.271 236.022C313.101 236.36 313.44 237.037 313.948 237.037C320.212 237.715 326.477 237.037 332.572 235.683C337.989 234.498 344.254 233.651 348.994 230.434C349.502 229.927 349.333 229.249 348.656 228.911Z" fill="#99BAE8"/>
<path d="M337.821 243.136C329.863 241.612 313.271 237.38 312.086 250.247C312.086 250.586 312.255 250.924 312.594 250.924C319.874 259.39 334.096 252.617 338.159 244.152C338.498 243.813 338.328 243.136 337.821 243.136Z" fill="#99BAE8"/>
<path d="M287.028 217.399C284.827 212.658 279.918 207.748 275.008 206.055C274.5 205.886 274.161 206.394 274.161 206.732C274.161 216.044 271.96 230.605 282.119 235.684H282.288C282.626 236.022 283.134 236.192 283.473 235.684C286.521 230.266 289.907 223.663 287.028 217.399Z" fill="#99BAE8"/>
<path d="M260.616 223.154C255.706 219.091 247.918 218.244 242.162 221.122C234.205 225.186 235.559 234.667 234.374 242.116C234.205 242.794 235.051 243.302 235.559 242.794C243.347 235.852 254.352 233.143 260.447 224.17C260.955 224.17 261.124 223.662 260.616 223.154Z" fill="#99BAE8"/>
<path d="M260.786 230.607C260.617 230.269 260.109 230.269 259.939 230.269C259.77 229.93 259.431 229.93 259.093 230.099C255.199 232.3 250.458 235.348 249.781 240.089C248.934 245.845 251.982 251.263 252.49 256.85C252.49 257.696 253.675 257.866 253.844 257.019C254.86 251.601 260.447 249.231 262.479 244.321C264.003 240.427 262.987 234.163 260.786 230.607Z" fill="#99BAE8"/>
<path d="M284.996 263.622C280.425 257.188 275.685 251.601 267.558 249.569C267.05 249.4 266.373 250.077 266.711 250.585C268.574 253.294 268.404 256.342 269.928 259.22C270.775 260.913 272.298 262.098 273.822 263.114C277.208 265.315 281.61 267.177 285.504 264.976C286.351 264.468 285.843 263.283 284.996 263.622Z" fill="#99BAE8"/>
<path d="M295.493 255.833V255.664C292.276 250.585 292.107 244.151 287.705 239.749C287.367 239.41 286.859 239.58 286.52 239.918C284.319 243.304 283.303 247.537 284.996 251.431C286.859 255.664 290.753 256.68 294.985 257.188C295.832 257.188 295.832 256.341 295.493 255.833Z" fill="#99BAE8"/>
<path d="M304.467 199.112C303.62 198.435 302.266 199.112 301.419 199.451C299.726 200.128 298.033 200.974 296.679 202.16C293.97 204.191 292.107 207.069 291.938 210.625C291.938 210.794 291.938 210.794 291.938 210.964C291.938 211.133 291.938 211.133 291.938 211.302C291.938 212.149 293.123 212.149 293.292 211.641C296.848 210.794 299.557 208.593 301.927 205.884C302.774 204.361 306.498 200.805 304.467 199.112Z" fill="#99BAE8"/>
<path d="M305.99 256.51C305.821 256.341 305.821 256.341 305.652 256.171C306.498 249.907 307.006 242.796 300.911 239.071C300.573 238.902 299.895 239.071 299.895 239.579C298.202 246.182 300.065 252.954 305.144 257.526C305.652 258.203 306.668 257.187 305.99 256.51Z" fill="#99BAE8"/>
<path d="M348.148 228.238C345.439 227.053 342.899 225.021 340.36 222.989C337.482 220.619 334.434 218.418 331.048 217.572C331.048 217.572 331.048 217.572 330.879 217.572C329.355 217.233 327.662 217.402 325.799 218.08C318.519 220.45 313.948 228.238 313.271 235.518C313.271 235.687 313.271 235.857 313.44 236.026C313.44 236.026 313.44 236.026 313.44 236.195C313.609 236.195 313.948 236.026 314.117 235.857C314.287 235.857 314.456 235.857 314.456 235.687C316.826 233.148 319.366 230.778 321.905 228.407C323.091 227.222 324.276 225.698 325.63 224.852C328.508 222.82 331.048 223.159 334.095 224.005C337.82 225.021 341.037 226.884 344.423 228.746C345.608 229.423 346.793 230.608 348.317 229.931C348.487 229.762 348.656 229.592 348.656 229.254C348.487 228.577 348.317 228.407 348.148 228.238Z" fill="#99BAE8"/>
<path d="M283.642 252.785C282.965 249.907 282.118 247.028 281.272 244.319C282.626 239.917 283.134 235.346 282.796 230.775C282.965 230.775 283.304 230.606 283.304 230.267C284.15 227.558 284.489 224.849 284.319 222.14C284.319 221.124 282.796 221.124 282.796 222.14C282.965 224.003 282.796 226.034 282.288 227.897C281.949 225.696 281.61 223.664 280.933 221.463C280.595 220.616 279.24 220.955 279.579 221.802C281.61 228.574 281.78 235.346 280.256 242.118C278.902 238.732 277.209 235.346 274.838 232.468C269.42 225.526 259.601 221.294 251.813 224.68C251.813 224.341 251.643 224.172 251.305 224.003C248.257 223.325 245.21 223.664 242.67 225.357C241.823 225.865 242.67 227.05 243.347 226.542C245.548 225.188 247.918 224.849 250.289 225.188C248.426 226.204 246.903 227.727 245.379 229.59C244.871 230.436 246.056 231.113 246.564 230.267C250.289 225.188 257.061 223.495 262.987 225.357C264.68 225.865 266.373 226.712 267.727 227.727C261.463 227.558 256.892 231.791 252.659 235.854C251.982 236.531 252.998 237.547 253.675 236.87C254.521 236.023 255.368 235.177 256.215 234.5C256.045 236.023 255.876 237.378 256.045 238.902C256.215 239.748 257.569 239.748 257.569 238.902C257.4 237.039 257.569 235.177 257.908 233.314C257.908 233.145 257.908 233.145 257.908 232.976C260.955 230.606 264.341 228.912 268.405 229.251C268.743 229.251 269.082 229.082 269.082 228.743C272.299 231.283 275.008 234.838 276.87 238.563C280.595 246.012 282.796 254.478 283.981 262.943C280.933 262.097 278.394 260.573 276.193 258.203C275.515 257.525 274.5 258.541 275.177 259.218C276.193 260.404 277.378 261.419 278.732 262.266C277.886 262.266 277.039 262.266 276.193 262.097C275.346 261.927 274.838 263.282 275.854 263.451C277.209 263.62 278.563 263.79 280.087 263.62C280.425 263.62 280.595 263.451 280.764 263.282C281.78 263.79 282.965 264.128 284.15 264.467H284.319C284.827 268.53 285.166 272.763 285.335 276.657C285.335 277.673 286.859 277.673 286.859 276.657C286.69 268.7 285.674 260.573 283.642 252.785Z" fill="#312890"/>
<path d="M307.853 222.816C306.499 223.832 305.314 224.848 304.128 225.864C304.806 223.324 305.991 220.954 307.515 218.753C308.022 217.907 306.837 217.229 306.329 218.076C304.467 220.785 303.113 223.832 302.435 227.049C302.435 227.218 302.435 227.388 302.605 227.557C299.388 230.774 296.679 234.329 294.309 238.393C293.97 233.313 293.631 228.404 293.293 223.324C293.123 219.769 292.785 215.706 292.785 211.642C294.478 209.441 296.171 207.071 298.88 205.886C299.726 205.547 299.049 204.193 298.203 204.701C296.002 205.716 294.309 207.41 292.785 209.272C292.785 207.41 292.785 205.378 292.954 203.515C293.124 203.346 293.124 203.008 292.954 202.838C293.631 192.511 296.848 182.86 306.668 178.289C307.515 177.95 306.837 176.596 305.991 177.104C303.451 178.289 301.42 179.643 299.726 181.506C299.726 180.151 299.896 178.627 300.404 177.442C300.742 176.596 299.388 176.257 299.049 177.104C298.372 178.966 298.203 180.998 298.541 183.029C294.309 187.939 292.616 194.712 291.938 201.653C289.907 199.283 287.706 196.743 285.674 194.373C285.843 194.204 286.013 194.034 286.013 193.696C285.843 191.664 285.166 189.802 283.981 188.109C283.473 187.431 282.119 188.109 282.796 188.786C283.642 189.971 284.15 191.325 284.489 192.849C283.642 192.003 282.965 190.987 282.119 190.14C281.441 189.463 280.426 190.479 281.103 191.156C284.658 195.389 288.214 199.452 291.938 203.685C291.769 206.224 291.769 208.764 291.769 211.304C291.769 211.304 291.769 211.473 291.6 211.473C291.43 211.811 291.43 212.15 291.769 212.319C291.769 214.69 291.938 217.229 291.938 219.43C292.446 231.112 293.293 242.625 294.478 254.138C291.938 252.614 290.415 249.905 289.06 247.366C288.722 246.519 287.367 247.197 287.875 248.043C289.399 251.091 291.092 254.138 294.309 255.662C294.478 255.662 294.647 255.662 294.647 255.662C295.494 263.111 296.51 270.392 297.695 277.841C297.864 278.688 299.219 278.349 299.049 277.502C297.187 265.482 295.663 253.292 294.647 241.102C294.817 241.102 294.986 240.932 294.986 240.763C298.372 234.329 302.943 228.911 308.869 224.679C309.377 223.494 308.53 222.308 307.853 222.816Z" fill="#312890"/>
<path d="M331.894 224.001C328.847 224.001 325.969 224.678 323.429 225.863C324.445 224.678 325.63 223.662 326.985 222.646C327.662 222.138 326.985 220.784 326.307 221.461C323.937 223.324 321.736 225.525 319.874 228.064C319.874 228.233 319.704 228.233 319.704 228.403C314.795 232.297 311.07 238.223 308.869 243.81C307.514 247.196 306.498 250.751 305.652 254.307C304.805 252.952 304.467 251.428 303.959 249.905C303.62 248.72 303.112 247.534 302.097 246.857C301.25 246.349 300.573 247.534 301.419 248.042C302.604 248.72 302.943 250.921 303.282 252.106C303.62 253.291 304.128 254.476 304.805 255.492C304.975 255.661 305.144 255.83 305.313 255.83C303.62 264.634 303.112 273.777 302.266 282.581C302.097 283.427 303.62 283.427 303.79 282.581C304.636 274.454 305.144 265.989 306.498 257.862C306.668 257.862 306.668 257.693 306.837 257.693C309.546 254.645 312.424 251.598 315.98 249.566C316.995 250.582 318.181 251.259 319.535 251.767C320.382 252.106 320.89 250.582 319.874 250.413C318.858 250.074 318.011 249.566 317.165 248.889C318.181 248.381 319.196 247.873 320.212 247.704C321.059 247.365 320.72 246.011 319.874 246.349C318.519 246.688 317.165 247.365 315.98 248.042C315.81 248.042 315.641 248.212 315.472 248.381C312.255 250.243 309.715 252.783 307.176 255.492C307.684 253.122 308.192 250.921 308.869 248.72C310.223 244.148 312.424 239.238 315.641 235.006C317.334 234.498 319.027 233.99 320.72 233.821C321.567 233.651 321.228 232.297 320.382 232.466C319.366 232.635 318.181 232.805 317.165 233.143C320.89 228.741 325.799 225.694 331.894 225.863C332.91 225.525 332.91 224.001 331.894 224.001Z" fill="#312890"/>
<path d="M319.704 269.377L318.519 276.488L316.487 289.524L311.916 317.629H278.901L274.33 289.524L272.298 276.488L271.113 269.377H319.704Z" fill="#C8E2FB"/>
<path opacity="0.3" d="M284.996 276.488L283.811 269.377H271.113L272.298 276.488L274.33 289.524L278.901 317.629H291.599L287.028 289.524L284.996 276.488Z" fill="#5167A8"/>
<path opacity="0.64" d="M308.191 315.258C308.022 315.258 308.022 315.258 308.191 315.258C307.175 315.258 306.498 314.75 306.668 314.242L312.424 271.407C312.424 270.899 313.271 270.391 314.117 270.561C314.964 270.561 315.641 271.068 315.471 271.576L309.715 314.411C309.546 314.919 308.869 315.258 308.191 315.258Z" fill="white"/>
<path d="M162.926 129.865H155.477V318.303H162.926V129.865Z" fill="#5D7BC2"/>
<path d="M208.808 36.4121H109.425V135.795H208.808V36.4121Z" fill="url(#paint4_linear_180125_333051)"/>
<path d="M200.174 44.707H118.399V126.482H200.174V44.707Z" fill="white"/>
<path d="M133.077 74.1992V98.2725H127.687V74.1992H133.077ZM142.551 84.351V88.5175H131.572V84.351H142.551ZM143.609 74.1992V78.3823H131.572V74.1992H143.609Z" fill="#F5222D"/>
<path d="M153.81 78.7791L147.593 98.2725H141.839L150.751 74.1992H154.388L153.81 78.7791ZM158.968 98.2725L152.735 78.7791L152.09 74.1992H155.777L164.722 98.2725H158.968ZM158.704 89.3112V93.4777H146.154V89.3112H158.704Z" fill="#F5222D"/>
<path d="M173.137 74.1992V98.2725H167.763V74.1992H173.137Z" fill="#F5222D"/>
<path d="M193.87 94.106V98.2725H181.717V94.106H193.87ZM183.553 74.1992V98.2725H178.163V74.1992H183.553Z" fill="#F5222D"/>
<path d="M92.1563 129.863H84.7068V318.302H92.1563V129.863Z" fill="#5D7BC2"/>
<path d="M126.525 165.589H50.5066C45.2581 165.589 41.872 160.002 44.2423 155.262L82.167 79.243C84.7066 73.9945 92.3254 73.9945 94.865 79.243L132.79 155.262C135.16 160.002 131.774 165.589 126.525 165.589Z" fill="#D4380D"/>
<path d="M121.615 160.849H55.4165C50.8453 160.849 47.7977 155.939 49.8294 151.875L83.0135 85.6765C85.2145 81.1052 91.8175 81.1052 94.0185 85.6765L127.203 151.875C129.234 156.108 126.187 160.849 121.615 160.849Z" fill="url(#paint5_linear_180125_333051)"/>
<path d="M86.7386 116.155L85.2148 100.579V93.2988H91.6485V100.579L90.1247 116.155H86.7386ZM85.5535 124.113V118.187H91.4792V124.113H85.5535Z" fill="white"/>
<path d="M73.0248 153.234V149.001H64.3901V145.446L73.5327 132.07H76.9188V145.446H79.6277V149.001H76.9188V153.234H73.0248ZM73.0248 145.276V137.996L68.1149 145.276H73.0248Z" fill="white"/>
<path d="M88.4317 131.902C90.4634 131.902 92.1564 132.58 93.1723 134.103C94.5267 135.796 95.204 138.675 95.204 142.738C95.204 146.801 94.5267 149.68 93.1723 151.373C91.9871 152.896 90.4634 153.574 88.4317 153.574C86.4 153.574 84.7069 152.727 83.5218 151.203C82.3366 149.68 81.6594 146.801 81.6594 142.738C81.6594 138.675 82.3366 135.966 83.6911 134.103C84.7069 132.58 86.4 131.902 88.4317 131.902ZM88.4317 135.288C87.9238 135.288 87.5852 135.458 87.0772 135.796C86.7386 136.135 86.4 136.643 86.2307 137.489C85.8921 138.505 85.8921 140.368 85.8921 142.738C85.8921 145.278 86.0614 146.971 86.2307 147.817C86.4 148.664 86.7386 149.341 87.2465 149.68C87.5852 150.018 88.0931 150.187 88.601 150.187C89.1089 150.187 89.4475 150.018 89.9555 149.68C90.2941 149.341 90.6327 148.833 90.802 147.986C91.1406 146.971 91.1406 145.108 91.1406 142.738C91.1406 140.198 90.9713 138.505 90.802 137.659C90.6327 136.812 90.2941 136.135 89.7861 135.796C89.2782 135.458 88.9396 135.288 88.4317 135.288Z" fill="white"/>
<path d="M106.039 153.234V149.001H97.4048V145.446L106.547 132.07H109.933V145.446H112.642V149.001H109.933V153.234H106.039ZM106.039 145.276V137.996L101.13 145.276H106.039Z" fill="white"/>
<path d="M235.811 156.441C235.297 156.826 234.912 156.954 234.655 156.826C234.013 156.441 232.857 155.798 231.573 154.899C229.775 153.743 227.591 152.074 225.279 150.276C223.481 148.863 221.683 147.45 219.885 145.909C213.72 140.9 207.94 135.762 206.913 134.221C204.215 130.239 205.885 124.203 209.995 124.716C213.463 125.23 237.738 141.542 239.408 143.725C242.618 148.092 238.252 154.771 235.811 156.441Z" fill="#FFA64D"/>
<path d="M206.399 126.514C207.169 125.358 208.325 124.588 209.867 124.844C213.334 125.358 237.609 141.67 239.279 143.853C240.307 145.138 241.077 147.963 240.563 150.018C222.71 135.762 208.711 123.432 206.399 126.514Z" fill="#FA9B3C"/>
<path d="M296.049 311.85C290.783 310.051 288.857 301.446 287.829 296.822L282.049 299.006C282.049 299.006 284.233 307.483 283.591 312.749C282.948 318.143 284.49 317.629 284.49 317.629H302.728C302.728 317.629 301.315 313.519 296.049 311.85Z" fill="#FFD2A7"/>
<path d="M296.049 311.85C294.508 311.336 293.223 310.18 292.067 308.639C291.425 307.612 287.7 308.768 286.93 310.823C286.93 310.823 285.389 311.85 283.719 311.722C283.719 312.107 283.719 312.492 283.59 312.749C282.948 318.144 284.489 317.63 284.489 317.63H302.728C302.728 317.63 301.315 313.52 296.049 311.85Z" fill="#5167A8"/>
<path d="M219.756 312.236C229.389 312.236 230.674 306.713 229.775 300.805H236.197C236.068 303.373 236.197 307.483 236.839 311.208C237.866 316.731 235.169 317.63 235.169 317.63H211.793C211.793 317.63 215.261 312.236 219.756 312.236Z" fill="#FFD2A7"/>
<path d="M229.004 312.622C228.105 311.209 230.802 308.64 228.747 308.512C227.334 310.695 224.637 312.236 219.628 312.236C215.133 312.236 211.793 317.631 211.793 317.631H235.169C235.169 317.631 237.738 316.732 236.967 311.723C234.527 311.723 230.288 314.677 229.004 312.622Z" fill="#5167A8"/>
<path d="M230.288 241.98C230.931 232.091 243.261 245.834 243.132 248.402C243.004 251.742 242.875 253.283 243.261 264.714C243.518 276.274 241.463 282.053 239.536 287.448C237.609 292.842 237.738 304.787 237.738 304.787C231.059 305.429 228.105 303.631 228.105 303.631C228.105 303.631 229.261 286.163 228.747 276.274C228.362 266.384 230.16 244.292 230.288 241.98Z" fill="#66738D"/>
<path d="M235.555 304.917C235.555 301.064 235.94 292.843 237.353 288.477C239.279 282.825 238.509 271.266 238.252 258.936C237.995 246.606 240.821 250.33 240.949 246.734C240.949 245.578 239.023 242.624 236.711 240.184C239.922 242.624 243.261 246.991 243.133 248.275C243.004 251.615 242.876 253.156 243.261 264.587C243.518 276.146 241.463 281.926 239.536 287.321C237.61 292.715 237.738 304.66 237.738 304.66C236.968 304.917 236.197 304.917 235.555 304.917Z" fill="#566482"/>
<path d="M228.876 211.795C229.261 224.896 230.802 241.979 230.16 250.199C229.646 257.52 234.399 260.217 238.252 259.189C240.435 258.547 242.233 256.749 242.619 254.052C242.619 253.923 242.619 253.795 242.619 253.667C242.619 253.538 242.619 253.41 242.619 253.281C242.619 253.024 242.619 252.767 242.619 252.511C243.004 245.832 248.142 230.804 251.224 218.988C251.352 218.474 251.481 217.961 251.609 217.447C251.738 216.933 251.866 216.419 251.995 215.906C252.123 215.135 252.38 214.364 252.508 213.722C252.637 213.208 252.765 212.823 252.765 212.309C253.151 210.511 253.407 208.841 253.536 207.429C254.435 196.254 253.279 192.53 250.197 186.365C247.242 180.2 239.793 179.943 237.096 182.255L236.967 182.383C235.169 184.053 231.059 189.832 229.389 197.667C228.747 200.493 228.747 205.63 228.876 211.795Z" fill="#66738D"/>
<path d="M247.499 221.045C247.371 222.714 238.894 257.65 238.252 259.062C238.123 259.319 242.233 258.42 242.619 253.925C242.619 253.796 242.619 253.668 242.619 253.54C242.619 253.411 242.619 253.283 242.619 253.154C242.619 252.897 242.619 252.64 242.619 252.384C243.004 245.705 248.142 230.677 251.224 218.861C251.353 218.347 251.481 217.834 251.609 217.32C251.738 216.806 251.866 216.292 251.995 215.779C252.123 215.008 252.38 214.237 252.508 213.595C252.637 213.081 252.765 212.696 252.765 212.182C253.151 210.384 253.408 208.714 253.536 207.302C254.435 196.127 253.279 192.403 250.197 186.238C247.242 180.073 239.793 179.816 237.096 182.128L236.967 182.256C235.169 183.926 231.059 189.706 229.39 197.54C228.747 200.494 228.619 205.632 228.876 211.797C236.068 217.32 247.885 217.191 247.499 221.045Z" fill="#566482"/>
<path d="M278.71 251.87C277.939 249.686 277.554 248.017 276.911 245.705C274.343 235.815 264.453 245.833 265.095 248.402C265.866 251.741 267.022 253.283 268.948 264.714C270.875 276.273 274.086 282.053 277.04 287.447C279.994 292.842 282.177 302.988 282.177 302.988C287.829 303.374 290.141 300.548 290.141 300.548C290.141 300.548 287.187 286.163 285.645 276.273C284.104 266.383 280.508 257.136 278.71 251.87Z" fill="#66738D"/>
<path d="M281.664 278.84C280.251 268.95 278.325 263.042 276.527 257.776C275.756 255.592 273.701 250.455 273.059 248.143C272.031 244.161 269.719 243.391 267.407 244.161C270.362 241.207 275.242 239.152 276.912 245.574C277.554 247.886 277.939 249.556 278.71 251.739C280.508 257.005 284.105 266.124 285.517 276.143C286.93 286.032 290.013 300.417 290.013 300.417C290.013 300.417 288.857 301.83 286.031 302.601C285.517 300.289 282.949 287.831 281.664 278.84Z" fill="#566482"/>
<path d="M270.233 197.027C266.893 188.935 260.985 183.412 259.187 182.128C256.105 179.816 248.655 180.073 246.857 186.238C245.059 192.403 244.674 196.127 247.628 207.302C250.582 218.476 264.838 244.806 266.508 253.154C268.178 261.503 281.022 261.631 277.811 249.686C274.6 237.613 274.086 206.531 270.233 197.027Z" fill="#66738D"/>
<path d="M270.104 218.989C269.976 215.778 267.664 213.338 264.71 212.439C263.297 212.053 257.261 213.209 253.407 213.852C251.481 214.237 249.683 213.081 249.04 211.283C248.398 209.613 247.756 207.686 247.628 207.173C244.674 195.999 245.059 192.274 246.857 186.109C248.655 179.944 256.105 179.687 259.187 181.999C261.114 183.412 266.893 188.806 270.233 196.898C274.086 206.274 274.471 237.484 277.682 249.429C278.838 253.539 277.939 256.236 276.398 257.649C276.526 257.649 270.104 222.714 270.104 218.989Z" fill="#566482"/>
<path d="M254.05 143.725C254.05 143.725 246.215 142.055 240.692 143.725V145.523L253.664 145.908L254.05 143.725Z" fill="#FA9B3C"/>
<path d="M235.811 156.439C235.297 156.824 234.912 156.952 234.655 156.824C234.013 156.439 232.857 155.796 231.573 154.897C232.857 152.842 234.527 149.246 234.527 149.246L235.811 156.439Z" fill="#FA9B3C"/>
<path d="M256.361 112C253.022 112 250.453 114.697 250.453 117.908C250.453 121.248 253.15 123.816 256.361 123.816C259.701 123.816 262.269 121.119 262.269 117.908C262.269 114.697 259.701 112 256.361 112Z" fill="#5167A8"/>
<path d="M257.004 135.118C258.16 129.467 263.426 129.981 260.215 122.916C257.004 115.852 253.793 117.265 250.325 116.109C241.591 113.284 234.655 124.971 237.866 132.678C240.949 139.87 255.719 141.283 257.004 135.118Z" fill="#5167A8"/>
<path d="M256.875 168.77C257.132 166.201 258.031 163.889 260.343 155.284C261.242 151.944 262.655 150.018 261.756 148.477C260.728 146.55 257.004 145.522 254.563 145.522C250.196 145.522 252.251 134.99 252.251 134.99C251.609 132.807 244.417 133.192 244.674 140.128C245.059 147.064 238.123 143.981 236.453 145.266C234.142 147.064 234.398 150.788 233.885 152.843C233.371 154.898 230.417 157.339 230.802 161.192C231.187 165.045 234.784 164.788 234.784 164.788C236.068 166.201 237.224 168.898 237.353 170.825C237.609 175.192 235.426 179.559 235.426 179.559C248.141 185.21 259.059 180.201 259.059 180.201C259.059 180.201 255.976 176.348 256.875 168.77Z" fill="#FFD2A7"/>
<path d="M254.692 145.65C250.325 145.65 252.38 135.118 252.38 135.118C251.995 133.963 249.683 133.449 247.628 134.605C248.912 134.99 252.252 140.898 250.196 149.504C249.683 151.944 246.986 153.357 244.545 153.871C244.545 153.871 259.958 156.568 260.343 155.283C261.242 151.944 257.004 145.65 254.692 145.65Z" fill="#FFBC8E"/>
<path d="M236.839 211.026C237.481 211.026 238.252 211.154 239.022 211.154C239.408 211.154 239.921 211.154 240.307 211.154C240.692 211.154 241.077 211.154 241.463 211.154L245.059 205.76L249.426 211.026C261.756 211.54 274.086 208.2 274.086 208.2C273.572 204.09 272.673 200.622 271.646 197.668C267.407 184.953 260.985 179.558 267.15 157.467C268.049 154.127 264.453 149.632 262.27 147.449C260.857 146.036 256.875 145.65 254.563 145.65C250.839 150.274 245.059 153.742 245.059 153.742C245.059 153.742 241.077 147.192 240.564 145.137C239.536 145.137 237.096 145.137 236.71 145.522C234.399 147.32 234.27 150.916 233.756 152.971C233.243 155.026 230.417 157.981 230.802 161.705C231.188 165.302 234.27 167.228 234.527 167.357C238.509 189.32 228.876 184.311 227.72 209.099C230.16 209.998 233.371 210.64 236.839 211.026Z" fill="#FFA64D"/>
<path d="M234.398 167.23C234.527 167.23 234.527 167.23 234.398 167.23C234.527 167.615 255.976 173.138 258.288 176.349C259.958 178.661 267.921 200.496 265.223 203.193C262.526 205.89 251.994 198.441 250.838 199.34C250.068 199.982 237.481 209.743 236.839 211.156C237.481 211.156 238.251 211.284 239.022 211.284C239.407 211.284 239.921 211.284 240.306 211.284C240.692 211.284 241.077 211.284 241.462 211.284L245.059 205.89L249.426 211.156C261.756 211.67 274.086 208.33 274.086 208.33C273.572 204.734 272.673 201.266 271.645 197.798C267.407 185.083 260.985 179.689 267.15 157.597C265.737 157.34 254.692 154.001 251.609 155.285C251.481 155.285 253.279 156.698 256.104 158.368C258.802 159.909 261.242 161.193 260.214 164.533C259.058 168.514 255.719 170.056 251.866 169.67C250.838 169.542 249.811 169.413 248.783 169.285C248.398 169.285 242.875 169.028 240.82 168.771C238.637 168.386 236.453 167.872 234.398 167.23Z" fill="#FA9B3C"/>
<path d="M252.765 129.34C252.765 129.34 250.068 120.478 247.114 120.093C244.16 119.707 241.848 119.836 240.307 123.047C240.307 123.047 238.508 125.744 239.022 129.212C239.022 129.212 235.041 132.551 238.894 137.689C242.875 142.955 249.939 139.744 252.38 135.248C252.38 135.248 256.233 136.661 256.875 133.065C257.517 129.34 255.205 129.083 252.765 129.34Z" fill="#FFD2A7"/>
<path d="M252.765 129.339C252.765 129.339 250.068 120.476 247.114 120.091C244.802 119.834 242.876 119.834 241.334 121.504C243.261 121.119 249.811 129.082 249.683 133.706C249.554 138.458 244.417 141.155 240.435 138.843C239.922 138.586 239.536 138.201 239.151 137.944C243.132 142.696 249.94 139.614 252.38 135.118C252.38 135.118 256.233 136.531 256.875 132.935C257.518 129.339 255.206 129.082 252.765 129.339Z" fill="#FFBC8E"/>
<path d="M237.096 124.46C237.096 124.46 241.719 123.946 244.417 121.506C247.114 119.066 248.527 119.579 248.527 119.579C240.82 115.598 237.096 124.46 237.096 124.46Z" fill="#5167A8"/>
<path d="M246.857 119.448C245.572 120.347 245.187 123.43 248.141 127.026C251.224 130.623 249.939 134.861 252.637 132.678C255.334 130.494 255.334 130.109 255.719 127.026C256.104 123.944 249.683 117.393 246.857 119.448Z" fill="#5167A8"/>
<path d="M257.903 145.523C257.903 145.523 255.976 150.275 252.123 152.715C248.398 155.284 246.729 158.495 246.6 160.165L243.903 161.963L245.444 163.889C245.444 163.889 243.004 166.073 243.004 168.899C243.004 168.899 240.949 164.66 241.591 161.321C242.233 157.981 245.316 152.587 247.114 150.66C248.912 148.734 253.279 145.523 253.793 143.725C254.05 143.725 255.719 144.11 257.903 145.523Z" fill="#FA9B3C"/>
<path d="M241.077 143.725C241.077 143.725 241.463 147.192 243.004 149.761C244.545 152.33 245.187 152.587 244.802 154.385C244.417 156.183 240.692 159.266 242.619 167.614C242.619 167.614 240.05 165.431 239.665 163.633L240.564 161.706L239.536 160.55C239.536 160.55 240.05 156.954 241.206 154.899C242.233 152.844 237.866 147.835 237.866 144.495C237.995 144.495 239.921 143.725 241.077 143.725Z" fill="#FA9B3C"/>
<path d="M245.958 154.385C245.958 154.899 245.573 155.284 245.059 155.284C244.545 155.284 244.16 154.899 244.16 154.385C244.16 153.872 244.545 153.486 245.059 153.486C245.573 153.486 245.958 153.872 245.958 154.385Z" fill="#FFF3E6"/>
<path d="M242.747 160.549C242.747 161.063 242.362 161.449 241.848 161.449C241.334 161.449 240.949 161.063 240.949 160.549C240.949 160.036 241.334 159.65 241.848 159.65C242.362 159.65 242.747 160.036 242.747 160.549Z" fill="#FFF3E6"/>
<path d="M244.031 167.872C244.031 168.385 243.646 168.771 243.132 168.771C242.618 168.771 242.233 168.385 242.233 167.872C242.233 167.358 242.618 166.973 243.132 166.973C243.646 166.973 244.031 167.358 244.031 167.872Z" fill="#FFF3E6"/>
<path d="M244.288 176.604C244.288 177.118 243.903 177.503 243.389 177.503C242.875 177.503 242.49 177.118 242.49 176.604C242.49 176.09 242.875 175.705 243.389 175.705C243.903 175.705 244.288 176.09 244.288 176.604Z" fill="#FFF3E6"/>
<path d="M244.93 185.594C244.93 186.108 244.545 186.493 244.031 186.493C243.518 186.493 243.132 186.108 243.132 185.594C243.132 185.081 243.518 184.695 244.031 184.695C244.545 184.695 244.93 185.081 244.93 185.594Z" fill="#FFF3E6"/>
<path d="M245.444 194.714C245.444 195.227 245.059 195.613 244.545 195.613C244.031 195.613 243.646 195.227 243.646 194.714C243.646 194.2 244.031 193.814 244.545 193.814C245.059 193.814 245.444 194.2 245.444 194.714Z" fill="#FFF3E6"/>
<path d="M264.196 155.154C269.205 153.484 288.728 140.897 291.297 138.072C292.581 136.531 292.324 133.191 291.297 131.008C290.911 130.237 290.269 129.466 289.499 129.21C289.499 129.21 289.37 129.21 289.242 129.081C288.856 128.953 288.471 128.824 287.957 128.824C286.544 128.824 282.306 130.751 276.398 133.962C273.829 135.246 271.26 136.787 268.692 138.2C268.049 138.586 267.279 138.971 266.637 139.356C265.994 139.742 265.352 140.127 264.71 140.512C264.325 140.769 263.939 141.026 263.426 141.283C262.655 141.797 261.884 142.182 261.242 142.567C260.857 142.824 260.6 142.952 260.215 143.209C258.16 144.494 256.747 145.521 256.233 145.907C256.233 146.035 256.105 146.035 256.105 146.163L255.976 146.292C255.976 146.292 255.976 146.42 255.848 146.42C255.077 147.576 255.077 149.246 255.462 150.787C256.618 154.384 263.04 155.539 264.196 155.154Z" fill="#FFA64D"/>
<path d="M291.297 131.008C290.912 130.237 290.269 129.466 289.499 129.21C289.499 129.21 289.37 129.21 289.242 129.081C288.856 128.953 288.471 128.824 287.957 128.824C286.545 128.824 282.306 130.751 276.398 133.962C273.829 135.246 271.26 136.787 268.692 138.2C268.049 138.586 267.279 138.971 266.637 139.356C265.994 139.742 265.352 140.127 264.71 140.512C264.325 140.769 263.939 141.026 263.426 141.283C262.655 141.797 261.884 142.182 261.242 142.567C260.857 142.824 260.6 142.952 260.215 143.209C258.16 144.494 256.747 145.521 256.233 145.907C254.435 147.319 253.664 149.374 253.536 149.374C252.765 150.53 254.306 149.503 254.82 151.173C274.343 138.842 289.242 127.797 291.297 131.008Z" fill="#FA9B3C"/>
<path d="M288.471 128.698C282.948 125.744 263.683 122.147 261.114 119.322C258.545 116.496 252.894 113.414 250.196 114.57C247.371 115.726 248.27 117.909 250.196 120.092C251.481 121.505 252.894 122.79 257.132 123.689C261.371 124.588 277.169 133.964 283.077 136.019C288.985 138.074 292.196 130.753 288.471 128.698Z" fill="#FFD2A7"/>
<path d="M209.224 122.789C214.747 120.734 232.343 120.092 235.169 117.78C237.995 115.468 243.646 113.284 246.086 114.697C248.655 116.11 247.499 118.037 245.316 119.835C244.031 120.991 242.362 122.018 238.38 122.275C234.27 122.532 218.986 129.211 213.077 130.495C207.426 131.651 205.5 124.202 209.224 122.789Z" fill="#FFD2A7"/>
<path d="M173.254 219.43L175.455 221.123V223.324L172.915 222.816L173.254 219.43Z" fill="#CC9483"/>
<path d="M141.085 317.793L135.16 316.608L150.736 239.912L156.662 241.097L141.085 317.793Z" fill="url(#paint6_linear_180125_333051)"/>
<path d="M171.73 317.793L177.486 316.608L162.08 239.912L156.154 241.097L171.73 317.793Z" fill="url(#paint7_linear_180125_333051)"/>
<path d="M43.7342 317.793L37.9778 316.608L53.3847 239.912L59.3104 241.097L43.7342 317.793Z" fill="url(#paint8_linear_180125_333051)"/>
<path d="M74.3787 317.793L80.1351 316.608L64.7282 239.912L58.8025 241.097L74.3787 317.793Z" fill="url(#paint9_linear_180125_333051)"/>
<path d="M173.253 219.428H40.1785V241.438H173.253V219.428Z" fill="#CC9483"/>
<path d="M175.455 221.121H168.852H155.984H142.948H130.08H117.044H104.346H91.3092H78.4419H65.4053H52.538H42.3796V241.607H43.2262H56.0935H68.9608H81.8281H94.8647H107.732H120.599H133.467H146.503H159.37H172.238H175.455V234.666V221.121Z" fill="white"/>
<path d="M130.081 221.119L120.599 241.605H107.732L117.044 221.119H130.081Z" fill="url(#paint10_linear_180125_333051)"/>
<path d="M104.346 221.119L94.8647 241.605H81.8281L91.3093 221.119H104.346Z" fill="url(#paint11_linear_180125_333051)"/>
<path d="M78.4422 221.119L68.9611 241.605H56.0938L65.4056 221.119H78.4422Z" fill="url(#paint12_linear_180125_333051)"/>
<path d="M52.5382 221.119L43.2263 241.605H42.5491V221.119H52.5382Z" fill="url(#paint13_linear_180125_333051)"/>
<path d="M175.455 221.119H168.852L159.371 241.605H172.238L175.455 234.664V221.119Z" fill="url(#paint14_linear_180125_333051)"/>
<path d="M155.985 221.119L146.503 241.605H133.467L142.948 221.119H155.985Z" fill="url(#paint15_linear_180125_333051)"/>
<defs>
<linearGradient id="paint0_linear_180125_333051" x1="0.719713" y1="158.798" x2="332.595" y2="158.798" gradientUnits="userSpaceOnUse">
<stop stop-color="white"/>
<stop offset="1" stop-color="#D3DBEB"/>
</linearGradient>
<linearGradient id="paint1_linear_180125_333051" x1="196.897" y1="46.5654" x2="302.909" y2="46.5654" gradientUnits="userSpaceOnUse">
<stop stop-color="white"/>
<stop offset="1" stop-color="#D3DBEB"/>
</linearGradient>
<linearGradient id="paint2_linear_180125_333051" x1="-83.415" y1="152.224" x2="552.273" y2="152.224" gradientUnits="userSpaceOnUse">
<stop stop-color="white"/>
<stop offset="1" stop-color="#D3DBEB"/>
</linearGradient>
<linearGradient id="paint3_linear_180125_333051" x1="126.049" y1="175.253" x2="-108.431" y2="-28.7975" gradientUnits="userSpaceOnUse">
<stop stop-color="#99B3E8"/>
<stop offset="1" stop-color="#5D7BC2"/>
</linearGradient>
<linearGradient id="paint4_linear_180125_333051" x1="159.117" y1="36.4121" x2="159.117" y2="135.795" gradientUnits="userSpaceOnUse">
<stop stop-color="#F5848A"/>
<stop offset="1" stop-color="#FFA470"/>
</linearGradient>
<linearGradient id="paint5_linear_180125_333051" x1="49.1596" y1="121.622" x2="127.764" y2="121.622" gradientUnits="userSpaceOnUse">
<stop stop-color="#FF974D"/>
<stop offset="1" stop-color="#FFAC80"/>
</linearGradient>
<linearGradient id="paint6_linear_180125_333051" x1="135.233" y1="278.819" x2="156.581" y2="278.819" gradientUnits="userSpaceOnUse">
<stop stop-color="#99B3E8"/>
<stop offset="1" stop-color="#5D7BC2"/>
</linearGradient>
<linearGradient id="paint7_linear_180125_333051" x1="156.201" y1="278.819" x2="177.549" y2="278.819" gradientUnits="userSpaceOnUse">
<stop stop-color="#97B1E6"/>
<stop offset="1" stop-color="#5D7BC2"/>
</linearGradient>
<linearGradient id="paint8_linear_180125_333051" x1="37.8987" y1="278.819" x2="59.2473" y2="278.819" gradientUnits="userSpaceOnUse">
<stop stop-color="#99B3E8"/>
<stop offset="1" stop-color="#5D7BC2"/>
</linearGradient>
<linearGradient id="paint9_linear_180125_333051" x1="58.8661" y1="278.819" x2="80.2145" y2="278.819" gradientUnits="userSpaceOnUse">
<stop stop-color="#9999E8"/>
<stop offset="1" stop-color="#5D7FC2"/>
</linearGradient>
<linearGradient id="paint10_linear_180125_333051" x1="107.69" y1="231.396" x2="130.096" y2="231.396" gradientUnits="userSpaceOnUse">
<stop stop-color="#FFD780"/>
<stop offset="1" stop-color="#FFBC80"/>
</linearGradient>
<linearGradient id="paint11_linear_180125_333051" x1="81.8662" y1="231.396" x2="104.267" y2="231.396" gradientUnits="userSpaceOnUse">
<stop stop-color="#FFD780"/>
<stop offset="1" stop-color="#FFBC80"/>
</linearGradient>
<linearGradient id="paint12_linear_180125_333051" x1="56.0431" y1="231.396" x2="78.4448" y2="231.396" gradientUnits="userSpaceOnUse">
<stop stop-color="#FFD780"/>
<stop offset="1" stop-color="#FFBC80"/>
</linearGradient>
<linearGradient id="paint13_linear_180125_333051" x1="42.4646" y1="231.396" x2="52.6164" y2="231.396" gradientUnits="userSpaceOnUse">
<stop stop-color="#FFD780"/>
<stop offset="1" stop-color="#FFBC80"/>
</linearGradient>
<linearGradient id="paint14_linear_180125_333051" x1="159.345" y1="231.397" x2="175.52" y2="231.397" gradientUnits="userSpaceOnUse">
<stop stop-color="#FFD780"/>
<stop offset="1" stop-color="#FFBC80"/>
</linearGradient>
<linearGradient id="paint15_linear_180125_333051" x1="133.513" y1="231.396" x2="155.919" y2="231.396" gradientUnits="userSpaceOnUse">
<stop stop-color="#FFD780"/>
<stop offset="1" stop-color="#FFBC80"/>
</linearGradient>
</defs>
</svg>
