<svg width="338" height="313" viewBox="0 0 338 313" fill="none" xmlns="http://www.w3.org/2000/svg">
<path d="M253.438 116.682C255.102 115.81 255.974 113.908 255.895 112.085C255.816 110.262 254.944 108.518 253.596 107.17C252.328 105.823 250.743 104.871 249.078 104.079C246.383 102.731 243.371 101.621 240.359 101.621C243.608 98.6093 247.175 95.835 250.901 93.2985C251.218 93.0607 251.614 92.8229 251.931 92.6643C253.517 95.4387 255.102 98.213 256.687 100.987C257.718 102.81 258.828 104.713 260.492 106.06C262.157 107.408 264.535 107.963 266.437 107.012C268.102 106.14 268.974 104.237 268.895 102.414C268.815 100.591 267.943 98.8471 266.596 97.4996C265.328 96.1521 263.742 95.2009 262.078 94.4082C259.303 92.9814 256.212 91.8717 253.041 91.9509C257.242 89.3351 261.681 87.0364 266.279 85.134C268.023 87.9083 269.687 90.6034 271.431 93.3777C272.541 95.2009 273.73 97.024 275.474 98.2923C277.218 99.5605 279.596 100.036 281.498 99.0057C283.083 98.1337 283.955 96.1521 283.797 94.3289C283.638 92.5058 282.687 90.7619 281.339 89.4937C279.992 88.2254 278.407 87.3535 276.663 86.5608C273.968 85.3718 271.035 84.4206 268.181 84.4206C271.51 83.1523 274.998 82.0426 278.407 81.1707C279.437 80.9329 280.468 80.6951 281.498 80.4573C283.321 83.2316 285.224 86.0059 287.047 88.701C288.236 90.4449 289.504 92.268 291.248 93.457C292.992 94.646 295.449 95.1216 297.272 94.0119C298.857 93.0607 299.65 91.079 299.412 89.2559C299.254 87.4327 298.144 85.7681 296.796 84.4999C295.449 83.2316 293.784 82.4389 292.04 81.7255C289.583 80.6951 286.967 79.9817 284.431 79.8231C287.998 79.189 291.565 78.7926 295.211 78.6341C298.065 80.1402 300.998 81.6463 303.851 83.1523C305.754 84.1035 307.656 85.134 309.796 85.3718C311.936 85.6096 314.314 84.8169 315.345 82.9938C316.296 81.4085 315.979 79.2683 314.949 77.7622C313.918 76.2561 312.174 75.3049 310.43 74.8293C308.607 74.433 306.784 74.433 304.961 74.5915C301.553 74.9086 298.144 75.7805 295.37 77.7622C291.565 77.9207 287.681 78.3963 283.955 79.0304C286.333 77.6829 288.315 75.622 289.98 73.4025C291.089 71.9757 292.12 70.3904 292.754 68.6465C293.309 66.9026 293.388 64.921 292.675 63.2564C291.961 61.5918 290.297 60.2442 288.473 60.165C286.333 60.0857 284.431 61.671 283.48 63.5734C282.528 65.4758 282.37 67.6953 282.211 69.7562C281.974 73.0062 281.736 76.2561 281.498 79.4268C276.901 80.378 272.382 81.7255 268.023 83.4694C270.163 81.4877 271.669 78.8719 272.779 76.2561C273.492 74.5915 274.126 72.7684 274.285 70.9452C274.443 69.1221 274.047 67.2197 272.858 65.7136C271.748 64.2868 269.767 63.4149 268.023 63.8112C265.962 64.2868 264.456 66.2685 264.059 68.4087C263.584 70.4696 263.98 72.6098 264.376 74.75C264.931 77.9207 265.486 81.0914 266.041 84.3413C265.882 84.4206 265.803 84.4206 265.645 84.4999C261.206 86.4023 256.846 88.6217 252.724 91.2375C254.785 88.7803 255.895 85.5303 256.608 82.3597C257.005 80.5365 257.242 78.7134 257.005 76.8902C256.767 75.0671 255.974 73.244 254.547 72.055C253.121 70.866 251.06 70.3904 249.395 71.183C247.413 72.055 246.462 74.3537 246.462 76.4146C246.462 78.5549 247.255 80.6158 248.047 82.5182C249.316 85.6096 250.505 88.701 251.773 91.8717C251.694 91.8717 251.694 91.9509 251.614 91.9509H251.535V92.0302C247.572 94.646 243.846 97.4996 240.359 100.67C241.23 97.8959 241.23 94.8838 240.834 91.9509C240.596 90.1278 240.279 88.2254 239.407 86.5608C238.615 84.8962 237.267 83.3901 235.523 82.6767C233.779 81.9633 231.639 82.2011 230.212 83.4694C228.627 84.8962 228.389 87.4327 229.023 89.4937C229.737 91.5546 231.164 93.2985 232.511 94.9631C234.493 97.3411 236.474 99.6398 238.456 102.018C238.535 102.097 238.535 102.176 238.615 102.256C234.889 105.823 231.401 109.786 228.389 113.987C228.072 114.463 228.706 115.018 229.023 114.542C232.036 110.42 235.365 106.536 239.011 102.969C240.517 105.585 242.023 108.201 243.529 110.816C244.56 112.64 245.669 114.542 247.334 115.89C249.157 117.079 251.535 117.713 253.438 116.682Z" fill="#99B3E8"/>
<path d="M265.882 52.5544C265.169 50.4142 261.206 49.7801 257.005 51.1276C253.517 52.3166 250.98 54.4568 250.663 56.4385C250.505 56.4385 250.346 56.4385 250.188 56.4385C246.462 56.597 242.499 56.5178 238.932 55.408C239.169 55.0117 239.328 54.5361 239.487 54.1398C240.834 51.0484 241.944 47.957 242.895 44.7863C244.639 45.3411 246.621 44.9448 248.364 44.6277C250.425 44.2314 252.407 43.7558 254.389 43.1217C255.895 42.6461 257.401 42.0912 258.907 41.4571C258.907 41.5363 258.986 41.5363 258.986 41.6156C260.334 43.4387 264.297 42.8046 267.864 40.1888C271.431 37.573 273.175 34.006 271.827 32.1829C270.48 30.3597 266.517 30.9939 262.95 33.6097C260.175 35.6706 258.511 38.2864 258.511 40.2681C257.163 40.8229 255.736 41.3778 254.309 41.8534C252.486 42.4083 250.663 42.8839 248.84 43.2802C247.017 43.6765 244.956 44.2314 243.133 43.6765C244.243 39.7132 245.273 35.7499 246.383 31.7865C246.462 31.7865 246.462 31.7865 246.541 31.7865C250.188 31.3902 253.517 30.2012 256.529 28.1403C257.005 27.8232 257.559 27.4269 258.035 27.1098C259.858 27.9025 263.029 27.1098 265.962 24.9696C269.529 22.3538 271.273 18.7868 269.925 16.9636C268.577 15.1405 264.614 15.7746 261.047 18.3904C257.559 20.927 255.816 24.4147 257.005 26.3171C253.992 28.4573 250.663 30.1219 246.779 30.5183C247.413 28.3781 247.968 26.2379 248.682 24.1769C249.791 20.8477 251.139 17.5185 252.803 14.4271C254.785 14.7442 257.718 12.7625 259.7 9.51256C261.998 5.78703 262.315 1.74442 260.413 0.555419C258.511 -0.633583 255.023 1.42735 252.724 5.15289C250.584 8.64063 250.188 12.3662 251.694 13.8722C249.078 18.7868 247.255 24.0977 245.749 29.4878C244.718 28.061 244.084 26.3964 243.371 24.7318C242.578 22.9087 241.785 21.0062 241.072 19.1038C240.596 17.8356 240.2 16.5673 239.804 15.299C241.072 13.8722 241.468 10.7808 240.676 7.45163C239.645 3.17122 237.029 0.0798181 234.81 0.634686C232.59 1.18955 231.639 5.07363 232.67 9.35403C233.7 13.6344 236.316 16.7258 238.535 16.171C238.615 16.171 238.694 16.0917 238.694 16.0917C239.011 17.2807 239.487 18.4697 239.883 19.6587C240.596 21.5611 241.389 23.4635 242.182 25.2867C242.974 27.1891 243.767 29.1707 245.114 30.8353C245.114 30.9146 245.194 30.9146 245.194 30.9146C244.877 32.1829 244.56 33.3719 244.163 34.6401C243.45 37.4145 242.736 40.2681 241.865 43.0424C238.06 39.4754 234.81 35.2743 232.353 30.5975C233.621 29.0915 233.621 25.7623 232.194 22.3538C230.529 18.3112 227.438 15.6954 225.377 16.5673C223.237 17.4392 222.92 21.4026 224.584 25.5245C226.249 29.4878 229.182 32.1036 231.243 31.3902C233.779 36.1462 237.109 40.4266 241.072 44.0729C241.23 44.1521 241.31 44.2314 241.468 44.2314C240.913 46.0545 240.358 47.7984 239.724 49.6216C239.011 51.6032 238.218 53.5056 237.346 55.3288C237.346 55.2495 237.267 55.2495 237.188 55.2495C234.017 53.1886 231.164 50.652 228.706 47.7192C228.072 46.9265 227.438 46.1338 226.804 45.3411C227.597 43.5973 227.042 40.5059 225.377 37.4937C223.158 33.6889 219.749 31.5487 217.767 32.7377C215.786 33.9267 216.024 37.8901 218.243 41.6949C220.463 45.4997 223.871 47.6399 225.853 46.4509C225.932 46.4509 225.932 46.3716 226.011 46.3716C226.487 47.0058 227.042 47.7192 227.517 48.274C230.054 51.3654 233.145 54.0605 236.474 56.28C236.554 56.3592 236.633 56.3592 236.712 56.3592C235.365 59.0543 233.859 61.6701 232.194 64.1274C231.877 64.603 231.56 65.0786 231.243 65.5542C231.243 65.5542 231.164 65.4749 231.084 65.4749C229.261 64.2859 227.597 62.8591 226.09 61.4323C226.645 59.6092 226.09 56.7556 224.426 54.0605C222.206 50.2557 218.798 48.1155 216.816 49.3045C214.835 50.4935 215.072 54.4568 217.292 58.2616C219.511 62.0664 222.92 64.2066 224.901 63.0176C225.06 62.9384 225.298 62.7798 225.377 62.6213C226.883 64.1274 228.548 65.3956 230.371 66.6639H230.45C227.359 70.9443 223.95 74.9077 220.463 78.871C219.908 79.5051 220.78 80.4563 221.334 79.8222C224.981 75.7003 228.548 71.4992 231.718 67.0602C233.462 67.6944 235.285 68.2493 237.109 68.6456C237.109 68.7249 237.109 68.8041 237.109 68.9627C237.505 71.1821 241.389 72.3711 245.749 71.4992C250.108 70.7065 253.2 68.17 252.803 65.9505C252.407 63.731 248.523 62.542 244.163 63.414C240.834 64.0481 238.218 65.7127 237.346 67.4566C235.682 67.1395 234.096 66.6639 232.511 66.0298C234.572 63.0969 236.395 60.0055 237.98 56.7556C238.06 56.8348 238.139 56.8348 238.139 56.8348C242.023 58.0238 246.224 58.1031 250.267 57.8653H250.346C251.218 59.9262 255.102 60.4811 259.145 59.1336C263.821 57.6275 266.596 54.7739 265.882 52.5544Z" fill="#6D86D1"/>
<path d="M322.788 309.846H24V312.166H322.788V309.846Z" fill="#C9D4FB"/>
<path d="M65.5753 177.478C65.0204 175.576 66.5265 173.515 68.4289 172.96C70.3313 172.405 72.3922 172.96 74.2154 173.753C77.1482 175.1 79.5262 176.924 81.9042 178.984C80.636 176.289 79.447 173.515 78.3372 170.82C77.6238 168.997 76.9104 167.174 76.2763 165.271C71.9959 166.54 67.3191 166.54 63.118 165.192C61.5327 164.716 59.7888 163.765 59.3132 162.18C58.7583 160.278 60.2644 158.217 62.1668 157.662C64.0692 157.107 66.1301 157.662 67.874 158.454C70.8862 159.802 73.3434 161.704 75.8007 163.845C73.8983 158.058 72.3922 152.192 71.3618 146.168C67.0021 146.723 62.4839 145.93 58.5205 143.949C57.0145 143.156 55.4291 142.046 55.1913 140.382C54.9535 138.4 56.7767 136.656 58.7583 136.418C60.74 136.18 62.6424 137.052 64.307 138.162C67.0021 139.906 68.9838 142.125 71.0447 144.503C70.0935 138.162 69.6972 131.504 71.124 125.321C71.124 125.162 71.2032 125.083 71.2032 124.925C66.7643 124.845 62.3253 123.418 58.6791 120.882C57.2523 119.931 55.9047 118.583 55.9047 116.839C55.9047 114.858 58.0449 113.352 59.9473 113.431C61.929 113.431 63.7521 114.62 65.1789 115.888C67.7947 118.187 69.5386 120.882 71.441 123.815C73.3434 116.681 76.5141 109.785 78.1787 102.571C73.6605 102.571 69.1423 101.145 65.4167 98.5287C63.9899 97.5775 62.6424 96.23 62.6424 94.4861C62.6424 92.5044 64.7826 90.9984 66.685 91.0776C68.6667 91.0776 70.4898 92.2666 71.9166 93.5349C74.6117 95.9129 76.4348 98.6872 78.258 101.699C78.6543 99.8762 78.8921 98.0531 79.0506 96.1507C79.2884 92.3459 78.7336 88.5411 77.5446 84.8948C73.1056 86.1631 68.2704 85.9253 63.9107 84.3399C62.3253 83.7851 60.6607 82.8339 60.1851 81.1693C59.7095 79.2669 61.2949 77.2852 63.2765 76.8096C65.179 76.334 67.2399 76.9681 68.9838 77.8401C72.2337 79.5047 74.691 81.7241 77.3068 84.1814C75.4044 78.3949 71.7581 73.0841 67.3984 68.9622C63.2765 69.5963 58.9169 69.0415 55.0328 67.2976C53.4475 66.5842 51.8621 65.5537 51.5451 63.8891C51.1487 61.9867 52.8926 60.0843 54.8743 59.688C56.8559 59.2916 58.7583 60.0843 60.5022 61.1148C63.1973 62.7001 65.3375 64.7611 67.4777 66.9805C67.557 66.9805 67.7155 67.0598 67.7948 67.1391C71.5996 70.5475 74.691 74.7487 76.9897 79.3461C77.4653 80.3766 77.9409 81.4071 78.4165 82.4375C78.4165 78.3157 79.5262 74.2731 81.6664 70.7853C82.5384 69.3585 83.8066 67.8525 85.4712 67.7732C87.4529 67.6939 89.0383 69.6756 89.1968 71.6573C89.2761 73.6389 88.2456 75.4621 87.0566 77.0474C84.7578 79.9803 82.0628 81.9619 79.0506 84.1021C79.8433 86.3216 80.4774 88.6996 80.7152 91.0776C81.1116 94.6446 80.7945 98.2116 80.0811 101.62C81.9042 97.8153 84.8371 94.5654 88.4834 92.3459C89.9102 91.474 91.7333 90.7606 93.2394 91.3947C95.0625 92.1874 95.6174 94.7239 94.7455 96.4678C93.9528 98.2909 92.2089 99.4799 90.3858 100.273C86.9773 101.858 83.4896 102.413 79.764 102.968C78.4165 108.675 76.197 114.224 74.3739 119.693C73.819 121.437 73.3434 123.181 72.8678 124.925C74.691 120.723 77.7824 117.077 81.6664 114.699C83.0932 113.827 84.9164 113.035 86.4224 113.748C88.2456 114.541 88.8005 117.077 87.9285 118.821C87.1358 120.644 85.392 121.833 83.5688 122.626C80.0811 124.29 76.5141 124.766 72.7093 125.4C72.313 127.303 71.9959 129.126 71.8374 131.107C71.5996 134.674 71.8374 138.241 72.2337 141.729C72.313 142.68 72.4715 143.632 72.63 144.503C73.8983 140.54 76.2763 136.973 79.447 134.278C80.7152 133.168 82.3798 132.138 84.0444 132.613C85.9468 133.089 86.898 135.546 86.3432 137.449C85.7883 139.351 84.2822 140.778 82.6176 141.888C79.6055 143.949 76.3556 144.979 72.9471 146.089C73.8983 151.955 75.4044 157.662 77.3068 163.29C77.5446 158.93 79.1299 154.729 81.6664 151.241C82.6969 149.894 84.0444 148.546 85.7883 148.625C87.77 148.705 89.1968 150.845 89.1175 152.826C89.0383 154.808 87.8492 156.552 86.5017 157.979C83.8859 160.674 80.953 162.497 77.7031 164.399C77.9409 165.113 78.1787 165.905 78.4958 166.619C79.9226 170.661 81.5872 174.625 83.4896 178.588C83.8066 174.387 85.3127 170.265 87.8493 166.857C88.8797 165.509 90.2273 164.162 91.9711 164.241C93.9528 164.32 95.3796 166.46 95.3003 168.442C95.2211 170.424 94.0321 172.168 92.6845 173.594C90.148 176.21 87.2944 178.033 84.1237 179.856C86.3432 184.295 88.8004 188.496 91.5748 192.539C92.1297 193.411 90.7821 194.204 90.2273 193.411C87.3737 189.368 84.9164 185.009 82.6969 180.57C78.4165 181.838 73.7398 181.838 69.4594 180.411C67.7948 179.936 66.0509 179.064 65.5753 177.478Z" fill="#99B3E8"/>
<path d="M83.8066 205.143C80.2396 198.168 75.7214 192.064 70.8068 186.754C70.7276 186.674 70.6483 186.595 70.569 186.516C68.9837 184.772 67.3191 183.187 65.5752 181.68C64.4655 185.168 62.1668 187.15 59.0754 188.26C61.929 185.01 62.246 181.284 60.2644 177.242C60.1851 177.083 60.0266 176.924 59.868 176.766C55.3498 173.199 50.9901 170.266 47.1061 167.967C46.9475 167.888 46.8683 167.809 46.789 167.809C40.0513 163.845 34.8197 161.705 33.71 161.23C33.5515 161.15 33.4722 161.15 33.4722 161.15C33.4722 161.15 33.4722 161.23 33.3929 161.388C32.9173 163.132 30.2223 174.15 30.3015 188.497C30.3015 188.577 30.3015 188.735 30.3015 188.814C30.3015 192.778 30.5393 196.979 31.0942 201.339C32.2039 205.54 35.3746 207.046 37.5941 207.442C35.6124 208.156 33.71 208.314 31.9661 206.967C33.3137 213.863 35.4539 220.997 38.8623 227.814C38.9416 227.972 39.0209 228.21 39.1794 228.369L39.3379 228.765C41.1611 232.332 43.3013 235.661 45.6 238.673C45.6793 238.753 45.7585 238.832 45.8378 238.911C61.929 260.392 86.3431 270.618 88.9589 271.648C89.1175 271.728 89.1967 271.728 89.1967 271.728C89.1967 271.728 89.1967 271.648 89.276 271.49C89.6723 269.984 91.7333 261.74 92.2089 250.405C92.2089 250.246 92.2089 250.167 92.2089 250.088C92.3674 246.521 92.3674 242.637 92.1296 238.594C92.1296 238.356 92.1296 238.198 92.1296 237.96C91.8125 232.57 91.0199 226.863 89.5931 221.076C87.6907 221.948 86.0261 222.661 86.0261 222.661L88.0077 215.686C86.9773 212.119 85.5505 208.552 83.8066 205.143ZM34.0271 172.168C34.1856 171.693 34.6612 171.376 35.1368 171.455C35.6124 171.614 35.9295 172.089 35.8502 172.565C35.6917 173.04 35.2161 173.357 34.7405 173.278C34.1856 173.199 33.8685 172.644 34.0271 172.168ZM34.2649 175.339C34.9783 174.943 35.8502 175.26 36.2465 175.973C36.6429 176.687 36.3258 177.559 35.6124 177.955C34.899 178.351 33.9478 178.034 33.6307 177.321C33.2344 176.607 33.5515 175.735 34.2649 175.339ZM41.2403 208.71C41.7159 208.473 42.3501 208.631 42.5879 209.186C42.8257 209.662 42.6671 210.296 42.1123 210.534C41.6367 210.771 41.0025 210.613 40.7647 210.058C40.6062 209.582 40.7647 209.028 41.2403 208.71ZM39.8928 213.466C40.7647 212.991 41.8745 213.387 42.2708 214.259C42.7464 215.131 42.3501 216.241 41.4781 216.637C40.6062 217.033 39.5757 216.716 39.1001 215.844C38.7038 214.973 39.0209 213.863 39.8928 213.466ZM66.0508 184.534C66.2886 184.376 66.6057 184.534 66.685 184.772C66.8435 185.01 66.7642 185.327 66.4472 185.406C66.2094 185.565 65.8923 185.406 65.813 185.168C65.7338 184.93 65.813 184.693 66.0508 184.534ZM56.4596 179.223C57.0144 178.906 57.7278 179.144 57.9656 179.699C58.2827 180.254 58.0449 180.967 57.49 181.205C56.9352 181.522 56.2218 181.284 55.984 180.729C55.6669 180.174 55.9047 179.54 56.4596 179.223ZM57.0937 183.504C57.3315 183.424 57.6486 183.504 57.7278 183.741C57.8864 183.979 57.7278 184.296 57.49 184.376C57.2522 184.534 56.9352 184.376 56.7766 184.138C56.6974 183.979 56.7766 183.662 57.0937 183.504Z" fill="#6B80C2"/>
<path d="M65.8131 199.437L73.4227 197.455L73.502 197.772L65.6545 199.833L60.1851 213.784L68.0325 229.4L74.3739 213.705L74.691 213.784L68.2703 229.796L81.9042 256.905L92.2089 237.96C92.2089 238.198 92.2089 238.357 92.2089 238.595L85.709 250.643L92.2882 250.167C92.2882 250.326 92.2882 250.405 92.2882 250.485L85.5505 250.96L82.142 257.222L89.4346 271.728L89.1175 271.887L78.4958 250.881L68.6667 248.107L68.7459 247.789L78.258 250.564L70.9654 235.899L57.9657 232.967C55.1913 234.314 49.3256 237.247 45.9171 238.991C45.8378 238.912 45.7586 238.832 45.6793 238.753C49.3256 236.93 55.5084 233.838 57.4108 232.887L39.4172 228.845L39.2587 228.448L70.8069 235.582L56.1425 206.571L46.0756 206.016V205.699L55.9047 206.254L49.7219 193.967L30.2223 188.974C30.2223 188.894 30.2223 188.736 30.2223 188.656L39.8928 191.193C37.9904 187.943 35.2161 183.346 34.9783 183.108L35.0576 183.028L34.9783 182.949L35.1368 182.87C35.2161 182.87 35.3746 182.87 40.3684 191.352L49.4841 193.73L33.3137 161.626C33.3137 161.468 33.393 161.389 33.393 161.389C33.393 161.389 33.4722 161.389 33.6308 161.468L46.3134 186.675L46.7098 168.126C46.789 168.206 46.9476 168.285 47.0268 168.285L46.6305 187.309L59.9473 213.625L70.4898 186.754C70.5691 186.833 70.6483 186.913 70.7276 186.992L65.8131 199.437Z" fill="white"/>
<path d="M65.1789 237.879C58.8376 233.203 52.0206 229.794 45.283 227.258C45.1244 227.178 45.0452 227.178 44.9659 227.099C42.7464 226.306 40.527 225.593 38.3868 224.959C39.0209 228.605 37.7526 231.379 35.5331 233.757C36.5636 229.556 35.2161 226.148 31.6491 223.374C31.4905 223.294 31.332 223.136 31.0942 223.136C25.4663 221.947 20.2347 221.313 15.7165 220.996C15.5579 220.996 15.4787 220.996 15.3201 220.996C7.47271 220.441 1.92404 220.837 0.655769 220.916C0.497236 220.916 0.417969 220.916 0.417969 220.916C0.417969 220.916 0.417969 220.996 0.497236 221.154C0.893569 222.898 3.35084 233.916 9.85071 246.757C9.92998 246.836 9.92998 246.995 10.0092 247.074C11.8324 250.641 13.8933 254.288 16.3506 257.934C19.2042 261.184 22.6919 261.105 24.9114 260.47C23.4846 262.056 21.82 262.928 19.6005 262.611C23.8809 268.159 29.0333 273.629 35.1368 278.147C35.2953 278.305 35.4539 278.385 35.6917 278.543L36.0088 278.781C39.2587 281.08 42.6672 283.141 46.0756 284.885C46.1549 284.964 46.3134 284.964 46.3927 285.043C70.4105 297.012 96.8064 295.269 99.66 295.031C99.8185 295.031 99.8978 295.031 99.8978 295.031C99.8978 295.031 99.8978 294.951 99.8185 294.793C99.5014 293.287 97.599 284.964 93.0016 274.58C92.9223 274.501 92.9223 274.421 92.843 274.263C91.4162 271.013 89.6724 267.525 87.6114 263.958C87.5322 263.8 87.3736 263.562 87.2944 263.403C84.5993 258.727 81.3493 253.971 77.4653 249.452C76.1177 251.117 75.008 252.464 75.008 252.464L73.6605 245.33C71.1239 242.715 68.2703 240.178 65.1789 237.879ZM5.88738 230.666C5.72884 230.19 6.12518 229.636 6.60078 229.556C7.07638 229.398 7.63125 229.715 7.71051 230.27C7.78978 230.745 7.55198 231.3 6.99711 231.379C6.52151 231.459 5.96664 231.221 5.88738 230.666ZM7.55198 233.44C8.02758 232.806 8.97878 232.648 9.61291 233.123C10.247 233.599 10.4056 234.55 9.92998 235.184C9.45438 235.818 8.50318 235.977 7.86905 235.501C7.15564 235.026 7.07638 234.075 7.55198 233.44ZM28.7162 260.153C29.0333 259.678 29.6674 259.598 30.143 259.995C30.6186 260.312 30.6979 260.946 30.3808 261.422C30.0637 261.897 29.4296 261.976 28.954 261.659C28.4784 261.263 28.3991 260.629 28.7162 260.153ZM29.5881 264.989C30.143 264.196 31.2527 264.037 32.0454 264.592C32.8381 265.147 32.9966 266.257 32.4417 267.05C31.8869 267.842 30.7771 268.001 29.9845 267.367C29.1918 266.891 29.0333 265.781 29.5881 264.989ZM40.0514 227.416C40.2099 227.178 40.527 227.178 40.7648 227.337C41.0026 227.495 41.0818 227.812 40.844 228.05C40.6855 228.288 40.3684 228.288 40.1306 228.13C39.8928 227.892 39.8928 227.654 40.0514 227.416ZM29.1125 226.941C29.5089 226.465 30.2223 226.306 30.6979 226.703C31.1735 227.099 31.332 227.812 30.9357 228.288C30.5393 228.764 29.8259 228.922 29.3503 228.526C28.8747 228.13 28.7162 227.416 29.1125 226.941ZM31.5698 230.508C31.7283 230.27 32.0454 230.27 32.2832 230.428C32.521 230.587 32.521 230.904 32.3625 231.142C32.2039 231.379 31.8869 231.379 31.6491 231.221C31.4113 231.062 31.4113 230.745 31.5698 230.508Z" fill="#99B3E8"/>
<path d="M46.5512 240.812L52.4962 235.659L52.734 235.897L46.6305 241.208L47.978 256.11L62.0083 266.573L60.5815 249.69H60.8985L62.2461 266.89L86.581 285.043L87.2944 263.482C87.3736 263.64 87.5322 263.878 87.6114 264.037L87.1358 277.671L92.843 274.262C92.9223 274.341 92.9223 274.421 93.0016 274.579L87.2151 278.067L86.9773 285.201L99.977 294.872L99.7392 295.109L80.7945 281.079L70.8069 282.982L70.7276 282.665L80.4774 280.841L67.4777 271.092L54.4779 274.262C52.5755 276.719 48.6914 281.951 46.3927 285.043C46.3134 284.963 46.2342 284.963 46.0756 284.884C48.5329 281.634 52.6548 276.085 53.923 274.421L36.0088 278.86L35.6917 278.622L67.0813 270.854L41.0026 251.433L31.7283 255.397L31.6491 255.08L40.6855 251.196L29.5881 242.952L9.92998 247.153C9.85072 247.074 9.85072 246.915 9.77145 246.836L19.5213 244.775C16.3506 242.793 11.8324 239.86 11.5153 239.781L11.5946 239.623L11.4361 239.543L11.5153 239.464C11.5946 239.464 11.7531 239.385 19.9969 244.696L29.1918 242.714L0.497236 221.312C0.497236 221.154 0.417969 221.074 0.417969 221.074C0.417969 221.074 0.497236 221.074 0.655769 221.074L23.2468 237.879L15.2409 221.074C15.3994 221.074 15.4787 221.074 15.6372 221.074L23.8017 238.275L47.5024 255.872L44.8866 227.098C45.0452 227.178 45.1244 227.178 45.2037 227.257L46.5512 240.812Z" fill="white"/>
<path d="M240.596 59.1341V295.745C240.596 300.739 236.712 304.782 231.956 304.782H103.385C98.6294 304.782 94.7454 300.739 94.7454 295.745V59.1341C94.7454 54.1403 98.6294 50.0977 103.385 50.0977H232.035C236.791 50.0977 240.596 54.1403 240.596 59.1341Z" fill="white"/>
<path d="M238.932 43.4395H97.0441C91.8125 43.4395 87.5321 47.7199 87.5321 52.9515V301.928C87.5321 307.16 91.8125 311.44 97.0441 311.44H238.932C244.163 311.44 248.444 307.16 248.444 301.928V52.9515C248.444 47.7199 244.163 43.4395 238.932 43.4395ZM240.596 295.746C240.596 300.739 236.712 304.782 231.956 304.782H103.385C98.6294 304.782 94.7454 300.739 94.7454 295.746V59.1343C94.7454 54.1405 98.6294 50.0979 103.385 50.0979H136.202C136.202 50.2564 136.202 50.4149 136.202 50.5735V55.7258C136.202 59.4513 139.214 62.4635 142.94 62.4635H193.036C196.762 62.4635 199.774 59.4513 199.774 55.7258V50.5735C199.774 50.4149 199.774 50.2564 199.774 50.0979H231.956C236.712 50.0979 240.596 54.1405 240.596 59.1343V295.746Z" fill="#6B80C2"/>
<path d="M189.311 56.4399H160.616C159.031 56.4399 157.762 55.3302 157.762 53.9827C157.762 52.6351 159.031 51.5254 160.616 51.5254H189.311C190.896 51.5254 192.164 52.6351 192.164 53.9827C192.164 55.3302 190.896 56.4399 189.311 56.4399Z" fill="white"/>
<path d="M146.19 53.9814C146.19 51.9205 147.854 50.2559 149.915 50.2559C151.976 50.2559 153.641 51.9205 153.641 53.9814C153.641 56.0423 151.976 57.7069 149.915 57.7069C147.933 57.7069 146.19 56.0423 146.19 53.9814Z" fill="white"/>
<path d="M147.22 53.9814C147.22 52.4753 148.488 51.207 149.994 51.207C151.5 51.207 152.769 52.4753 152.769 53.9814C152.769 55.4874 151.5 56.7557 149.994 56.7557C148.409 56.7557 147.22 55.4874 147.22 53.9814Z" fill="#86A3BF"/>
<path d="M148.488 52.7126C148.488 52.237 148.805 51.9199 149.281 51.9199C149.677 51.9199 150.074 52.237 150.074 52.7126C150.074 53.1882 149.757 53.5053 149.281 53.5053C148.885 53.5053 148.488 53.1882 148.488 52.7126Z" fill="white"/>
<path d="M167.592 165.509C166.403 165.509 165.214 165.43 164.025 165.351C163.153 165.272 162.518 164.479 162.598 163.607C162.677 162.735 163.47 162.101 164.342 162.18C166.561 162.418 168.86 162.418 171 162.18C171.872 162.101 172.665 162.735 172.744 163.607C172.823 164.479 172.189 165.272 171.317 165.351C170.128 165.43 168.86 165.509 167.592 165.509ZM157.287 163.924C157.128 163.924 156.97 163.924 156.811 163.845C154.513 163.131 152.214 162.101 150.074 160.912C149.281 160.436 149.043 159.485 149.519 158.772C149.994 157.979 150.946 157.741 151.659 158.217C153.561 159.327 155.622 160.198 157.762 160.912C158.634 161.15 159.031 162.101 158.793 162.894C158.555 163.448 158 163.924 157.287 163.924ZM178.055 163.845C177.421 163.845 176.786 163.448 176.549 162.735C176.311 161.863 176.707 160.991 177.579 160.753C179.719 160.04 181.78 159.168 183.683 157.979C184.475 157.503 185.427 157.82 185.902 158.534C186.378 159.327 186.061 160.278 185.347 160.753C183.207 162.022 180.988 162.973 178.61 163.765C178.372 163.845 178.213 163.845 178.055 163.845ZM145.159 156.949C144.763 156.949 144.366 156.79 144.129 156.552C142.305 154.888 140.641 153.064 139.214 151.083C138.659 150.369 138.818 149.339 139.531 148.863C140.245 148.308 141.275 148.467 141.751 149.18C143.098 151.004 144.604 152.668 146.269 154.095C146.903 154.65 146.982 155.68 146.427 156.314C146.031 156.79 145.635 156.949 145.159 156.949ZM190.103 156.869C189.707 156.869 189.231 156.711 188.914 156.314C188.359 155.68 188.359 154.65 188.994 154.095C190.658 152.589 192.164 150.924 193.433 149.101C193.987 148.388 194.939 148.229 195.652 148.705C196.365 149.26 196.524 150.211 196.048 150.924C194.622 152.906 192.957 154.729 191.134 156.394C190.896 156.711 190.5 156.869 190.103 156.869ZM136.915 145.693C136.281 145.693 135.726 145.376 135.488 144.741C134.458 142.522 133.745 140.144 133.19 137.766C133.031 136.894 133.586 136.022 134.379 135.864C135.251 135.705 136.123 136.26 136.281 137.053C136.757 139.193 137.47 141.333 138.342 143.394C138.738 144.187 138.342 145.138 137.549 145.534C137.391 145.693 137.153 145.693 136.915 145.693ZM198.268 145.534C198.03 145.534 197.871 145.455 197.634 145.376C196.841 144.979 196.445 144.107 196.841 143.235C197.713 141.174 198.426 139.034 198.902 136.894C199.06 136.022 199.932 135.467 200.804 135.626C201.676 135.784 202.231 136.656 202.073 137.528C201.597 139.906 200.804 142.284 199.853 144.504C199.457 145.138 198.902 145.534 198.268 145.534ZM133.982 132.059C133.11 132.059 132.397 131.345 132.397 130.473V130.315C132.397 127.858 132.635 125.4 133.19 123.022C133.348 122.15 134.22 121.596 135.092 121.754C135.964 121.913 136.519 122.785 136.36 123.656C135.885 125.797 135.647 128.095 135.647 130.315V130.473C135.568 131.345 134.854 132.059 133.982 132.059ZM201.121 131.821C200.249 131.821 199.536 131.108 199.536 130.236C199.536 128.016 199.298 125.797 198.823 123.577C198.664 122.705 199.219 121.833 200.012 121.675C200.884 121.516 201.756 122.071 201.914 122.864C202.39 125.242 202.707 127.699 202.707 130.156C202.786 131.108 202.073 131.821 201.121 131.821ZM136.836 118.266C136.598 118.266 136.36 118.187 136.202 118.108C135.409 117.711 135.013 116.84 135.409 115.968C136.44 113.748 137.629 111.608 139.055 109.626C139.61 108.913 140.562 108.754 141.275 109.309C141.988 109.864 142.147 110.815 141.592 111.529C140.245 113.352 139.135 115.254 138.263 117.315C138.025 117.949 137.47 118.266 136.836 118.266ZM198.268 118.187C197.634 118.187 197.079 117.87 196.841 117.236C195.969 115.175 194.78 113.273 193.512 111.449C192.957 110.736 193.115 109.706 193.829 109.23C194.542 108.675 195.573 108.834 196.048 109.547C197.475 111.529 198.743 113.669 199.774 115.888C200.17 116.681 199.774 117.632 198.981 118.029C198.664 118.187 198.426 118.187 198.268 118.187ZM145.08 107.01C144.604 107.01 144.208 106.852 143.891 106.456C143.336 105.821 143.336 104.791 143.97 104.236C145.793 102.572 147.775 101.145 149.915 99.8765C150.708 99.4009 151.659 99.7179 152.135 100.431C152.61 101.224 152.293 102.175 151.58 102.651C149.677 103.761 147.854 105.108 146.19 106.614C145.872 106.852 145.476 107.01 145.08 107.01ZM190.024 106.931C189.628 106.931 189.231 106.773 188.994 106.535C187.329 105.029 185.506 103.761 183.603 102.572C182.811 102.096 182.573 101.145 183.049 100.352C183.524 99.5594 184.475 99.3216 185.268 99.7972C187.408 100.986 189.39 102.492 191.213 104.078C191.847 104.632 191.926 105.663 191.372 106.297C190.896 106.773 190.42 106.931 190.024 106.931ZM157.128 99.9557C156.494 99.9557 155.86 99.5594 155.622 98.846C155.384 97.9741 155.781 97.1021 156.653 96.8643C158.951 96.0716 161.409 95.5961 163.866 95.3583C164.738 95.279 165.531 95.9131 165.61 96.7851C165.689 97.657 165.055 98.4497 164.183 98.5289C161.964 98.7667 159.744 99.2423 157.683 99.9557C157.525 99.9557 157.287 99.9557 157.128 99.9557ZM177.896 99.9557C177.738 99.9557 177.579 99.9557 177.421 99.8765C175.28 99.1631 173.14 98.7667 170.841 98.5289C169.97 98.4497 169.335 97.657 169.415 96.7851C169.494 95.9131 170.287 95.279 171.159 95.3583C173.616 95.5961 175.994 96.1509 178.372 96.8643C179.244 97.1021 179.64 98.0533 179.402 98.846C179.244 99.5594 178.61 99.9557 177.896 99.9557Z" fill="#ABD73D"/>
<path d="M217.767 90.127C197.475 99.956 181.225 115.492 166.957 132.455C159.11 127.382 150.946 122.864 142.068 119.852L141.354 120.645C149.281 128.096 160.695 138.4 168.86 145.772C184.951 128.492 202.945 108.517 218.56 90.8404L217.767 90.127Z" fill="#ABD73D"/>
<path d="M202.073 82.4396H105.446C103.861 82.4396 102.593 81.1714 102.593 79.586C102.593 78.0007 103.861 76.7324 105.446 76.7324H202.073C203.658 76.7324 204.926 78.0007 204.926 79.586C204.926 81.0921 203.658 82.4396 202.073 82.4396Z" fill="#DFE2ED"/>
<path d="M230.529 82.3602H214.914C213.249 82.3602 211.902 81.0127 211.902 79.3481C211.902 77.6835 213.249 76.3359 214.914 76.3359H230.529C232.194 76.3359 233.542 77.6835 233.542 79.3481C233.542 81.0127 232.194 82.3602 230.529 82.3602Z" fill="#DFE2ED"/>
<path d="M129.543 221.075H115.117C112.422 221.075 110.202 218.856 110.202 216.161V207.6C110.202 204.905 112.422 202.686 115.117 202.686H129.543C132.239 202.686 134.458 204.905 134.458 207.6V216.161C134.458 218.856 132.239 221.075 129.543 221.075Z" fill="#DFE2ED"/>
<path d="M129.543 250.96H115.117C112.422 250.96 110.202 248.741 110.202 246.046V237.485C110.202 234.79 112.422 232.57 115.117 232.57H129.543C132.239 232.57 134.458 234.79 134.458 237.485V246.046C134.458 248.741 132.239 250.96 129.543 250.96Z" fill="#DFE2ED"/>
<path d="M129.543 280.843H115.117C112.422 280.843 110.202 278.624 110.202 275.928V267.368C110.202 264.673 112.422 262.453 115.117 262.453H129.543C132.239 262.453 134.458 264.673 134.458 267.368V275.928C134.458 278.624 132.239 280.843 129.543 280.843Z" fill="#DFE2ED"/>
<path d="M212.932 208.948H141.988C141.196 208.948 140.482 208.314 140.482 207.442C140.482 206.649 141.116 205.936 141.988 205.936H212.932C213.725 205.936 214.438 206.57 214.438 207.442C214.438 208.314 213.804 208.948 212.932 208.948Z" fill="#DFE2ED"/>
<path d="M174.884 217.35H141.988C141.196 217.35 140.482 216.716 140.482 215.844C140.482 215.051 141.116 214.338 141.988 214.338H174.884C175.677 214.338 176.39 214.972 176.39 215.844C176.39 216.716 175.677 217.35 174.884 217.35Z" fill="#DFE2ED"/>
<path d="M212.932 239.071H141.988C141.196 239.071 140.482 238.437 140.482 237.565C140.482 236.772 141.116 236.059 141.988 236.059H212.932C213.725 236.059 214.438 236.693 214.438 237.565C214.438 238.357 213.804 239.071 212.932 239.071Z" fill="#DFE2ED"/>
<path d="M174.884 247.393H141.988C141.196 247.393 140.482 246.759 140.482 245.887C140.482 245.094 141.116 244.381 141.988 244.381H174.884C175.677 244.381 176.39 245.015 176.39 245.887C176.39 246.759 175.677 247.393 174.884 247.393Z" fill="#DFE2ED"/>
<path d="M212.932 269.112H141.988C141.196 269.112 140.482 268.478 140.482 267.606C140.482 266.813 141.116 266.1 141.988 266.1H212.932C213.725 266.1 214.438 266.734 214.438 267.606C214.438 268.478 213.804 269.112 212.932 269.112Z" fill="#DFE2ED"/>
<path d="M174.884 277.514H141.988C141.196 277.514 140.482 276.88 140.482 276.008C140.482 275.215 141.116 274.502 141.988 274.502H174.884C175.677 274.502 176.39 275.136 176.39 276.008C176.39 276.801 175.677 277.514 174.884 277.514Z" fill="#DFE2ED"/>
<path d="M120.983 184.059L124.867 183.821C124.946 184.455 125.105 184.931 125.342 185.248C125.739 185.803 126.373 186.041 127.165 186.041C127.72 186.041 128.196 185.882 128.513 185.644C128.83 185.407 128.989 185.09 128.989 184.693C128.989 184.376 128.83 184.059 128.513 183.742C128.196 183.504 127.483 183.187 126.452 182.949C124.629 182.553 123.361 181.998 122.647 181.364C121.855 180.73 121.458 179.858 121.458 178.827C121.458 178.114 121.617 177.48 122.013 176.925C122.409 176.291 122.964 175.815 123.757 175.498C124.55 175.181 125.659 174.943 127.007 174.943C128.672 174.943 130.019 175.26 130.891 175.895C131.763 176.529 132.318 177.559 132.476 178.907L128.592 179.145C128.513 178.51 128.275 178.114 127.958 177.876C127.641 177.638 127.165 177.48 126.611 177.48C126.135 177.48 125.739 177.559 125.501 177.797C125.263 178.035 125.105 178.273 125.105 178.51C125.105 178.748 125.184 178.907 125.422 179.065C125.58 179.224 126.056 179.382 126.769 179.541C128.592 179.937 129.861 180.334 130.574 180.73C131.367 181.126 131.921 181.602 132.239 182.157C132.556 182.712 132.793 183.425 132.793 184.138C132.793 185.01 132.556 185.803 132.08 186.516C131.604 187.23 130.97 187.785 130.098 188.181C129.226 188.577 128.196 188.736 126.928 188.736C124.708 188.736 123.123 188.339 122.251 187.468C121.379 186.596 121.062 185.407 120.983 184.059Z" fill="#99C639"/>
<path d="M143.574 175.182H147.616V183.029C147.616 183.822 147.458 184.535 147.22 185.249C146.982 185.962 146.586 186.517 146.11 187.072C145.555 187.627 145.08 187.944 144.446 188.181C143.653 188.498 142.702 188.657 141.592 188.657C140.958 188.657 140.245 188.578 139.452 188.498C138.659 188.419 138.025 188.261 137.549 187.944C137.074 187.706 136.598 187.309 136.123 186.834C135.726 186.358 135.409 185.803 135.251 185.328C135.013 184.456 134.854 183.742 134.854 183.108V175.182H138.897V183.267C138.897 183.98 139.135 184.535 139.531 184.931C139.927 185.328 140.482 185.566 141.196 185.566C141.909 185.566 142.464 185.328 142.86 184.931C143.257 184.535 143.494 183.98 143.494 183.267V175.182H143.574Z" fill="#99C639"/>
<path d="M159.189 183.029L162.756 184.138C162.518 185.169 162.122 185.961 161.647 186.675C161.092 187.309 160.458 187.864 159.744 188.181C158.951 188.498 158 188.657 156.811 188.657C155.384 188.657 154.195 188.419 153.324 188.022C152.452 187.626 151.659 186.833 150.945 185.803C150.311 184.772 149.915 183.425 149.915 181.76C149.915 179.541 150.47 177.876 151.659 176.687C152.848 175.498 154.433 174.943 156.573 174.943C158.238 174.943 159.586 175.26 160.537 175.974C161.488 176.608 162.201 177.718 162.677 179.065L159.11 179.858C158.951 179.462 158.872 179.145 158.714 178.986C158.476 178.669 158.238 178.431 157.842 178.273C157.525 178.114 157.128 178.035 156.732 178.035C155.781 178.035 155.067 178.431 154.592 179.145C154.195 179.699 154.037 180.571 154.037 181.76C154.037 183.187 154.275 184.218 154.671 184.772C155.147 185.327 155.702 185.565 156.573 185.565C157.366 185.565 157.921 185.327 158.317 184.931C158.714 184.455 159.031 183.821 159.189 183.029Z" fill="#99C639"/>
<path d="M173.537 183.029L177.104 184.138C176.866 185.169 176.469 185.961 175.994 186.675C175.439 187.309 174.805 187.864 174.091 188.181C173.299 188.498 172.348 188.657 171.159 188.657C169.732 188.657 168.543 188.419 167.671 188.022C166.799 187.626 166.006 186.833 165.293 185.803C164.659 184.772 164.262 183.425 164.262 181.76C164.262 179.541 164.817 177.876 166.006 176.687C167.195 175.498 168.781 174.943 170.921 174.943C172.585 174.943 173.933 175.26 174.884 175.974C175.835 176.608 176.549 177.718 177.024 179.065L173.457 179.858C173.299 179.462 173.219 179.145 173.061 178.986C172.823 178.669 172.585 178.431 172.189 178.273C171.872 178.114 171.476 178.035 171.079 178.035C170.128 178.035 169.415 178.431 168.939 179.145C168.543 179.699 168.384 180.571 168.384 181.76C168.384 183.187 168.622 184.218 169.018 184.772C169.494 185.327 170.049 185.565 170.921 185.565C171.713 185.565 172.268 185.327 172.665 184.931C173.061 184.455 173.378 183.821 173.537 183.029Z" fill="#99C639"/>
<path d="M179.085 175.182H190.024V178.035H183.207V180.096H189.548V182.791H183.207V185.407H190.262V188.419H179.085V175.182Z" fill="#99C639"/>
<path d="M191.768 184.059L195.652 183.821C195.731 184.455 195.89 184.931 196.128 185.248C196.524 185.803 197.158 186.041 197.951 186.041C198.506 186.041 198.981 185.882 199.298 185.644C199.615 185.407 199.774 185.09 199.774 184.693C199.774 184.376 199.615 184.059 199.298 183.742C198.981 183.504 198.268 183.187 197.237 182.949C195.414 182.553 194.146 181.998 193.433 181.364C192.64 180.73 192.244 179.858 192.244 178.827C192.244 178.114 192.402 177.48 192.798 176.925C193.195 176.291 193.75 175.815 194.542 175.498C195.335 175.181 196.445 174.943 197.792 174.943C199.457 174.943 200.804 175.26 201.676 175.895C202.548 176.529 203.103 177.559 203.262 178.907L199.378 179.145C199.298 178.51 199.06 178.114 198.743 177.876C198.426 177.638 197.951 177.48 197.396 177.48C196.92 177.48 196.524 177.559 196.286 177.797C196.048 178.035 195.89 178.273 195.89 178.51C195.89 178.748 195.969 178.907 196.207 179.065C196.365 179.224 196.841 179.382 197.554 179.541C199.378 179.937 200.646 180.334 201.359 180.73C202.152 181.126 202.707 181.602 203.024 182.157C203.341 182.712 203.579 183.425 203.579 184.138C203.579 185.01 203.341 185.803 202.865 186.516C202.39 187.23 201.756 187.785 200.884 188.181C200.012 188.577 198.981 188.736 197.713 188.736C195.493 188.736 193.908 188.339 193.036 187.468C192.323 186.516 191.847 185.407 191.768 184.059Z" fill="#99C639"/>
<path d="M205.085 184.059L208.969 183.821C209.048 184.455 209.207 184.931 209.444 185.248C209.841 185.803 210.475 186.041 211.268 186.041C211.822 186.041 212.298 185.882 212.615 185.644C212.932 185.407 213.091 185.09 213.091 184.693C213.091 184.376 212.932 184.059 212.615 183.742C212.298 183.504 211.585 183.187 210.554 182.949C208.731 182.553 207.463 181.998 206.749 181.364C205.957 180.73 205.56 179.858 205.56 178.827C205.56 178.114 205.719 177.48 206.115 176.925C206.512 176.291 207.066 175.815 207.859 175.498C208.652 175.181 209.761 174.943 211.109 174.943C212.774 174.943 214.121 175.26 214.993 175.895C215.865 176.529 216.42 177.559 216.578 178.907L212.694 179.145C212.615 178.51 212.377 178.114 212.06 177.876C211.743 177.638 211.268 177.48 210.713 177.48C210.237 177.48 209.841 177.559 209.603 177.797C209.365 178.035 209.207 178.273 209.207 178.51C209.207 178.748 209.286 178.907 209.524 179.065C209.682 179.224 210.158 179.382 210.871 179.541C212.694 179.937 213.963 180.334 214.676 180.73C215.469 181.126 216.024 181.602 216.341 182.157C216.658 182.712 216.895 183.425 216.895 184.138C216.895 185.01 216.658 185.803 216.182 186.516C215.706 187.23 215.072 187.785 214.2 188.181C213.328 188.577 212.298 188.736 211.03 188.736C208.81 188.736 207.225 188.339 206.353 187.468C205.64 186.516 205.164 185.407 205.085 184.059Z" fill="#99C639"/>
<path d="M227.834 97.2778C228.548 96.3266 231.322 99.7351 231.718 99.4973C232.59 98.9424 230.292 95.2962 231.084 94.7413C232.115 93.9486 233.542 98.8632 234.096 98.7839C234.968 98.7046 233.859 94.0279 235.127 94.4242C236.474 94.8998 235.365 100.052 236.791 100.528C238.218 101.003 237.188 97.3571 238.694 97.6742C239.962 97.912 239.09 100.924 238.932 102.272C238.773 103.778 237.901 105.601 237.584 105.839L234.255 107.028C232.987 106.948 231.322 106.314 230.292 104.174C229.499 102.589 226.645 101.32 226.804 100.845C227.121 99.8144 229.737 101.955 230.292 101.083C230.609 100.607 227.359 97.912 227.834 97.2778Z" fill="#FFCCCC"/>
<path d="M293.388 114.162C287.681 109.803 279.041 110.516 275.87 115.113C275.712 115.272 275.632 115.51 275.474 115.668C275.395 115.668 275.394 115.748 275.315 115.748C274.84 116.144 274.364 116.54 274.047 117.016C273.254 117.967 272.779 119.077 272.382 120.266C272.065 121.455 271.907 122.644 271.907 123.912C271.907 124.546 271.986 125.101 271.986 125.735C271.986 126.052 271.986 126.29 271.986 126.607V127.083V127.558V128.034L271.907 128.43C271.907 128.747 271.827 128.985 271.827 129.302C271.748 129.857 271.59 130.412 271.352 130.967C271.193 131.522 270.956 132.077 270.797 132.711C270.638 133.266 270.559 133.9 270.48 134.534C270.401 135.723 270.401 136.991 270.876 138.18C271.273 139.29 272.065 140.4 273.175 140.875C272.145 140.241 271.431 139.211 271.114 138.101C270.956 137.546 270.876 136.991 270.876 136.357C270.876 136.04 270.876 135.802 270.876 135.485V135.009L270.956 134.613C271.114 133.424 271.51 132.394 271.907 131.205C271.986 130.967 272.065 130.65 272.145 130.333C271.273 135.961 270.797 140.637 275.949 141.589C280.864 142.54 296.242 143.412 297.906 139.052C299.175 135.089 298.62 118.918 293.388 114.162ZM272.62 127.638V127.479C272.699 126.29 272.541 125.022 272.462 123.912C272.462 122.723 272.541 121.613 272.858 120.424C273.017 119.869 273.175 119.315 273.413 118.76C273.651 118.205 273.888 117.729 274.285 117.254C274.523 116.857 274.84 116.54 275.157 116.223C273.492 118.997 273.334 121.138 273.175 123.912C273.017 125.101 272.858 126.449 272.62 127.638Z" fill="#6D82B5"/>
<path d="M289.028 146.345C288.791 146.583 288.553 146.82 288.394 147.138C285.858 151.18 283.242 151.18 280.468 146.345L281.498 140.162L281.894 137.863H287.522L289.028 146.345Z" fill="#F9CBCB"/>
<path d="M289.108 146.345C288.87 146.583 288.711 146.9 288.474 147.138C288.236 146.186 287.364 143.174 286.096 141.589C285.065 140.321 282.846 140.162 281.498 140.162L281.894 137.863H287.522L289.108 146.345Z" fill="#EBB0B0"/>
<path d="M294.894 123.674C294.736 124.546 294.577 125.338 294.26 126.052V124.387V124.07C294.26 124.07 294.26 124.07 294.339 123.991C294.419 123.991 294.577 123.832 294.894 123.674Z" fill="#F9CBCB"/>
<path d="M275.157 124.07V124.784V126.052C274.84 125.338 274.602 124.625 274.443 123.832C274.443 123.753 274.443 123.674 274.522 123.674C274.681 123.753 274.84 123.832 274.919 123.912C274.998 123.991 275.157 124.07 275.157 124.07Z" fill="#EBB0B0"/>
<path d="M294.815 127.083C294.815 129.699 293.943 132.236 292.595 134.296C290.772 137.071 287.839 138.894 284.827 138.894C281.974 138.894 278.644 136.674 276.584 133.504C275.315 131.681 274.523 129.382 274.523 127.083C274.523 120.821 279.12 115.748 284.669 115.748C290.217 115.748 294.815 120.821 294.815 127.083Z" fill="#F9CBCB"/>
<path d="M284.669 115.748C284.51 115.748 284.352 115.748 284.193 115.748C289.583 116.065 293.864 120.98 293.864 127.004C293.864 133.028 289.663 138.815 284.352 138.735C284.51 138.735 284.669 138.735 284.827 138.735C290.138 138.735 294.894 133.187 294.894 126.925C294.815 120.821 290.297 115.748 284.669 115.748Z" fill="#EBB0B0"/>
<path d="M274.919 128.351C277.535 125.577 279.833 122.565 279.913 118.76C283.876 126.528 293.547 122.01 293.943 131.046C295.132 129.778 295.29 124.626 294.815 122.248C294.26 119.79 286.65 115.034 285.303 114.717C284.035 114.479 279.437 115.51 279.437 115.51L275.553 117.016L273.968 120.979C274.047 120.979 273.571 125.735 274.919 128.351Z" fill="#EBB0B0"/>
<path d="M275.077 126.053L274.998 130.254C274.919 130.254 274.919 130.175 274.919 130.175C274.681 130.095 274.443 130.016 274.285 129.858C269.529 127.4 271.114 123.992 272.224 123.437C273.016 123.041 273.888 123.358 274.522 123.675C274.522 123.754 274.443 123.754 274.443 123.833C274.523 124.547 274.76 125.339 275.077 126.053Z" fill="#F9CBCB"/>
<path d="M294.815 129.699C294.656 129.778 294.498 129.778 294.339 129.858V129.54L294.26 126.053C294.577 125.339 294.736 124.547 294.894 123.675C295.449 123.358 296.4 123.041 297.272 123.437C298.303 123.992 299.333 127.638 294.815 129.699Z" fill="#F9CBCB"/>
<path d="M274.998 127.558C277.614 124.784 279.913 121.772 279.992 117.967C283.955 125.735 293.626 121.217 294.022 130.253C295.211 128.985 295.37 123.833 294.894 121.455C294.339 118.997 286.73 114.241 285.382 113.924C284.114 113.686 279.516 114.717 279.516 114.717L275.632 116.223L274.047 120.186C274.047 120.186 273.571 124.942 274.998 127.558Z" fill="#6D82B5"/>
<path d="M284.589 211.264V211.422L283.48 224.898L278.09 290.451L277.693 295.207L277.455 297.744L278.565 302.738C278.565 302.896 278.486 302.975 278.486 303.134L267.23 303.372C267.706 302.896 268.181 302.42 268.419 301.945C269.608 300.122 270.321 298.14 270.718 296.793L271.193 296.634L271.114 295.366L270.876 290.451L267.309 212.373L282.37 211.422L283.48 211.343H283.559L284.589 211.264Z" fill="#F9CBCB"/>
<path d="M299.65 303.609H288.156C288.077 303.213 287.998 302.896 287.998 302.579L289.108 296.396C289.108 296.158 289.028 295.762 289.028 295.128C288.949 294.097 288.79 292.433 288.632 290.372C287.522 276.659 286.571 243.129 285.065 224.263L283.48 224.818C282.925 217.764 282.528 212.69 282.37 211.343V211.264L283.48 211.343H283.559L284.589 211.422L299.65 212.373L295.687 290.451L295.449 295.049C295.449 295.049 295.449 295.049 295.449 295.128L295.37 296.158L295.687 296.317C296.083 297.664 296.796 299.963 298.144 302.024C298.461 302.5 299.016 303.055 299.65 303.609Z" fill="#F9CBCB"/>
<path d="M299.967 253.988C288.949 255.89 277.931 255.732 266.913 253.909C266.596 241.464 262.078 225.452 266.279 201.751L301.711 201.672C305.119 228.781 299.333 242.177 299.967 253.988Z" fill="#6D82B5"/>
<path d="M278.882 301.232C278.803 301.549 278.724 302.025 278.565 302.659C278.565 302.817 278.565 302.897 278.486 303.055C278.01 305.671 277.455 309.793 277.535 310.348L275.711 310.506L275.236 304.878C275.236 304.878 272.858 305.433 271.59 307.256C270.321 309.079 269.529 310.744 266.675 310.903C263.901 311.061 259.7 311.537 259.937 309.793C260.175 308.287 264.535 305.75 267.071 303.293C267.547 302.817 268.023 302.342 268.26 301.866C269.449 300.043 270.163 298.061 270.559 296.714C270.718 296.08 270.876 295.525 270.955 295.208C271.035 294.97 271.035 294.891 271.035 294.891C273.175 295.842 275.474 296 277.535 295.049C277.693 295.128 279.278 299.567 278.882 301.232Z" fill="#6D82B5"/>
<path d="M299.809 310.981C297.034 310.823 296.162 309.158 294.894 307.335C293.626 305.512 291.248 304.957 291.248 304.957L290.772 310.585L288.949 310.427C289.028 309.951 288.553 306.305 288.156 303.689C288.077 303.293 287.998 302.975 287.998 302.658C287.919 302.104 287.839 301.628 287.76 301.311C287.364 299.646 288.949 295.207 288.949 295.207C288.949 295.207 288.949 295.207 289.028 295.207C291.089 296.159 293.388 295.921 295.449 295.049C295.449 295.049 295.449 295.049 295.449 295.128C295.449 295.287 295.528 295.683 295.687 296.317C296.004 297.665 296.796 299.963 298.144 302.024C298.54 302.579 299.016 303.134 299.65 303.689C302.187 306.067 306.308 308.445 306.546 309.872C306.784 311.616 302.583 311.14 299.809 310.981Z" fill="#6D82B5"/>
<path d="M308 211.653C305.039 213.184 288.987 217.039 287.896 213.638C285.325 205.757 284 202 284 202C284 202 282.52 206.721 281.117 212.277C280.182 216.132 263.585 213.524 260 211.653C260.935 202.525 264.442 192.264 265.533 183.249C267.714 173.441 266.468 157.396 266.468 157.396L272.468 146C274.805 146.737 277.533 146.737 280.494 146.283C279.87 151.216 289.688 151.783 288.987 146.283H289.065C292.416 146.907 297.091 147.758 300.442 149.118C302.39 152.123 300.909 161.478 301.299 169.755C300.13 179.791 307.221 211.597 308 211.653Z" fill="url(#paint0_linear_180125_332253)"/>
<path d="M290.772 146.583C290.217 148.961 288.791 152.369 284.669 152.369C280.388 152.369 278.803 148.723 278.169 146.424C279.437 146.187 280.23 146.107 280.309 146.107C280.309 146.107 280.547 150.705 284.51 150.705C288.791 150.705 288.949 146.187 288.949 146.187C289.266 146.187 289.9 146.345 290.772 146.583Z" fill="white"/>
<path d="M283.717 154.906C283.955 154.272 284.589 154.034 285.224 154.272C285.858 154.51 286.095 155.144 285.858 155.778C285.62 156.412 284.986 156.65 284.352 156.412C283.797 156.174 283.48 155.54 283.717 154.906Z" fill="white"/>
<path d="M283.717 160.375C283.955 159.741 284.589 159.503 285.224 159.741C285.858 159.979 286.095 160.613 285.858 161.247C285.62 161.881 284.986 162.119 284.352 161.881C283.797 161.643 283.48 161.009 283.717 160.375Z" fill="white"/>
<path d="M283.717 165.844C283.955 165.21 284.589 164.972 285.224 165.21C285.858 165.447 286.095 166.082 285.858 166.716C285.62 167.35 284.986 167.588 284.352 167.35C283.797 167.112 283.48 166.399 283.717 165.844Z" fill="white"/>
<path d="M274.443 146.899L250.029 131.205L239.09 104.254L232.828 106.87C232.828 106.87 238.298 137.07 242.895 140.558C247.413 143.967 266.754 162.832 266.754 162.832L274.443 146.899Z" fill="#FFBD66"/>
<path d="M336.113 96.169C335.399 95.297 332.784 98.7848 332.308 98.547C331.436 98.0714 333.497 94.2666 332.783 93.791C331.674 92.9983 330.564 97.9921 330.009 97.9921C329.137 97.9128 330.009 93.2361 328.741 93.7117C327.393 94.1873 328.82 99.3396 327.393 99.8945C325.967 100.37 326.838 96.7238 325.332 97.1202C324.064 97.4372 325.095 100.449 325.253 101.718C325.412 103.224 326.442 104.968 326.759 105.205L330.168 106.236C331.436 106.077 333.021 105.364 333.972 103.224C334.686 101.559 337.46 100.212 337.302 99.736C336.905 98.7055 334.369 100.925 333.814 100.132C333.497 99.6567 336.668 96.8824 336.113 96.169Z" fill="#FFCCCC"/>
<path d="M291.882 148.01L315.583 131.206L325.253 103.779L331.594 106.157C331.594 106.157 327.552 136.596 323.192 140.242C318.833 143.888 300.363 163.626 300.363 163.626L291.882 148.01Z" fill="#FFBD66"/>
<path d="M287.681 132.631C287.443 133.503 286.967 134.137 286.413 134.533C285.461 135.247 284.272 135.167 283.4 134.454C282.925 134.058 282.528 133.424 282.291 132.631C282.449 132.631 282.608 132.71 282.766 132.71C284.272 132.948 285.699 132.948 287.205 132.71C287.364 132.71 287.522 132.631 287.681 132.631Z" fill="#2C5782"/>
<path d="M287.205 132.71V133.265C285.778 133.582 284.272 133.503 282.766 133.186V132.631C284.272 132.869 285.699 132.869 287.205 132.71Z" fill="white"/>
<path d="M286.413 134.533C285.461 135.246 284.272 135.167 283.4 134.453C283.638 134.136 284.272 133.898 284.906 133.898C285.541 133.898 286.175 134.136 286.413 134.533Z" fill="#FF6ED1"/>
<path d="M276.108 129.302C276.108 128.826 276.9 128.43 277.852 128.43C278.803 128.43 279.596 128.826 279.596 129.302C279.596 129.777 278.803 130.174 277.852 130.174C276.821 130.174 276.108 129.777 276.108 129.302Z" fill="#FFA9A9"/>
<path d="M289.742 129.302C289.742 128.826 290.534 128.43 291.486 128.43C292.437 128.43 293.229 128.826 293.229 129.302C293.229 129.777 292.437 130.174 291.486 130.174C290.534 130.174 289.742 129.777 289.742 129.302Z" fill="#FFA9A9"/>
<path d="M278.089 127.875C278.089 127.479 278.407 127.082 278.803 126.844C279.199 126.607 279.596 126.527 279.992 126.527C280.388 126.527 280.864 126.607 281.26 126.844C281.656 127.082 281.974 127.479 281.974 127.875C281.657 127.558 281.419 127.479 281.022 127.32C280.705 127.241 280.388 127.241 279.992 127.241C279.675 127.241 279.278 127.32 278.961 127.399C278.724 127.479 278.407 127.637 278.089 127.875Z" fill="#2C5782"/>
<path d="M287.284 127.875C287.284 127.479 287.601 127.082 287.998 126.844C288.394 126.607 288.79 126.527 289.187 126.527C289.583 126.527 290.059 126.607 290.455 126.844C290.851 127.082 291.168 127.479 291.168 127.875C290.851 127.558 290.614 127.479 290.217 127.32C289.9 127.241 289.583 127.241 289.187 127.241C288.87 127.241 288.473 127.32 288.156 127.399C287.919 127.479 287.601 127.637 287.284 127.875Z" fill="#2C5782"/>
<path d="M64.7826 20.2129V34.1638H59.8681C57.5693 34.1638 55.7462 32.3407 55.7462 30.042V24.414C55.7462 22.1153 57.5693 20.2922 59.8681 20.2922H64.7826V20.2129Z" fill="#E6F7FF"/>
<path d="M82.3798 33.847C80.7152 35.7494 66.6057 34.1641 66.6057 34.1641V20.2131C66.6057 20.2131 69.2215 17.6766 69.8556 15.3779C70.5691 13.0791 71.1239 9.74993 72.9471 10.2255C74.6909 10.7011 75.4836 17.1217 73.3434 20.2131C73.3434 20.2131 80.2396 18.3107 82.142 20.3717C83.8859 22.3534 83.9651 32.1032 82.3798 33.847Z" fill="#E6F7FF"/>
<path d="M24.7529 131.266V141.333H21.2652C19.6006 141.333 18.2531 139.985 18.2531 138.32V134.278C18.2531 132.613 19.6006 131.266 21.2652 131.266H24.7529Z" fill="#E6F7FF"/>
<path d="M37.5149 141.175C36.3259 142.522 26.1005 141.412 26.1005 141.412V131.345C26.1005 131.345 28.0029 129.522 28.4785 127.858C28.9541 126.193 29.4297 123.815 30.6979 124.132C31.9662 124.449 32.5211 129.126 30.9357 131.345C30.9357 131.345 35.9295 129.998 37.2771 131.504C38.6246 132.852 38.6246 139.827 37.5149 141.175Z" fill="#E6F7FF"/>
<path d="M178.372 19.7383V29.8052H174.884C173.22 29.8052 171.872 28.4576 171.872 26.793V22.7504C171.872 21.0858 173.22 19.7383 174.884 19.7383H178.372Z" fill="#E6F7FF"/>
<path d="M191.134 29.5672C189.945 30.9147 179.719 29.805 179.719 29.805V19.7381C179.719 19.7381 181.622 17.9149 182.097 16.2503C182.573 14.5857 183.049 12.2077 184.317 12.5248C185.585 12.8419 186.14 17.5186 184.555 19.7381C184.555 19.7381 189.549 18.3905 190.896 19.8966C192.244 21.2442 192.244 28.2989 191.134 29.5672Z" fill="#E6F7FF"/>
<defs>
<linearGradient id="paint0_linear_180125_332253" x1="284" y1="146" x2="284" y2="215" gradientUnits="userSpaceOnUse">
<stop stop-color="#FFC64D"/>
<stop offset="1" stop-color="#FFA64D"/>
</linearGradient>
</defs>
</svg>
